<svg width="461" height="461" viewBox="0 0 461 461" fill="none" xmlns="http://www.w3.org/2000/svg">
<circle cx="230.5" cy="230.5" r="230.5" fill="#252117"/>
<path d="M27.1074 269.169C32.8023 269.169 31.9963 263.299 31.9963 259.386C31.9963 250.581 31.9963 231.355 75.02 202.644C103.492 183.645 143.467 163.512 170.846 156.664C190.402 151.772 199.202 153.729 207.025 159.599C213.869 164.735 216.803 177.208 213.869 193.839C210.851 210.953 178.994 273.409 163.023 302.432C155.201 316.128 138.578 345.086 134.667 351.347C130.755 357.608 136.296 360.478 139.556 361.13C143.467 361.913 146.401 357.217 150.312 351.347C164.652 329.824 206.373 272.104 231.47 237.863L213.869 291.67C212.24 296.236 210.545 305.562 216.803 306.345C223.061 307.128 229.188 300.801 231.47 297.54C240.922 285.474 268.236 252.734 301.872 218.297C335.509 183.861 378.794 154.707 396.721 144.924C401.202 142.478 410.41 138.075 413.343 141.01C416.277 143.945 415.299 148.837 414.321 152.75C408.033 177.915 369.667 247.646 347.83 289.714L302.85 364.065L295.028 376.783C294.376 378.414 293.854 382.066 296.983 383.631C300.53 385.406 303.572 380.282 304.806 378.74C318.105 362.109 338.052 330.803 355.652 300.475C373.253 270.148 407.26 206.684 416.277 185.035C426.055 161.555 430.944 141.011 423.121 134.162C413.343 125.602 395.186 131.252 378.142 141.989C325.34 175.251 288.835 216.015 268.627 238.842L229.514 280.909L236.359 261.343C241.574 247.647 252.982 220.865 244.182 215.362C237.924 211.449 230.492 218.297 227.559 222.21L204.091 253.516L203.113 252.538C203.765 251.56 208.198 241.972 220.714 211.449C234.795 177.013 222.67 157.968 214.847 152.751C207.677 146.881 182.579 139.446 139.556 156.664C85.776 178.187 48.6191 210.471 35.9075 226.124C25.7383 238.646 21.892 250.907 21.2402 256.451C20.78 260.364 20.2628 269.169 27.1074 269.169Z" fill="#C3932F"/>
<path d="M21.2402 256.451L22.7299 256.626L22.7299 256.626L21.2402 256.451ZM35.9075 226.124L34.7431 225.178L34.7431 225.178L35.9075 226.124ZM139.556 156.664L140.113 158.056L140.113 158.056L139.556 156.664ZM214.847 152.751L213.897 153.911L213.954 153.958L214.015 153.998L214.847 152.751ZM220.714 211.449L222.102 212.018L222.102 212.017L220.714 211.449ZM203.113 252.538L201.865 251.706L201.184 252.729L202.053 253.598L203.113 252.538ZM204.091 253.516L203.03 254.577L204.254 255.801L205.291 254.416L204.091 253.516ZM227.559 222.21L228.759 223.11L228.759 223.11L227.559 222.21ZM244.182 215.362L243.386 216.634L243.386 216.634L244.182 215.362ZM236.359 261.343L234.957 260.809L234.95 260.828L234.943 260.848L236.359 261.343ZM229.514 280.909L228.099 280.414L230.613 281.93L229.514 280.909ZM268.627 238.842L269.725 239.863L269.738 239.85L269.75 239.836L268.627 238.842ZM378.142 141.989L378.941 143.258L378.941 143.258L378.142 141.989ZM423.121 134.162L424.11 133.034L424.11 133.034L423.121 134.162ZM416.277 185.035L414.892 184.458L414.892 184.458L416.277 185.035ZM304.806 378.74L305.977 379.677L305.977 379.677L304.806 378.74ZM295.028 376.783L293.75 375.997L293.683 376.107L293.635 376.226L295.028 376.783ZM302.85 364.065L304.128 364.851L304.134 364.842L302.85 364.065ZM347.83 289.714L349.113 290.49L349.138 290.448L349.161 290.405L347.83 289.714ZM414.321 152.75L415.776 153.114L415.776 153.114L414.321 152.75ZM396.721 144.924L396.002 143.607L396.002 143.607L396.721 144.924ZM301.872 218.297L302.946 219.345L302.946 219.345L301.872 218.297ZM231.47 297.54L230.289 296.615L230.264 296.647L230.241 296.68L231.47 297.54ZM213.869 291.67L215.282 292.175L215.289 292.156L215.295 292.137L213.869 291.67ZM231.47 237.863L232.896 238.33L230.26 236.977L231.47 237.863ZM150.312 351.347L151.56 352.179L151.56 352.179L150.312 351.347ZM139.556 361.13L139.261 362.601L139.261 362.601L139.556 361.13ZM163.023 302.432L164.326 303.176L164.332 303.165L164.337 303.155L163.023 302.432ZM213.869 193.839L215.347 194.1L215.347 194.1L213.869 193.839ZM207.025 159.599L206.124 160.798L206.124 160.798L207.025 159.599ZM170.846 156.664L170.482 155.209L170.482 155.209L170.846 156.664ZM75.02 202.644L74.1874 201.397L74.1874 201.397L75.02 202.644ZM30.4963 259.386C30.4963 260.527 30.5474 261.391 30.5333 262.547C30.5204 263.607 30.4452 264.565 30.236 265.367C30.0288 266.161 29.7176 266.698 29.307 267.044C28.9125 267.377 28.2651 267.669 27.1074 267.669V270.669C28.7972 270.669 30.1846 270.228 31.2407 269.338C32.2806 268.461 32.8357 267.286 33.1389 266.124C33.44 264.969 33.5192 263.725 33.5331 262.584C33.5459 261.539 33.4963 260.202 33.4963 259.386H30.4963ZM27.1074 267.669C25.7511 267.669 24.8881 267.248 24.287 266.66C23.6491 266.036 23.1858 265.105 22.8902 263.916C22.2921 261.51 22.5018 258.566 22.7299 256.626L19.7504 256.276C19.5183 258.25 19.2394 261.665 19.9788 264.64C20.352 266.141 21.014 267.655 22.1898 268.805C23.4023 269.99 25.0414 270.669 27.1074 270.669V267.669ZM22.7299 256.626C23.346 251.386 27.0679 239.388 37.0719 227.069L34.7431 225.178C24.4086 237.904 20.4379 250.429 19.7504 256.276L22.7299 256.626ZM37.0719 227.069C49.611 211.629 86.5529 179.491 140.113 158.056L138.998 155.271C84.999 176.882 47.6272 209.313 34.7431 225.178L37.0719 227.069ZM140.113 158.056C161.464 149.512 178.286 147.116 190.594 147.548C202.95 147.982 210.654 151.256 213.897 153.911L215.797 151.59C211.87 148.375 203.44 144.997 190.699 144.55C177.909 144.101 160.671 146.598 138.998 155.271L140.113 158.056ZM214.015 153.998C221.1 158.724 233.207 176.932 219.326 210.881L222.102 212.017C236.382 177.094 224.239 157.212 215.68 151.503L214.015 153.998ZM219.326 210.88C213.07 226.136 208.838 236.153 206.089 242.475C204.715 245.636 203.714 247.868 203.018 249.366C202.67 250.115 202.401 250.675 202.202 251.072C202.103 251.271 202.024 251.423 201.963 251.535C201.932 251.591 201.908 251.633 201.89 251.664C201.871 251.697 201.864 251.709 201.865 251.706L204.362 253.37C204.603 253.007 205.056 252.1 205.739 250.629C206.449 249.101 207.461 246.844 208.84 243.671C211.6 237.323 215.842 227.285 222.102 212.018L219.326 210.88ZM202.053 253.598L203.03 254.577L205.152 252.456L204.174 251.478L202.053 253.598ZM205.291 254.416L228.759 223.11L226.359 221.311L202.891 252.617L205.291 254.416ZM228.759 223.11C230.142 221.265 232.588 218.737 235.366 217.155C238.147 215.572 240.929 215.098 243.386 216.634L244.977 214.091C241.176 211.714 237.114 212.707 233.881 214.548C230.646 216.39 227.909 219.243 226.359 221.311L228.759 223.11ZM243.386 216.634C244.934 217.602 245.823 219.644 245.906 222.979C245.987 226.266 245.266 230.395 244.076 234.897C241.698 243.892 237.587 253.901 234.957 260.809L237.761 261.877C240.346 255.088 244.546 244.858 246.976 235.663C248.19 231.07 248.997 226.616 248.905 222.905C248.814 219.244 247.829 215.874 244.977 214.091L243.386 216.634ZM234.943 260.848L228.099 280.414L230.93 281.404L237.775 261.838L234.943 260.848ZM230.613 281.93L269.725 239.863L267.528 237.82L228.416 279.888L230.613 281.93ZM269.75 239.836C289.945 217.023 326.332 176.399 378.941 143.258L377.342 140.72C324.348 174.103 287.725 215.006 267.504 237.847L269.75 239.836ZM378.941 143.258C387.381 137.942 396.013 133.94 403.67 132.306C411.35 130.667 417.757 131.459 422.133 135.291L424.11 133.034C418.708 128.304 411.147 127.642 403.043 129.372C394.916 131.107 385.947 135.299 377.342 140.72L378.941 143.258ZM422.133 135.291C423.734 136.692 424.787 138.881 425.244 141.921C425.701 144.965 425.539 148.738 424.819 153.119C423.38 161.877 419.764 172.758 414.892 184.458L417.661 185.611C422.567 173.831 426.285 162.701 427.779 153.605C428.527 149.058 428.731 144.944 428.211 141.476C427.689 138.004 426.42 135.056 424.11 133.034L422.133 135.291ZM414.892 184.458C405.917 206.008 371.954 269.397 354.355 299.722L356.95 301.228C374.551 270.898 408.604 207.36 417.661 185.611L414.892 184.458ZM354.355 299.722C336.76 330.04 316.86 361.264 303.634 377.803L305.977 379.677C319.35 362.953 339.343 331.566 356.95 301.228L354.355 299.722ZM303.634 377.803C302.87 378.758 301.996 380.174 300.746 381.326C299.513 382.462 298.553 382.739 297.655 382.29L296.312 384.973C298.961 386.298 301.295 384.9 302.779 383.532C304.245 382.181 305.508 380.264 305.977 379.677L303.634 377.803ZM297.655 382.29C296.623 381.774 296.201 380.959 296.074 380.029C295.938 379.032 296.166 377.976 296.421 377.34L293.635 376.226C293.237 377.221 292.879 378.807 293.102 380.435C293.333 382.129 294.215 383.924 296.312 384.973L297.655 382.29ZM296.305 377.569L304.128 364.851L301.573 363.279L293.75 375.997L296.305 377.569ZM304.134 364.842L349.113 290.49L346.546 288.937L301.567 363.289L304.134 364.842ZM349.161 290.405C360.061 269.407 375.136 241.411 388.244 215.572C401.326 189.786 412.583 165.896 415.776 153.114L412.866 152.386C409.772 164.77 398.701 188.328 385.569 214.215C372.463 240.05 357.436 267.953 346.498 289.023L349.161 290.405ZM396.002 143.607C377.963 153.452 334.554 182.692 300.799 217.249L302.946 219.345C336.465 185.029 379.625 155.962 397.439 146.24L396.002 143.607ZM300.799 217.249C267.122 251.727 239.773 284.509 230.289 296.615L232.651 298.465C242.071 286.44 269.349 253.741 302.946 219.345L300.799 217.249ZM230.241 296.68C229.179 298.198 227.189 300.468 224.745 302.246C222.276 304.043 219.567 305.179 216.989 304.857L216.617 307.833C220.297 308.294 223.78 306.658 226.51 304.672C229.265 302.667 231.479 300.143 232.699 298.4L230.241 296.68ZM216.989 304.857C215.852 304.714 215.178 304.221 214.728 303.539C214.236 302.793 213.946 301.71 213.876 300.349C213.736 297.623 214.502 294.36 215.282 292.175L212.457 291.166C211.607 293.546 210.711 297.229 210.88 300.503C210.965 302.142 211.323 303.823 212.223 305.189C213.164 306.618 214.625 307.584 216.617 307.833L216.989 304.857ZM215.295 292.137L232.896 238.33L230.044 237.397L212.444 291.204L215.295 292.137ZM230.26 236.977C205.168 271.21 163.426 328.959 149.063 350.515L151.56 352.179C165.878 330.69 207.577 272.998 232.68 238.75L230.26 236.977ZM149.063 350.515C147.07 353.507 145.444 356.01 143.844 357.703C142.248 359.391 141.032 359.896 139.85 359.659L139.261 362.601C141.991 363.147 144.198 361.695 146.024 359.764C147.846 357.837 149.642 355.057 151.56 352.179L149.063 350.515ZM139.85 359.659C138.385 359.366 136.573 358.592 135.58 357.388C135.114 356.823 134.835 356.176 134.822 355.399C134.808 354.604 135.07 353.533 135.939 352.142L133.394 350.552C132.308 352.292 131.796 353.928 131.822 355.452C131.849 356.995 132.427 358.28 133.265 359.296C134.879 361.255 137.467 362.242 139.261 362.601L139.85 359.659ZM135.939 352.142C139.87 345.848 156.514 316.854 164.326 303.176L161.721 301.688C153.888 315.403 137.285 344.324 133.394 350.552L135.939 352.142ZM164.337 303.155C172.335 288.622 184.304 265.728 194.654 244.322C199.829 233.62 204.605 223.275 208.28 214.526C211.936 205.823 214.559 198.566 215.347 194.1L212.392 193.579C211.671 197.67 209.18 204.637 205.514 213.364C201.868 222.046 197.116 232.338 191.953 243.016C181.627 264.372 169.682 287.219 161.709 301.709L164.337 303.155ZM215.347 194.1C216.837 185.648 216.853 178.173 215.582 172.101C214.314 166.043 211.734 161.257 207.925 158.399L206.124 160.798C209.16 163.076 211.469 167.095 212.646 172.716C213.819 178.322 213.835 185.399 212.392 193.579L215.347 194.1ZM207.925 158.399C203.833 155.328 199.427 153.249 193.498 152.605C187.623 151.966 180.337 152.743 170.482 155.209L171.21 158.119C180.91 155.692 187.803 155.003 193.173 155.587C198.488 156.165 202.394 158 206.124 160.798L207.925 158.399ZM170.482 155.209C142.872 162.114 102.735 182.346 74.1874 201.397L75.8526 203.892C104.249 184.943 144.062 164.909 171.21 158.119L170.482 155.209ZM74.1874 201.397C52.5598 215.829 41.6019 227.971 36.069 237.741C30.5036 247.568 30.4963 254.882 30.4963 259.386H33.4963C33.4963 255.086 33.489 248.384 38.6795 239.219C43.9025 229.997 54.4565 218.17 75.8526 203.892L74.1874 201.397ZM415.776 153.114C416.266 151.155 416.799 148.795 416.799 146.513C416.799 144.216 416.257 141.804 414.404 139.95L412.282 142.071C413.362 143.151 413.799 144.653 413.799 146.513C413.799 148.39 413.354 150.432 412.866 152.386L415.776 153.114ZM414.404 139.95C413.245 138.79 411.616 138.497 410.096 138.54C408.548 138.584 406.829 138.982 405.153 139.521C401.79 140.604 398.271 142.369 396.002 143.607L397.439 146.24C399.652 145.033 402.977 143.373 406.072 142.377C407.625 141.877 409.038 141.572 410.181 141.539C411.353 141.506 411.975 141.763 412.282 142.071L414.404 139.95Z" fill="#C3932F"/>
</svg>
