<svg width="410" height="358" viewBox="0 0 410 358" fill="none" xmlns="http://www.w3.org/2000/svg">
<circle cx="216" cy="179" r="179" fill="#252117"/>
<path d="M8.10743 214.169C13.8023 214.169 12.9963 208.299 12.9963 204.386C12.9963 195.581 12.9963 176.355 56.02 147.644C84.4916 128.645 124.467 108.512 151.846 101.664C171.402 96.7721 180.202 98.729 188.025 104.599C194.869 109.735 197.803 122.208 194.869 138.839C191.851 155.953 159.994 218.409 144.023 247.432C136.201 261.128 119.578 290.086 115.667 296.347C111.755 302.608 117.296 305.478 120.556 306.13C124.467 306.913 127.401 302.217 131.312 296.347C145.652 274.824 187.373 217.104 212.47 182.863L194.869 236.67C193.24 241.236 191.545 250.562 197.803 251.345C204.061 252.128 210.188 245.801 212.47 242.54C221.922 230.474 249.236 197.734 282.872 163.297C316.509 128.861 359.794 99.7067 377.721 89.9236C382.202 87.4779 391.41 83.0755 394.343 86.0104C397.277 88.9453 396.299 93.8369 395.321 97.7501C389.033 122.915 350.667 192.646 328.83 234.714L283.85 309.065L276.028 321.783C275.376 323.414 274.854 327.066 277.983 328.631C281.53 330.406 284.572 325.282 285.806 323.74C299.105 307.109 319.052 275.803 336.652 245.475C354.253 215.148 388.26 151.684 397.277 130.035C407.055 106.555 411.944 86.0107 404.121 79.1623C394.343 70.6016 376.186 76.252 359.142 86.9892C306.34 120.251 269.835 161.015 249.627 183.842L210.514 225.909L217.359 206.343C222.574 192.647 233.982 165.865 225.182 160.362C218.924 156.449 211.492 163.297 208.559 167.21L185.091 198.516L184.113 197.538C184.765 196.56 189.198 186.972 201.714 156.449C215.795 122.013 203.67 102.968 195.847 97.7505C188.677 91.8807 163.579 84.4455 120.556 101.664C66.776 123.187 29.6191 155.471 16.9075 171.124C6.73827 183.646 2.89196 195.907 2.24016 201.451C1.77999 205.364 1.26279 214.169 8.10743 214.169Z" fill="#C3932F"/>
<path d="M2.24016 201.451L3.72989 201.626L3.7299 201.626L2.24016 201.451ZM16.9075 171.124L15.7431 170.178L15.7431 170.178L16.9075 171.124ZM120.556 101.664L121.113 103.056L121.113 103.056L120.556 101.664ZM195.847 97.7505L194.897 98.9112L194.954 98.9577L195.015 98.9984L195.847 97.7505ZM201.714 156.449L203.102 157.018L203.102 157.017L201.714 156.449ZM184.113 197.538L182.865 196.706L182.184 197.729L183.053 198.598L184.113 197.538ZM185.091 198.516L184.03 199.577L185.254 200.801L186.291 199.416L185.091 198.516ZM208.559 167.21L209.759 168.11L209.759 168.11L208.559 167.21ZM225.182 160.362L224.386 161.634L224.386 161.634L225.182 160.362ZM217.359 206.343L215.957 205.809L215.95 205.828L215.943 205.848L217.359 206.343ZM210.514 225.909L209.099 225.414L211.613 226.93L210.514 225.909ZM249.627 183.842L250.725 184.863L250.738 184.85L250.75 184.836L249.627 183.842ZM359.142 86.9892L359.941 88.2583L359.941 88.2583L359.142 86.9892ZM404.121 79.1623L405.11 78.0337L405.11 78.0337L404.121 79.1623ZM397.277 130.035L395.892 129.458L395.892 129.458L397.277 130.035ZM285.806 323.74L286.977 324.677L286.977 324.677L285.806 323.74ZM276.028 321.783L274.75 320.997L274.683 321.107L274.635 321.226L276.028 321.783ZM283.85 309.065L285.128 309.851L285.134 309.842L283.85 309.065ZM328.83 234.714L330.113 235.49L330.138 235.448L330.161 235.405L328.83 234.714ZM395.321 97.7501L396.776 98.1137L396.776 98.1137L395.321 97.7501ZM377.721 89.9236L377.002 88.6069L377.002 88.6069L377.721 89.9236ZM282.872 163.297L283.946 164.345L283.946 164.345L282.872 163.297ZM212.47 242.54L211.289 241.615L211.264 241.647L211.241 241.68L212.47 242.54ZM194.869 236.67L196.282 237.175L196.289 237.156L196.295 237.137L194.869 236.67ZM212.47 182.863L213.896 183.33L211.26 181.977L212.47 182.863ZM131.312 296.347L132.56 297.179L132.56 297.179L131.312 296.347ZM120.556 306.13L120.261 307.601L120.261 307.601L120.556 306.13ZM144.023 247.432L145.326 248.176L145.332 248.165L145.337 248.155L144.023 247.432ZM194.869 138.839L196.347 139.1L196.347 139.1L194.869 138.839ZM188.025 104.599L187.124 105.798L187.124 105.798L188.025 104.599ZM151.846 101.664L151.482 100.209L151.482 100.209L151.846 101.664ZM56.02 147.644L55.1874 146.397L55.1874 146.397L56.02 147.644ZM11.4963 204.386C11.4963 205.527 11.5474 206.391 11.5333 207.547C11.5204 208.607 11.4452 209.565 11.236 210.367C11.0288 211.161 10.7176 211.698 10.307 212.044C9.91253 212.377 9.26508 212.669 8.10743 212.669V215.669C9.79721 215.669 11.1846 215.228 12.2407 214.338C13.2806 213.461 13.8357 212.286 14.1389 211.124C14.44 209.969 14.5192 208.725 14.5331 207.584C14.5459 206.539 14.4963 205.202 14.4963 204.386H11.4963ZM8.10743 212.669C6.75113 212.669 5.88812 212.248 5.28699 211.66C4.64906 211.036 4.18576 210.105 3.89019 208.916C3.29211 206.51 3.50184 203.566 3.72989 201.626L0.750423 201.276C0.518308 203.25 0.239352 206.665 0.97879 209.64C1.35198 211.141 2.01399 212.655 3.18976 213.805C4.40233 214.99 6.04141 215.669 8.10743 215.669V212.669ZM3.7299 201.626C4.34598 196.386 8.06792 184.388 18.0719 172.069L15.7431 170.178C5.40862 182.904 1.43794 195.429 0.75042 201.276L3.7299 201.626ZM18.0719 172.069C30.611 156.629 67.5529 124.491 121.113 103.056L119.998 100.271C65.999 121.882 28.6272 154.313 15.7431 170.178L18.0719 172.069ZM121.113 103.056C142.464 94.5116 159.286 92.1164 171.594 92.5482C183.95 92.9817 191.654 96.2565 194.897 98.9112L196.797 96.5898C192.87 93.3747 184.44 89.997 171.699 89.55C158.909 89.1013 141.671 91.5976 119.998 100.271L121.113 103.056ZM195.015 98.9984C202.1 103.724 214.207 121.932 200.326 155.881L203.102 157.017C217.382 122.094 205.239 102.212 196.68 96.5026L195.015 98.9984ZM200.326 155.88C194.07 171.136 189.838 181.153 187.089 187.475C185.715 190.636 184.714 192.868 184.018 194.366C183.67 195.115 183.401 195.675 183.202 196.072C183.103 196.271 183.024 196.423 182.963 196.535C182.932 196.591 182.908 196.633 182.89 196.664C182.871 196.697 182.864 196.709 182.865 196.706L185.362 198.37C185.603 198.007 186.056 197.1 186.739 195.629C187.449 194.101 188.461 191.844 189.84 188.671C192.6 182.323 196.842 172.285 203.102 157.018L200.326 155.88ZM183.053 198.598L184.03 199.577L186.152 197.456L185.174 196.478L183.053 198.598ZM186.291 199.416L209.759 168.11L207.359 166.311L183.891 197.617L186.291 199.416ZM209.759 168.11C211.142 166.265 213.588 163.737 216.366 162.155C219.147 160.572 221.929 160.098 224.386 161.634L225.977 159.091C222.176 156.714 218.114 157.707 214.881 159.548C211.646 161.39 208.909 164.243 207.359 166.311L209.759 168.11ZM224.386 161.634C225.934 162.602 226.823 164.644 226.906 167.979C226.987 171.266 226.266 175.395 225.076 179.897C222.698 188.892 218.587 198.901 215.957 205.809L218.761 206.877C221.346 200.088 225.546 189.858 227.976 180.663C229.19 176.07 229.997 171.616 229.905 167.905C229.814 164.244 228.829 160.874 225.977 159.091L224.386 161.634ZM215.943 205.848L209.099 225.414L211.93 226.404L218.775 206.838L215.943 205.848ZM211.613 226.93L250.725 184.863L248.528 182.82L209.416 224.888L211.613 226.93ZM250.75 184.836C270.945 162.023 307.332 121.399 359.941 88.2583L358.342 85.72C305.348 119.103 268.725 160.006 248.504 182.847L250.75 184.836ZM359.941 88.2583C368.381 82.9419 377.013 78.9404 384.67 77.306C392.35 75.6665 398.757 76.4595 403.133 80.2909L405.11 78.0337C399.708 73.3044 392.147 72.6422 384.043 74.3721C375.916 76.107 366.947 80.2993 358.342 85.72L359.941 88.2583ZM403.133 80.2909C404.734 81.6924 405.787 83.8807 406.244 86.9212C406.701 89.9647 406.539 93.7382 405.819 98.1186C404.38 106.877 400.764 117.758 395.892 129.458L398.661 130.611C403.567 118.831 407.285 107.701 408.779 98.605C409.527 94.0582 409.731 89.9441 409.211 86.4757C408.689 83.0043 407.42 80.0564 405.11 78.0337L403.133 80.2909ZM395.892 129.458C386.917 151.008 352.954 214.397 335.355 244.722L337.95 246.228C355.551 215.898 389.604 152.36 398.661 130.611L395.892 129.458ZM335.355 244.722C317.76 275.04 297.86 306.264 284.634 322.803L286.977 324.677C300.35 307.953 320.343 276.566 337.95 246.228L335.355 244.722ZM284.634 322.803C283.87 323.758 282.996 325.174 281.746 326.326C280.513 327.462 279.553 327.739 278.655 327.29L277.312 329.973C279.961 331.298 282.295 329.9 283.779 328.532C285.245 327.181 286.508 325.264 286.977 324.677L284.634 322.803ZM278.655 327.29C277.623 326.774 277.201 325.959 277.074 325.029C276.938 324.032 277.166 322.976 277.421 322.34L274.635 321.226C274.237 322.221 273.879 323.807 274.102 325.435C274.333 327.129 275.215 328.924 277.312 329.973L278.655 327.29ZM277.305 322.569L285.128 309.851L282.573 308.279L274.75 320.997L277.305 322.569ZM285.134 309.842L330.113 235.49L327.546 233.937L282.567 308.289L285.134 309.842ZM330.161 235.405C341.061 214.407 356.136 186.411 369.244 160.572C382.326 134.786 393.583 110.896 396.776 98.1137L393.866 97.3865C390.772 109.77 379.701 133.328 366.569 159.215C353.463 185.05 338.436 212.953 327.498 234.023L330.161 235.405ZM377.002 88.6069C358.963 98.4515 315.554 127.692 281.799 162.249L283.946 164.345C317.465 130.029 360.625 100.962 378.439 91.2403L377.002 88.6069ZM281.799 162.249C248.122 196.727 220.773 229.509 211.289 241.615L213.651 243.465C223.071 231.44 250.349 198.741 283.946 164.345L281.799 162.249ZM211.241 241.68C210.179 243.198 208.189 245.468 205.745 247.246C203.276 249.043 200.567 250.179 197.989 249.857L197.617 252.833C201.297 253.294 204.78 251.658 207.51 249.672C210.265 247.667 212.479 245.143 213.699 243.4L211.241 241.68ZM197.989 249.857C196.852 249.714 196.178 249.221 195.728 248.539C195.236 247.793 194.946 246.71 194.876 245.349C194.736 242.623 195.502 239.36 196.282 237.175L193.457 236.166C192.607 238.546 191.711 242.229 191.88 245.503C191.965 247.142 192.323 248.823 193.223 250.189C194.164 251.618 195.625 252.584 197.617 252.833L197.989 249.857ZM196.295 237.137L213.896 183.33L211.044 182.397L193.444 236.204L196.295 237.137ZM211.26 181.977C186.168 216.21 144.426 273.959 130.063 295.515L132.56 297.179C146.878 275.69 188.577 217.998 213.68 183.75L211.26 181.977ZM130.063 295.515C128.07 298.507 126.444 301.01 124.844 302.703C123.248 304.391 122.032 304.896 120.85 304.659L120.261 307.601C122.991 308.147 125.198 306.695 127.024 304.764C128.846 302.837 130.642 300.057 132.56 297.179L130.063 295.515ZM120.85 304.659C119.385 304.366 117.573 303.592 116.58 302.388C116.114 301.823 115.835 301.176 115.822 300.399C115.808 299.604 116.07 298.533 116.939 297.142L114.394 295.552C113.308 297.292 112.796 298.928 112.822 300.452C112.849 301.995 113.427 303.28 114.265 304.296C115.879 306.255 118.467 307.242 120.261 307.601L120.85 304.659ZM116.939 297.142C120.87 290.848 137.514 261.854 145.326 248.176L142.721 246.688C134.888 260.403 118.285 289.324 114.394 295.552L116.939 297.142ZM145.337 248.155C153.335 233.622 165.304 210.728 175.654 189.322C180.829 178.62 185.605 168.275 189.28 159.526C192.936 150.823 195.559 143.566 196.347 139.1L193.392 138.579C192.671 142.67 190.18 149.637 186.514 158.364C182.868 167.046 178.116 177.338 172.953 188.016C162.627 209.372 150.682 232.219 142.709 246.709L145.337 248.155ZM196.347 139.1C197.837 130.648 197.853 123.173 196.582 117.101C195.314 111.043 192.734 106.257 188.925 103.399L187.124 105.798C190.16 108.076 192.469 112.095 193.646 117.716C194.819 123.322 194.835 130.399 193.392 138.579L196.347 139.1ZM188.925 103.399C184.833 100.328 180.427 98.2494 174.498 97.6045C168.623 96.9656 161.337 97.7434 151.482 100.209L152.21 103.119C161.91 100.692 168.803 100.003 174.173 100.587C179.488 101.165 183.394 103 187.124 105.798L188.925 103.399ZM151.482 100.209C123.872 107.114 83.7345 127.346 55.1874 146.397L56.8526 148.892C85.2488 129.943 125.062 109.909 152.21 103.119L151.482 100.209ZM55.1874 146.397C33.5598 160.829 22.6019 172.971 17.069 182.741C11.5036 192.568 11.4963 199.882 11.4963 204.386H14.4963C14.4963 200.086 14.489 193.384 19.6795 184.219C24.9025 174.997 35.4565 163.17 56.8526 148.892L55.1874 146.397ZM396.776 98.1137C397.266 96.1548 397.799 93.7947 397.799 91.5133C397.799 89.216 397.257 86.8042 395.404 84.95L393.282 87.0707C394.362 88.1515 394.799 89.653 394.799 91.5134C394.799 93.3899 394.354 95.4321 393.866 97.3865L396.776 98.1137ZM395.404 84.95C394.245 83.7902 392.616 83.4972 391.096 83.5403C389.548 83.5843 387.829 83.982 386.153 84.5214C382.79 85.604 379.271 87.3688 377.002 88.6069L378.439 91.2403C380.652 90.0327 383.977 88.3734 387.072 87.3771C388.625 86.8771 390.038 86.5716 391.181 86.5391C392.353 86.5058 392.975 86.7631 393.282 87.0707L395.404 84.95Z" fill="#C3932F"/>
</svg>
