<svg width="919" height="919" viewBox="0 0 919 919" fill="none" xmlns="http://www.w3.org/2000/svg">
<path d="M732.455 495.611C733.984 484.141 734.749 472.29 734.749 459.673C734.749 447.439 733.984 435.205 732.073 423.736L809.682 363.33C816.564 357.978 818.476 347.655 814.27 340.009L740.866 213.081C736.278 204.67 726.72 201.994 718.309 204.67L626.936 241.372C607.821 226.844 587.558 214.61 565.002 205.435L551.238 108.327C549.709 99.1514 542.063 92.6521 532.887 92.6521H386.079C376.903 92.6521 369.639 99.1514 368.11 108.327L354.347 205.435C331.79 214.61 311.145 227.226 292.412 241.372L201.039 204.67C192.628 201.611 183.07 204.67 178.482 213.081L105.461 340.009C100.873 348.038 102.402 357.978 110.048 363.33L187.658 423.736C185.746 435.205 184.217 447.821 184.217 459.673C184.217 471.525 184.982 484.141 186.893 495.611L109.284 556.016C102.402 561.369 100.49 571.691 104.696 579.337L178.1 706.266C182.688 714.676 192.246 717.353 200.657 714.676L292.03 677.974C311.145 692.502 331.408 704.736 353.964 713.912L367.728 811.019C369.639 820.195 376.903 826.694 386.079 826.694H532.887C542.063 826.694 549.709 820.195 550.856 811.019L564.619 713.912C587.176 704.736 607.821 692.502 626.554 677.974L717.927 714.676C726.338 717.735 735.896 714.676 740.484 706.266L813.888 579.337C818.476 570.926 816.564 561.369 809.3 556.016L732.455 495.611ZM459.483 597.306C383.785 597.306 321.85 535.371 321.85 459.673C321.85 383.975 383.785 322.04 459.483 322.04C535.181 322.04 597.116 383.975 597.116 459.673C597.116 535.371 535.181 597.306 459.483 597.306Z" fill="black"/>
</svg>
