<svg width="203" height="203" viewBox="0 0 203 203" fill="none" xmlns="http://www.w3.org/2000/svg">
<mask id="mask0_179_4" style="mask-type:alpha" maskUnits="userSpaceOnUse" x="0" y="122" width="21" height="50">
<path d="M18.8022 159.54C18.8022 145.236 10.3007 130.04 9.5 127.237C6.5 119.224 10.1667 124.417 11 126.249C13 130.749 20.5 143.736 21 159.807C21 166.136 16.6043 170.907 10.0108 171.647C5.03906 172.205 2.36775 170.267 1.21936 167.947C-0.978493 163.507 0.120431 159.806 1.95197 157.586C2.36249 157.089 3.41721 156.846 4.14982 157.586C4.88244 158.326 4.26483 159.298 4.14982 159.806C3.58701 162.293 3.88621 164.117 4.88244 165.727C5.87866 167.337 7.8129 168.687 10.0108 168.687C15.4671 168.687 18.8022 165.052 18.8022 159.54Z" fill="#C3932F"/>
</mask>
<g mask="url(#mask0_179_4)">
<path d="M18.8022 159.54C18.8022 145.236 10.3007 130.04 9.5 127.237C6.5 119.224 10.1667 124.417 11 126.249C13 130.749 20.5 143.736 21 159.807C21 166.136 16.6043 170.907 10.0108 171.647C5.03906 172.205 2.36775 170.267 1.21936 167.947C-0.978493 163.507 0.120431 159.806 1.95197 157.586C2.36249 157.089 3.41721 156.846 4.14982 157.586C4.88244 158.326 4.26483 159.298 4.14982 159.806C3.58701 162.293 3.88621 164.117 4.88244 165.727C5.87866 167.337 7.8129 168.687 10.0108 168.687C15.4671 168.687 18.8022 165.052 18.8022 159.54Z" fill="#C3932F"/>
<path d="M17.8992 157.993C17.8992 144.815 10.2073 130.816 9.48293 128.233C6.76865 120.851 10.0861 125.635 10.8401 127.323C12.6496 131.469 19.4353 143.433 19.8877 158.238C19.8877 164.069 16.5391 168.5 10.0391 168.5L9.94504 166.42C14.8817 166.42 17.8992 163.071 17.8992 157.993Z" fill="#A97F27"/>
<path d="M15.5391 170.5C11.5391 173 2.03906 172 -0.460938 165.5" stroke="#A97F27" stroke-linecap="round"/>
</g>
<mask id="mask1_179_4" style="mask-type:alpha" maskUnits="userSpaceOnUse" x="5" y="49" width="149" height="148">
<path d="M26.472 50.908C26.2905 49.8185 25.26 49.0824 24.1705 49.264C16.7748 50.4966 4.68484 60.5759 5.50014 88.2956C6.01072 105.656 11.3848 120.858 16.4513 134.828L16.8214 135.849C21.7864 149.531 26.2748 161.899 26.0391 174.394C26.0391 175.964 27.0391 176.451 28.0765 176.431C40.5767 176.195 52.8965 180.634 66.5241 185.543L67.5311 185.906C81.445 190.915 96.5876 196.23 113.945 196.741C141.664 197.556 151.744 185.466 152.976 178.07C153.158 176.981 152.422 175.95 151.332 175.769C150.243 175.587 149.212 176.323 149.031 177.413C148.263 182.017 140.743 193.527 114.062 192.743C97.4196 192.253 82.8298 187.163 68.8862 182.142C68.4415 181.982 67.9973 181.822 67.5535 181.662C54.8833 177.095 42.5825 172.661 30.0383 172.431C29.8038 159.883 25.3193 147.532 20.7017 134.815C20.5385 134.365 20.3751 133.915 20.2117 133.465C15.1335 119.463 9.98781 104.818 9.4984 88.178C8.71368 61.4977 20.2238 53.977 24.8281 53.2096C25.9176 53.028 26.6536 51.9976 26.472 50.908Z" fill="#C3932F"/>
</mask>
<g mask="url(#mask1_179_4)">
<path d="M26.472 50.908C26.2905 49.8185 25.26 49.0824 24.1705 49.264C16.7748 50.4966 4.68484 60.5759 5.50014 88.2956C6.01072 105.656 11.3848 120.858 16.4513 134.828L16.8214 135.849C21.7864 149.531 26.2748 161.899 26.0391 174.394C26.0391 175.964 27.0391 176.451 28.0765 176.431C40.5767 176.195 52.8965 180.634 66.5241 185.543L67.5311 185.906C81.445 190.915 96.5876 196.23 113.945 196.741C141.664 197.556 151.744 185.466 152.976 178.07C153.158 176.981 152.422 175.95 151.332 175.769C150.243 175.587 149.212 176.323 149.031 177.413C148.263 182.017 140.743 193.527 114.062 192.743C97.4196 192.253 82.8298 187.163 68.8862 182.142C68.4415 181.982 67.9973 181.822 67.5535 181.662C54.8833 177.095 42.5825 172.661 30.0383 172.431C29.8038 159.883 25.3193 147.532 20.7017 134.815C20.5385 134.365 20.3751 133.915 20.2117 133.465C15.1335 119.463 9.98781 104.818 9.4984 88.178C8.71368 61.4977 20.2238 53.977 24.8281 53.2096C25.9176 53.028 26.6536 51.9976 26.472 50.908Z" fill="#C3932F"/>
<path d="M153.005 178.354C152.005 184.354 141.205 198.542 114.005 197.742C80.0049 196.742 52.5391 175.931 26.0391 176.431C26.5391 149.931 6.53906 124 3.53906 88.5M28.0391 52.5C19.5391 53.5 12.5391 62 12.0391 75" stroke="#A97F27" stroke-width="4" stroke-linecap="round"/>
</g>
<mask id="mask2_179_4" style="mask-type:alpha" maskUnits="userSpaceOnUse" x="10" y="56" width="48" height="98">
<path d="M54.2227 149.9C52.0457 151.921 48.855 153.237 44.4999 153.237C39.556 153.237 35.0181 150.536 31.0125 146.201C27.0045 141.863 23.4807 135.839 20.5537 129.06C14.7 115.503 11.1848 98.8132 10.9999 86.2441C10.7994 72.6055 13.0505 65.0995 16.0066 60.9944C18.9922 56.8485 22.6464 56.2365 24.9999 56.2368C27.8387 56.2368 30.0846 57.0115 31.6308 58.2888C33.1816 59.5698 33.9999 61.3354 33.9999 63.2368C33.9999 64.3109 33.7329 65.4137 33.1659 66.2641C32.5891 67.1293 31.6938 67.7368 30.4999 67.7368C29.3369 67.7368 28.4672 67.3863 27.9995 66.7368C27.5502 66.1127 27.4995 65.7334 27.4995 65.2368C27.4995 64.9606 27.4995 64.2368 27.9995 63.7368C28.4995 63.2368 29.4995 63.2368 29.9995 63.7368C30.4995 64.2368 30.8687 62.6059 29.9995 61.7368C29.4995 61.2368 27.9995 59.7371 24.4995 59.7368C22.353 59.7366 19.7389 59.9326 16.9995 63.7368C14.2306 67.5818 12.3001 72.6754 12.4995 86.2368C12.6823 98.6677 16.4995 115.237 23.4995 128.237C26.9995 134.737 30.4995 138.237 34.4995 142.237C38.4995 146.237 41.7969 147.43 44.4995 147.737C47.2021 148.043 50.9003 148.136 52.9995 146.737C54.638 145.644 55.9995 143.737 55.9995 141.737C55.9995 139.237 54.9995 137.737 54.2227 136.884C53.4459 136.031 51.4995 135.237 50.9995 136.237C50.4995 137.237 51.4995 137.237 51.9995 138.237C52.4995 139.237 52.4995 140.237 51.9995 141.237C51.4995 142.237 50.4995 142.737 49.9995 142.737C49.4995 142.737 48.1858 142.892 47.2021 142.164C46.2001 141.422 45.4995 140.036 45.4995 137.737C45.4995 135.893 46.0276 134.385 47.0091 133.333C47.9938 132.278 49.385 131.737 50.9999 131.737C53.3528 131.737 55.2146 133.161 56.3929 135.189C57.5695 137.213 58.1008 139.885 57.8092 142.541C57.517 145.203 56.3948 147.884 54.2227 149.9Z" fill="#C3932F"/>
</mask>
<g mask="url(#mask2_179_4)">
<path d="M54.2227 149.9C52.0457 151.921 48.855 153.237 44.4999 153.237C39.556 153.237 35.0181 150.536 31.0125 146.201C27.0045 141.863 23.4807 135.839 20.5537 129.06C14.7 115.503 11.1848 98.8132 10.9999 86.2441C10.7994 72.6055 13.0505 65.0995 16.0066 60.9944C18.9922 56.8485 22.6464 56.2365 24.9999 56.2368C27.8387 56.2368 30.0846 57.0115 31.6308 58.2888C33.1816 59.5698 33.9999 61.3354 33.9999 63.2368C33.9999 64.3109 33.7329 65.4137 33.1659 66.2641C32.5891 67.1293 31.6938 67.7368 30.4999 67.7368C29.3369 67.7368 28.4672 67.3863 27.9995 66.7368C27.5502 66.1127 27.4995 65.7334 27.4995 65.2368C27.4995 64.9606 27.4995 64.2368 27.9995 63.7368C28.4995 63.2368 29.4995 63.2368 29.9995 63.7368C30.4995 64.2368 30.8687 62.6059 29.9995 61.7368C29.4995 61.2368 27.9995 59.7371 24.4995 59.7368C22.353 59.7366 19.7389 59.9326 16.9995 63.7368C14.2306 67.5818 12.3001 72.6754 12.4995 86.2368C12.6823 98.6677 16.4995 115.237 23.4995 128.237C26.9995 134.737 30.4995 138.237 34.4995 142.237C38.4995 146.237 41.7969 147.43 44.4995 147.737C47.2021 148.043 50.9003 148.136 52.9995 146.737C54.638 145.644 55.9995 143.737 55.9995 141.737C55.9995 139.237 54.9995 137.737 54.2227 136.884C53.4459 136.031 51.4995 135.237 50.9995 136.237C50.4995 137.237 51.4995 137.237 51.9995 138.237C52.4995 139.237 52.4995 140.237 51.9995 141.237C51.4995 142.237 50.4995 142.737 49.9995 142.737C49.4995 142.737 48.1858 142.892 47.2021 142.164C46.2001 141.422 45.4995 140.036 45.4995 137.737C45.4995 135.893 46.0276 134.385 47.0091 133.333C47.9938 132.278 49.385 131.737 50.9999 131.737C53.3528 131.737 55.2146 133.161 56.3929 135.189C57.5695 137.213 58.1008 139.885 57.8092 142.541C57.517 145.203 56.3948 147.884 54.2227 149.9Z" fill="#C3932F"/>
<path d="M56.5391 148.5C54.362 150.521 48.6639 153.356 44.0391 153C37.5391 152.5 35.3933 150.072 31.3877 145.737C27.3797 141.399 23.4807 135.839 20.5537 129.06C14.6999 115.503 11.0725 98.8058 10.8877 86.2368C10.6871 72.5981 13.0505 65.0995 16.0066 60.9944C18.9922 56.8485 22.5342 55.2365 24.8877 55.2368M49.8877 145C51.8877 145 55.0391 144.5 55.0391 140C55.0391 137.263 53.0391 136 52.0391 136.5M45.5391 142.5C49.0391 144 53.0391 142 53.0391 138.5" stroke="#A97F27" stroke-width="2" stroke-linecap="round"/>
<path d="M21.539 60.5C26.5391 57.4998 32.039 61.4997 30.3874 63.7368M27.0391 65.4998C28.0391 68.4998 33.0391 67.4998 34.0391 65.4998" stroke="#A97F27" stroke-linecap="round"/>
</g>
<mask id="mask3_179_4" style="mask-type:alpha" maskUnits="userSpaceOnUse" x="22" y="54" width="15" height="19">
<path fill-rule="evenodd" clip-rule="evenodd" d="M35 64.057C35 58.3475 31.7196 56.3371 29.8419 55.7112C29.5799 55.6239 29.4383 55.3407 29.5257 55.0788C29.613 54.8168 29.8961 54.6752 30.1581 54.7625C32.2804 55.47 36.5 57.9464 36.5 64.2369C36.5 68.513 33.5 71.7368 29 72.2368C25.5862 72.6161 23.7838 71.3043 23 69.7368C21.5 66.7368 22.25 64.2368 23.5 62.7368C23.7802 62.4005 24.5 62.2368 25 62.7368C25.5 63.2368 25.0785 63.8935 25 64.2368C24.6159 65.9165 24.8201 67.1489 25.5 68.2368C26.1799 69.3246 27.5 70.2368 29 70.2368C32.7239 70.2368 35 67.7808 35 64.057Z" fill="#C3932F"/>
</mask>
<g mask="url(#mask3_179_4)">
<path fill-rule="evenodd" clip-rule="evenodd" d="M35 64.057C35 58.3475 31.7196 56.3371 29.8419 55.7112C29.5799 55.6239 29.4383 55.3407 29.5257 55.0788C29.613 54.8168 29.8961 54.6752 30.1581 54.7625C32.2804 55.47 36.5 57.9464 36.5 64.2369C36.5 68.513 33.5 71.7368 29 72.2368C25.5862 72.6161 23.7838 71.3043 23 69.7368C21.5 66.7368 22.25 64.2368 23.5 62.7368C23.7802 62.4005 24.5 62.2368 25 62.7368C25.5 63.2368 25.0785 63.8935 25 64.2368C24.6159 65.9165 24.8201 67.1489 25.5 68.2368C26.1799 69.3246 27.5 70.2368 29 70.2368C32.7239 70.2368 35 67.7808 35 64.057Z" fill="#C3932F"/>
<path d="M29.0391 68.9999C32.5391 68.9999 35.0391 66.9999 35.0391 63.4999C35.0391 58.4999 31.5391 55.9999 28.8887 55.7368" stroke="#A97F27" stroke-linecap="round"/>
<path d="M34.5391 71C31.0391 73.0003 26.5391 73.5 24.0391 71.5C22.0038 69.8718 21.0391 67 21.0391 65.4998M26.5391 62.5C25.0391 64 25.5391 67 27.0391 68.5" stroke="#A97F27" stroke-width="2" stroke-linecap="round"/>
</g>
<mask id="mask4_179_4" style="mask-type:alpha" maskUnits="userSpaceOnUse" x="37" y="57" width="4" height="6">
<path d="M38.989 61.8773C38.4789 62.1527 37.5014 62.7373 37.5014 62.2373C37.5014 61.8773 39.0014 61.7373 39.0014 60.2373C39.0014 59.7373 38.473 59.5015 38.0014 59.7373C37.5299 59.9731 37.0014 59.395 37.0014 58.7373C37.0014 58.0797 37.5028 57.7373 38.0014 57.7373C38.2509 57.7373 38.9656 57.7001 39.5014 58.2373C40.452 59.1895 40.4359 61.096 38.989 61.8773Z" fill="#C3932F"/>
</mask>
<g mask="url(#mask4_179_4)">
<path d="M38.989 61.8773C38.4789 62.1527 37.5014 62.7373 37.5014 62.2373C37.5014 61.8773 39.0014 61.7373 39.0014 60.2373C39.0014 59.7373 38.473 59.5015 38.0014 59.7373C37.5299 59.9731 37.0014 59.395 37.0014 58.7373C37.0014 58.0797 37.5028 57.7373 38.0014 57.7373C38.2509 57.7373 38.9656 57.7001 39.5014 58.2373C40.452 59.1895 40.4359 61.096 38.989 61.8773Z" fill="#C3932F"/>
<path d="M37.5382 59.9999C38.0391 59.4999 39.5387 59.4998 37.8876 61.2367M41.0391 58.5C41.0391 61 39.0391 62.5 37.0391 63" stroke="#A97F27" stroke-linecap="round"/>
</g>
<mask id="mask5_179_4" style="mask-type:alpha" maskUnits="userSpaceOnUse" x="37" y="3" width="22" height="50">
<path d="M39.3443 16.1967C39.3443 30.501 47.8458 45.6966 48.6465 48.5C51.6465 56.5127 47.9798 51.3201 47.1465 49.4882C45.1465 44.9882 37.6465 32.001 37.1465 15.9304C37.1465 9.6012 41.5422 4.82977 48.1357 4.08971C53.1378 3.52828 55.7787 5.46988 56.9271 7.78999C59.125 12.2303 58.0261 15.9306 56.1945 18.1507C55.784 18.6484 54.7293 18.8908 53.9967 18.1507C53.264 17.4107 53.8816 16.4387 53.9967 15.9306C54.5595 13.4443 54.2603 11.6203 53.264 10.0102C52.2678 8.40001 50.3336 7.04993 48.1357 7.04993C42.6794 7.04993 39.3443 10.6849 39.3443 16.1967Z" fill="#C3932F"/>
</mask>
<g mask="url(#mask5_179_4)">
<path d="M39.3443 16.1967C39.3443 30.501 47.8458 45.6966 48.6465 48.5C51.6465 56.5127 47.9798 51.3201 47.1465 49.4882C45.1465 44.9882 37.6465 32.001 37.1465 15.9304C37.1465 9.6012 41.5422 4.82977 48.1357 4.08971C53.1378 3.52828 55.7787 5.46988 56.9271 7.78999C59.125 12.2303 58.0261 15.9306 56.1945 18.1507C55.784 18.6484 54.7293 18.8908 53.9967 18.1507C53.264 17.4107 53.8816 16.4387 53.9967 15.9306C54.5595 13.4443 54.2603 11.6203 53.264 10.0102C52.2678 8.40001 50.3336 7.04993 48.1357 7.04993C42.6794 7.04993 39.3443 10.6849 39.3443 16.1967Z" fill="#C3932F"/>
<path d="M40.2463 16.7437C40.2463 29.9217 49.3147 47.4174 50.0391 50.0001C52.7533 57.3819 48.0594 49.1016 47.3054 47.4139C45.4959 43.2682 38.7102 31.3036 38.2578 16.4983C38.2578 10.6675 42.2349 6.27176 48.2005 5.58997C52.7261 5.07275 55.1156 6.86148 56.1546 8.99891C58.1431 13.0896 57.1488 16.4985 55.4917 18.5439C55.1203 19.0023 54.1661 19.2257 53.5032 18.5439C52.8404 17.8621 53.3992 16.9666 53.5032 16.4985C54.0124 14.208 53.7417 12.5276 52.8404 11.0443C51.939 9.5609 50.189 8.31712 48.2005 8.31712C43.2638 8.31712 40.2463 11.6659 40.2463 16.7437Z" fill="#A97F27"/>
</g>
<mask id="mask6_179_4" style="mask-type:alpha" maskUnits="userSpaceOnUse" x="28" y="0" width="25" height="127">
<path d="M33.6459 124.5C39.6459 123.5 51.4459 114.7 50.6459 87.5C49.6459 53.5 29.6459 28.5 30.1459 2" stroke="#C3932F" stroke-width="4" stroke-linecap="round"/>
</mask>
<g mask="url(#mask6_179_4)">
<path d="M33.6459 124.5C39.6459 123.5 51.4459 114.7 50.6459 87.5C49.6459 53.5 29.6459 28.5 30.1459 2" stroke="#C3932F" stroke-width="4" stroke-linecap="round"/>
<path d="M33.5391 126.5C41.0391 126.5 54.4459 114.7 53.6459 87.5C53.1901 72 53.6459 69.5 52.0391 60.5" stroke="#A97F27" stroke-width="4" stroke-linecap="round"/>
<path d="M28.0396 15C32.0396 28 39.3043 48.0921 42.5392 56C45.774 63.9078 50.5398 91 41.0394 94.5" stroke="#A97F27" stroke-width="2" stroke-linecap="round"/>
</g>
<mask id="mask7_179_4" style="mask-type:alpha" maskUnits="userSpaceOnUse" x="0" y="22" width="48" height="98">
<path d="M3.9228 25.8367C6.09985 23.8157 9.29048 22.5 13.6456 22.5C18.5895 22.5 23.1274 25.2003 27.133 29.5357C31.141 33.8735 34.6648 39.8979 37.5918 46.6768C43.4455 60.2339 46.9607 76.9236 47.1456 89.4926C47.3461 103.131 45.095 110.637 42.1389 114.742C39.1533 118.888 35.4991 119.5 33.1456 119.5C30.3068 119.5 28.0609 118.725 26.5147 117.448C24.9639 116.167 24.1456 114.401 24.1456 112.5C24.1456 111.426 24.4127 110.323 24.9796 109.473C25.5564 108.607 26.4517 108 27.6456 108C28.8086 108 29.6783 108.35 30.146 109C30.5953 109.624 30.646 110.003 30.646 110.5C30.646 110.776 30.646 111.5 30.146 112C29.646 112.5 28.646 112.5 28.146 112C27.646 111.5 27.2768 113.131 28.146 114C28.646 114.5 30.146 116 33.646 116C35.7925 116 38.4066 115.804 41.146 112C43.9149 108.155 45.8454 103.061 45.646 89.5C45.4632 77.0691 41.646 60.5 34.646 47.5C31.146 41 27.646 37.5 23.646 33.5C19.646 29.5 16.3486 28.3064 13.646 28C10.9434 27.6936 7.24523 27.6005 5.146 29C3.5075 30.0923 2.146 32 2.146 34C2.146 36.5 3.146 38 3.9228 38.8531C4.69959 39.7062 6.646 40.5 7.146 39.5C7.646 38.5 6.646 38.5 6.146 37.5C5.646 36.5 5.646 35.5 6.146 34.5C6.646 33.5 7.646 33 8.146 33C8.646 33 9.95969 32.8451 10.9434 33.5731C11.9454 34.3146 12.646 35.701 12.646 38C12.646 39.8438 12.118 41.3521 11.1364 42.4037C10.1517 43.4587 8.76054 44 7.14562 44C4.79266 44 2.93094 42.5753 1.75258 40.5481C0.575982 38.524 0.0447352 35.8522 0.336331 33.1954C0.628489 30.5335 1.75075 27.853 3.9228 25.8367Z" fill="#C3932F"/>
</mask>
<g mask="url(#mask7_179_4)">
<path d="M3.9228 25.8367C6.09985 23.8157 9.29048 22.5 13.6456 22.5C18.5895 22.5 23.1274 25.2003 27.133 29.5357C31.141 33.8735 34.6648 39.8979 37.5918 46.6768C43.4455 60.2339 46.9607 76.9236 47.1456 89.4926C47.3461 103.131 45.095 110.637 42.1389 114.742C39.1533 118.888 35.4991 119.5 33.1456 119.5C30.3068 119.5 28.0609 118.725 26.5147 117.448C24.9639 116.167 24.1456 114.401 24.1456 112.5C24.1456 111.426 24.4127 110.323 24.9796 109.473C25.5564 108.607 26.4517 108 27.6456 108C28.8086 108 29.6783 108.35 30.146 109C30.5953 109.624 30.646 110.003 30.646 110.5C30.646 110.776 30.646 111.5 30.146 112C29.646 112.5 28.646 112.5 28.146 112C27.646 111.5 27.2768 113.131 28.146 114C28.646 114.5 30.146 116 33.646 116C35.7925 116 38.4066 115.804 41.146 112C43.9149 108.155 45.8454 103.061 45.646 89.5C45.4632 77.0691 41.646 60.5 34.646 47.5C31.146 41 27.646 37.5 23.646 33.5C19.646 29.5 16.3486 28.3064 13.646 28C10.9434 27.6936 7.24523 27.6005 5.146 29C3.5075 30.0923 2.146 32 2.146 34C2.146 36.5 3.146 38 3.9228 38.8531C4.69959 39.7062 6.646 40.5 7.146 39.5C7.646 38.5 6.646 38.5 6.146 37.5C5.646 36.5 5.646 35.5 6.146 34.5C6.646 33.5 7.646 33 8.146 33C8.646 33 9.95969 32.8451 10.9434 33.5731C11.9454 34.3146 12.646 35.701 12.646 38C12.646 39.8438 12.118 41.3521 11.1364 42.4037C10.1517 43.4587 8.76054 44 7.14562 44C4.79266 44 2.93094 42.5753 1.75258 40.5481C0.575982 38.524 0.0447352 35.8522 0.336331 33.1954C0.628489 30.5335 1.75075 27.853 3.9228 25.8367Z" fill="#C3932F"/>
<path d="M3.53906 32.9999C3.53906 27.9999 9.03906 26.8749 13.5391 27.9999C19.5391 29.4999 22.0334 31.6646 26.0391 35.9999C30.047 40.3378 33.9461 45.8978 36.8731 52.6767C42.7268 66.2339 45.0391 82.9999 44.5391 95.4999M43.0391 115C39.0391 120.5 26.0391 120 23.5391 115M9.53906 32C8.03906 32 6.53906 34 6.03906 35C5.53906 36 5.53906 37 6.53906 38M0.539063 41C0.539063 43 4.03906 44 6.53906 44C9.03906 44 14.0391 42 14.0391 39" stroke="#A97F27" stroke-width="2" stroke-linecap="round"/>
<path d="M31.7576 115C29.2571 115.5 26.2578 113.5 27.7576 112C28.5391 111.5 30.0391 113 31.0391 111" stroke="#A97F27" stroke-linecap="round"/>
</g>
<mask id="mask8_179_4" style="mask-type:alpha" maskUnits="userSpaceOnUse" x="21" y="103" width="15" height="18">
<path fill-rule="evenodd" clip-rule="evenodd" d="M23.1465 111.68C23.1465 117.389 26.4269 119.4 28.3046 120.026C28.5666 120.113 28.7081 120.396 28.6208 120.658C28.5335 120.92 28.2503 121.062 27.9884 120.974C25.8661 120.267 21.6465 117.79 21.6465 111.5C21.6465 107.224 24.6465 104 29.1465 103.5C32.5603 103.121 34.3627 104.432 35.1465 106C36.6465 109 35.8965 111.5 34.6465 113C34.3663 113.336 33.6465 113.5 33.1465 113C32.6465 112.5 33.068 111.843 33.1465 111.5C33.5306 109.82 33.3264 108.588 32.6465 107.5C31.9666 106.412 30.6465 105.5 29.1465 105.5C25.4226 105.5 23.1465 107.956 23.1465 111.68Z" fill="#C3932F"/>
</mask>
<g mask="url(#mask8_179_4)">
<path fill-rule="evenodd" clip-rule="evenodd" d="M23.1465 111.68C23.1465 117.389 26.4269 119.4 28.3046 120.026C28.5666 120.113 28.7081 120.396 28.6208 120.658C28.5335 120.92 28.2503 121.062 27.9884 120.974C25.8661 120.267 21.6465 117.79 21.6465 111.5C21.6465 107.224 24.6465 104 29.1465 103.5C32.5603 103.121 34.3627 104.432 35.1465 106C36.6465 109 35.8965 111.5 34.6465 113C34.3663 113.336 33.6465 113.5 33.1465 113C32.6465 112.5 33.068 111.843 33.1465 111.5C33.5306 109.82 33.3264 108.588 32.6465 107.5C31.9666 106.412 30.6465 105.5 29.1465 105.5C25.4226 105.5 23.1465 107.956 23.1465 111.68Z" fill="#C3932F"/>
<path d="M34.5391 113.5C30.5391 113.5 36.5391 106.583 30.0391 105.5C27.0391 105 23.2588 106.5 23.2588 111.5C23.2588 116.5 25.2588 119.5 29.2588 120" stroke="#A97F27" stroke-linecap="round"/>
</g>
<mask id="mask9_179_4" style="mask-type:alpha" maskUnits="userSpaceOnUse" x="17" y="113" width="5" height="5">
<path d="M19.1575 113.859C19.6676 113.584 20.6451 112.999 20.6451 113.499C20.6451 113.859 19.1451 113.999 19.1451 115.499C19.1451 115.999 19.6735 116.235 20.1451 115.999C20.6166 115.764 21.1451 116.342 21.1451 116.999C21.1451 117.657 20.6437 117.999 20.1451 117.999C19.8956 117.999 19.1809 118.037 18.6451 117.499C17.6944 116.547 17.7106 114.641 19.1575 113.859Z" fill="#C3932F"/>
</mask>
<g mask="url(#mask9_179_4)">
<path d="M19.1575 113.859C19.6676 113.584 20.6451 112.999 20.6451 113.499C20.6451 113.859 19.1451 113.999 19.1451 115.499C19.1451 115.999 19.6735 116.235 20.1451 115.999C20.6166 115.764 21.1451 116.342 21.1451 116.999C21.1451 117.657 20.6437 117.999 20.1451 117.999C19.8956 117.999 19.1809 118.037 18.6451 117.499C17.6944 116.547 17.7106 114.641 19.1575 113.859Z" fill="#C3932F"/>
<path d="M17.5391 117C18.5391 118 20.2581 118.375 21.5391 117M21.0391 114C20.0391 114 19.0391 115 20.0391 115.5" stroke="#A97F27" stroke-linecap="round"/>
</g>
<mask id="mask10_179_4" style="mask-type:alpha" maskUnits="userSpaceOnUse" x="30" y="181" width="50" height="22">
<path d="M42.7014 183.44C57.0057 183.44 72.2013 191.941 75.0047 192.742C83.0174 195.742 77.8248 192.075 75.9929 191.242C71.4929 189.242 58.5057 181.742 42.4351 181.242C36.1059 181.242 31.3345 185.637 30.5944 192.231C30.0391 197 31.9746 199.874 34.2947 201.022C38.7351 203.22 42.4353 202.121 44.6555 200.29C45.1531 199.879 45.3955 198.824 44.6555 198.092C43.9154 197.359 42.9434 197.977 42.4353 198.092C39.949 198.655 38.125 198.355 36.5149 197.359C34.9047 196.363 33.5547 194.429 33.5547 192.231C33.5547 186.775 37.1896 183.44 42.7014 183.44Z" fill="#C3932F"/>
</mask>
<g mask="url(#mask10_179_4)">
<path d="M42.7014 183.44C57.0057 183.44 72.2013 191.941 75.0047 192.742C83.0174 195.742 77.8248 192.075 75.9929 191.242C71.4929 189.242 58.5057 181.742 42.4351 181.242C36.1059 181.242 31.3345 185.637 30.5944 192.231C30.0391 197 31.9746 199.874 34.2947 201.022C38.7351 203.22 42.4353 202.121 44.6555 200.29C45.1531 199.879 45.3955 198.824 44.6555 198.092C43.9154 197.359 42.9434 197.977 42.4353 198.092C39.949 198.655 38.125 198.355 36.5149 197.359C34.9047 196.363 33.5547 194.429 33.5547 192.231C33.5547 186.775 37.1896 183.44 42.7014 183.44Z" fill="#C3932F"/>
<path d="M43.2486 184.342C56.4266 184.342 70.4257 192.034 73.0084 192.758C80.3902 195.473 75.6064 192.155 73.9188 191.401C69.7731 189.592 57.8085 182.806 43.0032 182.354C37.1724 182.354 33.5391 185.5 33.5391 190C33.5391 192.704 34.5391 195 37.0391 196.5L34.822 192.296C34.822 187.359 38.1708 184.342 43.2486 184.342Z" fill="#A97F27"/>
<path d="M31.0391 198C35.8391 202.8 43.0391 200.333 46.0391 198.5C47.2391 202.1 38.2057 204.333 33.5391 205L31.0391 198Z" fill="#A97F27"/>
</g>
<mask id="mask11_179_4" style="mask-type:alpha" maskUnits="userSpaceOnUse" x="49" y="144" width="98" height="48">
<path d="M52.3416 148.018C50.3206 150.196 49.0049 153.386 49.0049 157.741C49.0049 162.685 51.7052 167.223 56.0406 171.229C60.3784 175.237 66.4028 178.76 73.1817 181.687C86.7388 187.541 103.428 191.056 115.998 191.241C129.636 191.442 137.142 189.191 141.247 186.235C145.393 183.249 146.005 179.595 146.005 177.241C146.005 174.403 145.23 172.157 143.953 170.61C142.672 169.06 140.906 168.241 139.005 168.241C137.931 168.241 136.828 168.508 135.978 169.075C135.112 169.652 134.505 170.547 134.505 171.741C134.505 172.904 134.855 173.774 135.505 174.242C136.129 174.691 136.508 174.742 137.005 174.742C137.281 174.742 138.005 174.742 138.505 174.242C139.005 173.742 139.005 172.742 138.505 172.242C138.005 171.742 139.636 171.373 140.505 172.242C141.005 172.742 142.505 174.242 142.505 177.742C142.505 179.888 142.309 182.502 138.505 185.242C134.66 188.011 129.566 189.941 116.005 189.742C103.574 189.559 87.0049 185.742 74.0049 178.742C67.5049 175.242 64.0049 171.742 60.0049 167.742C56.0049 163.742 54.8112 160.444 54.5049 157.742C54.1985 155.039 54.1054 151.341 55.5049 149.242C56.5972 147.603 58.5049 146.242 60.5049 146.242C63.0049 146.242 64.5049 147.242 65.358 148.018C66.211 148.795 67.0049 150.742 66.0049 151.242C65.0049 151.742 65.0049 150.742 64.0049 150.242C63.0049 149.742 62.0049 149.742 61.0049 150.242C60.0049 150.742 59.5049 151.742 59.5049 152.242C59.5049 152.742 59.35 154.055 60.078 155.039C60.8195 156.041 62.2059 156.742 64.5049 156.742C66.3487 156.742 67.857 156.214 68.9086 155.232C69.9636 154.247 70.5049 152.856 70.5049 151.241C70.5049 148.888 69.0802 147.027 67.053 145.848C65.0289 144.672 62.3571 144.14 59.7003 144.432C57.0384 144.724 54.3579 145.846 52.3416 148.018Z" fill="#C3932F"/>
</mask>
<g mask="url(#mask11_179_4)">
<path d="M52.3416 148.018C50.3206 150.196 49.0049 153.386 49.0049 157.741C49.0049 162.685 51.7052 167.223 56.0406 171.229C60.3784 175.237 66.4028 178.76 73.1817 181.687C86.7388 187.541 103.428 191.056 115.998 191.241C129.636 191.442 137.142 189.191 141.247 186.235C145.393 183.249 146.005 179.595 146.005 177.241C146.005 174.403 145.23 172.157 143.953 170.61C142.672 169.06 140.906 168.241 139.005 168.241C137.931 168.241 136.828 168.508 135.978 169.075C135.112 169.652 134.505 170.547 134.505 171.741C134.505 172.904 134.855 173.774 135.505 174.242C136.129 174.691 136.508 174.742 137.005 174.742C137.281 174.742 138.005 174.742 138.505 174.242C139.005 173.742 139.005 172.742 138.505 172.242C138.005 171.742 139.636 171.373 140.505 172.242C141.005 172.742 142.505 174.242 142.505 177.742C142.505 179.888 142.309 182.502 138.505 185.242C134.66 188.011 129.566 189.941 116.005 189.742C103.574 189.559 87.0049 185.742 74.0049 178.742C67.5049 175.242 64.0049 171.742 60.0049 167.742C56.0049 163.742 54.8112 160.444 54.5049 157.742C54.1985 155.039 54.1054 151.341 55.5049 149.242C56.5972 147.603 58.5049 146.242 60.5049 146.242C63.0049 146.242 64.5049 147.242 65.358 148.018C66.211 148.795 67.0049 150.742 66.0049 151.242C65.0049 151.742 65.0049 150.742 64.0049 150.242C63.0049 149.742 62.0049 149.742 61.0049 150.242C60.0049 150.742 59.5049 151.742 59.5049 152.242C59.5049 152.742 59.35 154.055 60.078 155.039C60.8195 156.041 62.2059 156.742 64.5049 156.742C66.3487 156.742 67.857 156.214 68.9086 155.232C69.9636 154.247 70.5049 152.856 70.5049 151.241C70.5049 148.888 69.0802 147.027 67.053 145.848C65.0289 144.672 62.3571 144.14 59.7003 144.432C57.0384 144.724 54.3579 145.846 52.3416 148.018Z" fill="#C3932F"/>
<path d="M72.5396 182.5C86.0967 188.354 103.436 191.169 116.005 191.353C129.644 191.554 137.143 189.191 141.248 186.235C145.394 183.249 147.539 173 144.04 169M56.5391 161C52.5391 154.5 54.5396 147.353 59.5396 146.5C63.4825 145.827 65.3729 148.5 65.0396 149.5M71.5396 150.5C71.5396 152.5 69.08 155.113 66.0054 156C62.5396 157 59.5396 155.5 59.0396 155" stroke="#A97F27" stroke-width="2" stroke-linecap="round"/>
<path d="M141.505 175.854C142.539 172.5 138.505 170 138.505 171.854C138.54 173 139.539 175 135.039 175" stroke="#A97F27" stroke-linecap="round"/>
</g>
<mask id="mask12_179_4" style="mask-type:alpha" maskUnits="userSpaceOnUse" x="129" y="165" width="19" height="16">
<path fill-rule="evenodd" clip-rule="evenodd" d="M138.185 167.242C143.894 167.242 145.905 170.522 146.53 172.4C146.618 172.662 146.901 172.803 147.163 172.716C147.425 172.629 147.566 172.346 147.479 172.084C146.772 169.961 144.295 165.742 138.005 165.742C133.729 165.742 130.505 168.742 130.005 173.242C129.626 176.656 130.937 178.458 132.505 179.242C135.505 180.742 138.005 179.992 139.505 178.742C139.841 178.462 140.005 177.742 139.505 177.242C139.005 176.742 138.348 177.163 138.005 177.242C136.325 177.626 135.093 177.422 134.005 176.742C132.917 176.062 132.005 174.742 132.005 173.242C132.005 169.518 134.461 167.242 138.185 167.242Z" fill="#C3932F"/>
</mask>
<g mask="url(#mask12_179_4)">
<path fill-rule="evenodd" clip-rule="evenodd" d="M138.185 167.242C143.894 167.242 145.905 170.522 146.53 172.4C146.618 172.662 146.901 172.803 147.163 172.716C147.425 172.629 147.566 172.346 147.479 172.084C146.772 169.961 144.295 165.742 138.005 165.742C133.729 165.742 130.505 168.742 130.005 173.242C129.626 176.656 130.937 178.458 132.505 179.242C135.505 180.742 138.005 179.992 139.505 178.742C139.841 178.462 140.005 177.742 139.505 177.242C139.005 176.742 138.348 177.163 138.005 177.242C136.325 177.626 135.093 177.422 134.005 176.742C132.917 176.062 132.005 174.742 132.005 173.242C132.005 169.518 134.461 167.242 138.185 167.242Z" fill="#C3932F"/>
<path d="M130.539 179.5C135.039 181 139.539 180 139.539 177.354M133.039 175C130.539 171.5 133.505 167.354 138.005 167.354C143.005 167.354 145.539 170 146.039 174" stroke="#A97F27" stroke-linecap="round"/>
</g>
<mask id="mask13_179_4" style="mask-type:alpha" maskUnits="userSpaceOnUse" x="139" y="162" width="6" height="4">
<path d="M140.364 163.253C140.089 163.763 139.504 164.74 140.004 164.74C140.364 164.74 140.504 163.24 142.004 163.24C142.504 163.24 142.74 163.769 142.504 164.24C142.269 164.712 142.847 165.24 143.504 165.24C144.162 165.24 144.504 164.739 144.504 164.24C144.504 163.991 144.542 163.276 144.004 162.74C143.052 161.79 141.146 161.806 140.364 163.253Z" fill="#C3932F"/>
</mask>
<g mask="url(#mask13_179_4)">
<path d="M140.364 163.253C140.089 163.763 139.504 164.74 140.004 164.74C140.364 164.74 140.504 163.24 142.004 163.24C142.504 163.24 142.74 163.769 142.504 164.24C142.269 164.712 142.847 165.24 143.504 165.24C144.162 165.24 144.504 164.739 144.504 164.24C144.504 163.991 144.542 163.276 144.004 162.74C143.052 161.79 141.146 161.806 140.364 163.253Z" fill="#C3932F"/>
<path d="M145.039 162C145.039 163 144.539 166.5 141.539 165C142.039 164 142.039 162 140.539 164.5" stroke="#A97F27" stroke-linecap="round"/>
</g>
<mask id="mask14_179_4" style="mask-type:alpha" maskUnits="userSpaceOnUse" x="149" y="144" width="50" height="22">
<path d="M185.843 162.889C171.538 162.889 156.343 154.388 153.539 153.587C145.527 150.587 150.719 154.254 152.551 155.087C157.051 157.087 170.038 164.587 186.109 165.087C192.438 165.087 197.209 160.692 197.95 154.098C198.507 149.129 196.569 146.455 194.249 145.307C189.809 143.109 186.109 144.208 183.888 146.039C183.391 146.45 183.148 147.505 183.888 148.237C184.629 148.97 185.601 148.352 186.109 148.237C188.595 147.674 190.419 147.974 192.029 148.97C193.639 149.966 194.989 151.9 194.989 154.098C194.989 159.554 191.354 162.889 185.843 162.889Z" fill="#C3932F"/>
</mask>
<g mask="url(#mask14_179_4)">
<path d="M185.843 162.889C171.538 162.889 156.343 154.388 153.539 153.587C145.527 150.587 150.719 154.254 152.551 155.087C157.051 157.087 170.038 164.587 186.109 165.087C192.438 165.087 197.209 160.692 197.95 154.098C198.507 149.129 196.569 146.455 194.249 145.307C189.809 143.109 186.109 144.208 183.888 146.039C183.391 146.45 183.148 147.505 183.888 148.237C184.629 148.97 185.601 148.352 186.109 148.237C188.595 147.674 190.419 147.974 192.029 148.97C193.639 149.966 194.989 151.9 194.989 154.098C194.989 159.554 191.354 162.889 185.843 162.889Z" fill="#C3932F"/>
<path d="M186.539 164C173.361 164 159.708 157.216 157.125 156.492C149.744 153.778 154.527 157.095 156.215 157.849C160.361 159.659 172.325 166.444 187.131 166.897C192.961 166.897 199.857 160.466 200.539 154.5C201.056 149.974 200.676 145.039 198.539 144C194.448 142.011 192.584 139.343 190.539 141C190.081 141.371 189.357 142.837 190.039 143.5C194.839 144.3 196.539 150.779 196.539 154C196.539 158.937 192.585 164 186.539 164Z" fill="#A97F27"/>
</g>
<mask id="mask15_179_4" style="mask-type:alpha" maskUnits="userSpaceOnUse" x="75" y="149" width="128" height="26">
<path d="M77.5391 168.587C78.5391 162.587 87.3391 150.787 114.539 151.587C148.539 152.587 173.539 172.587 200.039 172.087" stroke="#C3932F" stroke-width="4" stroke-linecap="round"/>
</mask>
<g mask="url(#mask15_179_4)">
<path d="M77.5391 168.587C78.5391 162.587 87.3391 150.787 114.539 151.587C148.539 152.587 173.539 172.587 200.039 172.087" stroke="#C3932F" stroke-width="4" stroke-linecap="round"/>
<path d="M79.5391 172.5C79.5391 163.5 88.3391 153.232 115.539 154.032C149.539 155.032 179.539 179 204.539 173.5" stroke="#A97F27" stroke-width="4" stroke-linecap="round"/>
</g>
<mask id="mask16_179_4" style="mask-type:alpha" maskUnits="userSpaceOnUse" x="82" y="155" width="98" height="47">
<path d="M176.202 198.311C178.223 196.133 179.539 192.943 179.539 188.588C179.539 183.644 176.839 179.106 172.503 175.1C168.166 171.092 162.141 167.569 155.362 164.642C141.805 158.788 125.115 155.273 112.546 155.088C98.9078 154.887 91.4018 157.138 87.2967 160.094C83.1508 163.08 82.5389 166.734 82.5391 169.088C82.5391 171.926 83.3138 174.172 84.5911 175.719C85.8721 177.269 87.6377 178.088 89.5391 178.088C90.6132 178.088 91.716 177.821 92.5664 177.254C93.4317 176.677 94.0391 175.782 94.0391 174.588C94.0391 173.425 93.6886 172.555 93.0391 172.087C92.415 171.638 92.0357 171.587 91.5391 171.587C91.2629 171.587 90.5391 171.587 90.0391 172.087C89.5391 172.587 89.5391 173.587 90.0391 174.087C90.5391 174.587 88.9082 174.956 88.0391 174.087C87.5391 173.587 86.0394 172.087 86.0391 168.587C86.0389 166.441 86.2349 163.827 90.0391 161.087C93.8841 158.318 98.9777 156.388 112.539 156.587C124.97 156.77 141.539 160.587 154.539 167.587C161.039 171.087 164.539 174.587 168.539 178.587C172.539 182.587 173.733 185.885 174.039 188.587C174.345 191.29 174.439 194.988 173.039 197.087C171.947 198.726 170.039 200.087 168.039 200.087C165.539 200.087 164.039 199.087 163.186 198.311C162.333 197.534 161.539 195.587 162.539 195.087C163.539 194.587 163.539 195.587 164.539 196.087C165.539 196.587 166.539 196.587 167.539 196.087C168.539 195.587 169.039 194.587 169.039 194.087C169.039 193.587 169.194 192.274 168.466 191.29C167.724 190.288 166.338 189.587 164.039 189.587C162.195 189.587 160.687 190.115 159.635 191.097C158.58 192.082 158.039 193.473 158.039 195.088C158.039 197.441 159.464 199.302 161.491 200.481C163.515 201.657 166.187 202.189 168.844 201.897C171.506 201.605 174.186 200.483 176.202 198.311Z" fill="#C3932F"/>
</mask>
<g mask="url(#mask16_179_4)">
<path d="M176.202 198.311C178.223 196.133 179.539 192.943 179.539 188.588C179.539 183.644 176.839 179.106 172.503 175.1C168.166 171.092 162.141 167.569 155.362 164.642C141.805 158.788 125.115 155.273 112.546 155.088C98.9078 154.887 91.4018 157.138 87.2967 160.094C83.1508 163.08 82.5389 166.734 82.5391 169.088C82.5391 171.926 83.3138 174.172 84.5911 175.719C85.8721 177.269 87.6377 178.088 89.5391 178.088C90.6132 178.088 91.716 177.821 92.5664 177.254C93.4317 176.677 94.0391 175.782 94.0391 174.588C94.0391 173.425 93.6886 172.555 93.0391 172.087C92.415 171.638 92.0357 171.587 91.5391 171.587C91.2629 171.587 90.5391 171.587 90.0391 172.087C89.5391 172.587 89.5391 173.587 90.0391 174.087C90.5391 174.587 88.9082 174.956 88.0391 174.087C87.5391 173.587 86.0394 172.087 86.0391 168.587C86.0389 166.441 86.2349 163.827 90.0391 161.087C93.8841 158.318 98.9777 156.388 112.539 156.587C124.97 156.77 141.539 160.587 154.539 167.587C161.039 171.087 164.539 174.587 168.539 178.587C172.539 182.587 173.733 185.885 174.039 188.587C174.345 191.29 174.439 194.988 173.039 197.087C171.947 198.726 170.039 200.087 168.039 200.087C165.539 200.087 164.039 199.087 163.186 198.311C162.333 197.534 161.539 195.587 162.539 195.087C163.539 194.587 163.539 195.587 164.539 196.087C165.539 196.587 166.539 196.587 167.539 196.087C168.539 195.587 169.039 194.587 169.039 194.087C169.039 193.587 169.194 192.274 168.466 191.29C167.724 190.288 166.338 189.587 164.039 189.587C162.195 189.587 160.687 190.115 159.635 191.097C158.58 192.082 158.039 193.473 158.039 195.088C158.039 197.441 159.464 199.302 161.491 200.481C163.515 201.657 166.187 202.189 168.844 201.897C171.506 201.605 174.186 200.483 176.202 198.311Z" fill="#C3932F"/>
<path d="M170.039 171.5C174.374 175.506 179.54 181.924 179.539 188.5C179.538 192.976 177.039 199 171.039 201C168.437 201.867 164.539 202.5 160.039 200.5M119.539 158C105.539 156 95.7886 157 89.5397 161.5C85.3937 164.486 85.5397 168.5 86.0397 170.5C86.646 172.925 88.5391 175.975 90.0391 174.475M163.539 197C162.039 192.5 164.003 197.012 167.039 196C170.039 195 169.539 191.5 169.039 190.5M92.5397 171C94.5397 172.5 95.0391 179 87.5391 179" stroke="#A97F27" stroke-width="2" stroke-linecap="round"/>
</g>
<mask id="mask17_179_4" style="mask-type:alpha" maskUnits="userSpaceOnUse" x="81" y="166" width="18" height="15">
<path fill-rule="evenodd" clip-rule="evenodd" d="M90.3593 179.087C84.6498 179.087 82.6394 175.807 82.0135 173.929C81.9262 173.667 81.6431 173.526 81.3811 173.613C81.1191 173.7 80.9775 173.983 81.0649 174.245C81.7723 176.368 84.2487 180.587 90.5392 180.587C94.8153 180.587 98.0391 177.587 98.5391 173.087C98.9184 169.673 97.6066 167.871 96.0391 167.087C93.0391 165.587 90.5391 166.337 89.0391 167.587C88.7029 167.867 88.5391 168.587 89.0391 169.087C89.5391 169.587 90.1958 169.166 90.5391 169.087C92.2188 168.703 93.4512 168.907 94.5391 169.587C95.6269 170.267 96.5391 171.587 96.5391 173.087C96.5391 176.811 94.0831 179.087 90.3593 179.087Z" fill="#C3932F"/>
</mask>
<g mask="url(#mask17_179_4)">
<path fill-rule="evenodd" clip-rule="evenodd" d="M90.3593 179.087C84.6498 179.087 82.6394 175.807 82.0135 173.929C81.9262 173.667 81.6431 173.526 81.3811 173.613C81.1191 173.7 80.9775 173.983 81.0649 174.245C81.7723 176.368 84.2487 180.587 90.5392 180.587C94.8153 180.587 98.0391 177.587 98.5391 173.087C98.9184 169.673 97.6066 167.871 96.0391 167.087C93.0391 165.587 90.5391 166.337 89.0391 167.587C88.7029 167.867 88.5391 168.587 89.0391 169.087C89.5391 169.587 90.1958 169.166 90.5391 169.087C92.2188 168.703 93.4512 168.907 94.5391 169.587C95.6269 170.267 96.5391 171.587 96.5391 173.087C96.5391 176.811 94.0831 179.087 90.3593 179.087Z" fill="#C3932F"/>
<path d="M94.5391 166C98.0391 166.5 101.256 173.914 95.0391 179C93.0391 180.636 91.0391 181 89.0391 181" stroke="#A97F27" stroke-linecap="round"/>
</g>
<mask id="mask18_179_4" style="mask-type:alpha" maskUnits="userSpaceOnUse" x="84" y="181" width="5" height="4">
<path d="M88.1796 183.076C88.4551 182.566 89.0396 181.589 88.5396 181.589C88.1796 181.589 88.0396 183.089 86.5396 183.089C86.0396 183.089 85.8039 182.56 86.0396 182.089C86.2754 181.617 85.6973 181.089 85.0396 181.089C84.382 181.089 84.0396 181.59 84.0396 182.089C84.0396 182.338 84.0024 183.053 84.5396 183.589C85.4918 184.539 87.3983 184.523 88.1796 183.076Z" fill="#C3932F"/>
</mask>
<g mask="url(#mask18_179_4)">
<path d="M88.1796 183.076C88.4551 182.566 89.0396 181.589 88.5396 181.589C88.1796 181.589 88.0396 183.089 86.5396 183.089C86.0396 183.089 85.8039 182.56 86.0396 182.089C86.2754 181.617 85.6973 181.089 85.0396 181.089C84.382 181.089 84.0396 181.59 84.0396 182.089C84.0396 182.338 84.0024 183.053 84.5396 183.589C85.4918 184.539 87.3983 184.523 88.1796 183.076Z" fill="#C3932F"/>
<path d="M83.0391 183.5C84.0391 184 85.0391 185 86.5391 184.5C88.0391 184 88.5391 183.5 89.0391 182M87.0391 181.5C87.2057 181.833 86.4391 182.1 86.0391 182.5" stroke="#A97F27" stroke-linecap="round"/>
</g>
</svg>
