<svg width="1585" height="861" viewBox="0 0 1585 861" fill="none" xmlns="http://www.w3.org/2000/svg">
<path fill-rule="evenodd" clip-rule="evenodd" d="M1580.5 425.024C1577 425.524 1567.96 428.454 1567.96 428.454L1567.94 428.46C1557.85 431.508 1551.09 441.167 1550.56 451.353C1550.04 461.396 1555.58 469.133 1570.48 474.179L1571.5 474.524L1578 564.274L1568.5 654.024V479.587C1553.15 473.986 1546.98 462.408 1547.57 451.196C1548.16 439.889 1555.64 429.053 1567.05 425.595C1567.05 425.595 1575.41 423.178 1579.03 421.601C1582.65 420.024 1584 424.524 1580.5 425.024Z" fill="#C3932F"/>
<path fill-rule="evenodd" clip-rule="evenodd" d="M1553.01 422.823C1553.13 422.002 1553.88 421.427 1554.7 421.538C1559.75 422.223 1567.27 424.196 1573.42 427.943C1579.57 431.69 1584.66 437.433 1584 445.646C1583.59 450.675 1581.38 454.225 1578.38 456.324C1575.42 458.396 1571.79 458.979 1568.62 458.304C1565.46 457.629 1562.59 455.644 1561.47 452.417C1560.34 449.181 1561.11 445.141 1564.27 440.659C1565.31 439.194 1568 437.524 1569.5 439.024C1571 440.524 1570.36 443.226 1568.62 444.524C1567.12 445.646 1564.5 448.524 1565 451.024C1565.42 453.109 1566.85 454.857 1569.25 455.37C1571.65 455.882 1574.42 455.434 1576.66 453.866C1578.87 452.324 1580.66 449.623 1581.01 445.403C1581.54 438.815 1577.55 433.975 1571.86 430.505C1566.16 427.036 1559.08 425.159 1554.3 424.511C1553.48 424.399 1552.9 423.644 1553.01 422.823Z" fill="#C3932F"/>
<path fill-rule="evenodd" clip-rule="evenodd" d="M1580.5 420.257C1577 419.757 1567.96 416.828 1567.96 416.828L1567.94 416.821C1557.85 413.773 1551.09 404.115 1550.56 393.929C1550.04 383.886 1555.58 376.149 1570.48 371.102L1571.5 370.757L1578 281.007L1568.5 191.257V365.695C1553.15 371.296 1546.98 382.873 1547.57 394.086C1548.16 405.393 1555.64 416.228 1567.05 419.687C1567.05 419.687 1575.41 422.103 1579.03 423.68C1582.65 425.257 1584 420.757 1580.5 420.257Z" fill="#C3932F"/>
<path fill-rule="evenodd" clip-rule="evenodd" d="M1553.01 422.459C1553.13 423.28 1553.88 423.855 1554.7 423.744C1559.75 423.059 1567.27 421.086 1573.42 417.338C1579.57 413.591 1584.66 407.848 1584 399.636C1583.59 394.606 1581.38 391.057 1578.38 388.958C1575.42 386.886 1571.79 386.302 1568.62 386.978C1565.46 387.653 1562.59 389.637 1561.47 392.864C1560.34 396.101 1561.11 400.141 1564.27 404.622C1565.31 406.087 1568 407.757 1569.5 406.257C1571 404.757 1570.36 402.056 1568.62 400.757C1567.12 399.636 1564.5 396.757 1565 394.257C1565.42 392.172 1566.85 390.424 1569.25 389.912C1571.65 389.4 1574.42 389.848 1576.66 391.416C1578.87 392.958 1580.66 395.658 1581.01 399.878C1581.54 406.466 1577.55 411.307 1571.86 414.776C1566.16 418.246 1559.08 420.123 1554.3 420.771C1553.48 420.882 1552.9 421.638 1553.01 422.459Z" fill="#C3932F"/>
<path fill-rule="evenodd" clip-rule="evenodd" d="M3.55371 425.024C7.05371 425.524 16.0969 428.454 16.0969 428.454L16.1171 428.46C26.2012 431.508 32.9596 441.167 33.4925 451.353C34.0178 461.396 28.4694 469.133 13.57 474.179L12.5512 474.524L6.05371 564.274L15.5512 654.024V479.587C30.9072 473.986 37.0749 462.408 36.4884 451.196C35.8968 439.889 28.413 429.053 17.0057 425.595C17.0057 425.595 8.64686 423.178 5.0264 421.601C1.40595 420.024 0.0537109 424.524 3.55371 425.024Z" fill="#C3932F"/>
<path fill-rule="evenodd" clip-rule="evenodd" d="M31.0399 422.823C30.9286 422.002 30.1729 421.427 29.352 421.538C24.2996 422.223 16.7844 424.196 10.6354 427.943C4.48721 431.69 -0.607414 437.433 0.0584393 445.646C0.466263 450.675 2.67027 454.225 5.67015 456.324C8.63198 458.396 12.2643 458.979 15.4292 458.304C18.5905 457.629 21.4598 455.644 22.5868 452.417C23.7172 449.181 22.9422 445.141 19.779 440.659C18.745 439.194 16.0537 437.524 14.5537 439.024C13.0537 440.524 13.6918 443.226 15.4292 444.524C16.9292 445.646 19.5537 448.524 19.0537 451.024C18.6367 453.109 17.2041 454.857 14.8029 455.37C12.4052 455.882 9.63133 455.434 7.39004 453.866C5.1868 452.324 3.3908 449.623 3.04863 445.403C2.51448 438.815 6.50319 433.975 12.1966 430.505C17.8893 427.036 24.9741 425.159 29.7551 424.511C30.576 424.399 31.1512 423.644 31.0399 422.823Z" fill="#C3932F"/>
<path fill-rule="evenodd" clip-rule="evenodd" d="M3.55371 420.257C7.05371 419.757 16.0969 416.828 16.0969 416.828L16.1171 416.821C26.2012 413.773 32.9596 404.115 33.4925 393.929C34.0178 383.886 28.4694 376.149 13.57 371.102L12.5512 370.757L6.05371 281.007L15.5512 191.257V365.695C30.9072 371.296 37.0749 382.873 36.4884 394.086C35.8968 405.393 28.413 416.228 17.0057 419.687C17.0057 419.687 8.64686 422.103 5.0264 423.68C1.40595 425.257 0.0537109 420.757 3.55371 420.257Z" fill="#C3932F"/>
<path fill-rule="evenodd" clip-rule="evenodd" d="M31.0399 422.459C30.9286 423.28 30.1729 423.855 29.352 423.744C24.2996 423.059 16.7844 421.086 10.6354 417.338C4.48721 413.591 -0.607414 407.848 0.0584393 399.636C0.466263 394.606 2.67027 391.057 5.67015 388.958C8.63198 386.886 12.2643 386.302 15.4292 386.978C18.5905 387.653 21.4598 389.637 22.5868 392.864C23.7172 396.101 22.9422 400.141 19.779 404.622C18.745 406.087 16.0537 407.757 14.5537 406.257C13.0537 404.757 13.6918 402.056 15.4292 400.757C16.9292 399.636 19.5537 396.757 19.0537 394.257C18.6367 392.172 17.2041 390.424 14.8029 389.912C12.4052 389.4 9.63133 389.848 7.39004 391.416C5.1868 392.958 3.3908 395.658 3.04863 399.878C2.51448 406.466 6.50319 411.307 12.1966 414.776C17.8893 418.246 24.9741 420.123 29.7551 420.771C30.576 420.882 31.1512 421.638 31.0399 422.459Z" fill="#C3932F"/>
<path fill-rule="evenodd" clip-rule="evenodd" d="M791.879 856.973C791.379 853.473 788.45 844.43 788.45 844.43L788.443 844.409C785.395 834.325 775.737 827.567 765.551 827.034C755.508 826.509 747.771 832.057 742.724 846.957L742.379 847.975L652.629 854.473L562.879 844.975L737.317 844.975C742.918 829.619 754.495 823.452 765.708 824.038C777.015 824.63 787.85 832.114 791.309 843.521C791.309 843.521 793.725 851.88 795.302 855.5C796.879 859.121 792.379 860.473 791.879 856.973Z" fill="#C3932F"/>
<path fill-rule="evenodd" clip-rule="evenodd" d="M794.081 829.487C794.902 829.598 795.477 830.354 795.366 831.175C794.681 836.227 792.708 843.742 788.961 849.891C785.214 856.039 779.471 861.134 771.258 860.468C766.229 860.06 762.679 857.856 760.58 854.856C758.508 851.895 757.925 848.262 758.6 845.097C759.275 841.936 761.26 839.067 764.487 837.94C767.723 836.809 771.763 837.584 776.245 840.748C777.71 841.782 779.38 844.473 777.88 845.973C776.38 847.473 773.678 846.835 772.38 845.097C771.258 843.597 768.38 840.973 765.88 841.473C763.795 841.89 762.047 843.322 761.534 845.724C761.022 848.121 761.47 850.895 763.038 853.136C764.58 855.34 767.281 857.136 771.501 857.478C778.089 858.012 782.929 854.023 786.399 848.33C789.868 842.637 791.745 835.552 792.393 830.771C792.505 829.95 793.26 829.375 794.081 829.487Z" fill="#C3932F"/>
<path fill-rule="evenodd" clip-rule="evenodd" d="M796.646 856.973C797.146 853.473 800.076 844.43 800.076 844.43L800.082 844.409C803.13 834.325 812.789 827.567 822.975 827.034C833.017 826.509 840.755 832.057 845.801 846.957L846.146 847.975L935.896 854.473L1025.65 844.975L851.209 844.975C845.608 829.619 834.03 823.452 822.818 824.038C811.51 824.63 800.675 832.114 797.217 843.521C797.217 843.521 794.8 851.88 793.223 855.5C791.646 859.121 796.146 860.473 796.646 856.973Z" fill="#C3932F"/>
<path fill-rule="evenodd" clip-rule="evenodd" d="M794.445 829.487C793.624 829.598 793.049 830.354 793.16 831.175C793.845 836.227 795.818 843.742 799.566 849.891C803.313 856.039 809.056 861.134 817.268 860.468C822.298 860.06 825.847 857.856 827.946 854.856C830.018 851.895 830.602 848.262 829.926 845.097C829.251 841.936 827.267 839.067 824.04 837.94C820.803 836.809 816.763 837.584 812.282 840.748C810.817 841.782 809.147 844.473 810.647 845.973C812.147 847.473 814.848 846.835 816.147 845.097C817.268 843.597 820.147 840.973 822.647 841.473C824.732 841.89 826.48 843.323 826.992 845.724C827.504 848.121 827.056 850.895 825.488 853.137C823.946 855.34 821.246 857.136 817.025 857.478C810.438 858.012 805.597 854.023 802.128 848.33C798.658 842.637 796.781 835.553 796.133 830.772C796.022 829.951 795.266 829.375 794.445 829.487Z" fill="#C3932F"/>
<mask id="mask0_184_46" style="mask-type:alpha" maskUnits="userSpaceOnUse" x="1519" y="36" width="50" height="22">
<path d="M1556.3 39.086C1542 39.086 1526.8 47.5875 1524 48.3882C1515.99 51.3882 1521.18 47.7215 1523.01 46.8882C1527.51 44.8882 1540.5 37.3882 1556.57 36.8882C1562.9 36.8882 1567.67 41.2839 1568.41 47.8774C1568.97 52.8795 1567.03 55.5204 1564.71 56.6688C1560.27 58.8667 1556.57 57.7678 1554.35 55.9362C1553.85 55.5257 1553.61 54.471 1554.35 53.7384C1555.09 53.0057 1556.06 53.6233 1556.57 53.7384C1559.06 54.3012 1560.88 54.002 1562.49 53.0057C1564.1 52.0095 1565.45 50.0753 1565.45 47.8774C1565.45 42.4211 1561.82 39.086 1556.3 39.086Z" fill="#C3932F"/>
</mask>
<g mask="url(#mask0_184_46)">
<path d="M1556.3 39.086C1542 39.086 1526.8 47.5875 1524 48.3882C1515.99 51.3882 1521.18 47.7215 1523.01 46.8882C1527.51 44.8882 1540.5 37.3882 1556.57 36.8882C1562.9 36.8882 1567.67 41.2839 1568.41 47.8774C1568.97 52.8795 1567.03 55.5204 1564.71 56.6688C1560.27 58.8667 1556.57 57.7678 1554.35 55.9362C1553.85 55.5257 1553.61 54.471 1554.35 53.7384C1555.09 53.0057 1556.06 53.6233 1556.57 53.7384C1559.06 54.3012 1560.88 54.002 1562.49 53.0057C1564.1 52.0095 1565.45 50.0753 1565.45 47.8774C1565.45 42.4211 1561.82 39.086 1556.3 39.086Z" fill="#C3932F"/>
<path d="M1555.76 39.9885C1542.58 39.9885 1528.58 47.6804 1526 48.4048C1518.61 51.119 1523.4 47.8016 1525.09 47.0476C1529.23 45.2381 1541.2 38.4524 1556 38C1561.83 38 1566.23 41.9771 1566.91 47.9427C1567.43 52.4683 1565.64 54.8578 1563.5 55.8968C1559.41 57.8853 1556 56.891 1553.96 55.2339C1553.5 54.8625 1553.27 53.9082 1553.96 53.2454C1554.64 52.5826 1555.53 53.1413 1556 53.2454C1558.29 53.7546 1559.97 53.4839 1561.46 52.5826C1562.94 51.6812 1564.18 49.9312 1564.18 47.9427C1564.18 43.006 1560.83 39.9885 1555.76 39.9885Z" fill="#A97F27"/>
</g>
<mask id="mask1_184_46" style="mask-type:alpha" maskUnits="userSpaceOnUse" x="1446" y="27" width="127" height="26">
<path d="M1448 33.3881C1449 39.3881 1457.8 51.1881 1485 50.3881C1519 49.3881 1544 29.3881 1570.5 29.8881" stroke="#C3932F" stroke-width="4" stroke-linecap="round"/>
</mask>
<g mask="url(#mask1_184_46)">
<path d="M1448 33.3881C1449 39.3881 1457.8 51.1881 1485 50.3881C1519 49.3881 1544 29.3881 1570.5 29.8881" stroke="#C3932F" stroke-width="4" stroke-linecap="round"/>
<path d="M1446 34.0002C1447 40.0002 1457.8 54.1883 1485 53.3883C1519 52.3883 1546 31.5 1572.5 32" stroke="#A97F27" stroke-width="4" stroke-linecap="round"/>
</g>
<mask id="mask2_184_46" style="mask-type:alpha" maskUnits="userSpaceOnUse" x="1453" y="0" width="97" height="47">
<path d="M1546.66 3.66498C1548.68 5.84204 1550 9.03267 1550 13.3878C1550 18.3317 1547.3 22.8696 1542.96 26.8752C1538.63 30.8832 1532.6 34.407 1525.82 37.334C1512.27 43.1877 1495.58 46.7029 1483.01 46.8878C1469.37 47.0883 1461.86 44.8372 1457.76 41.8811C1453.61 38.8955 1453 35.2413 1453 32.8878C1453 30.049 1453.77 27.8031 1455.05 26.2569C1456.33 24.7061 1458.1 23.8878 1460 23.8878C1461.07 23.8878 1462.18 24.1548 1463.03 24.7218C1463.89 25.2986 1464.5 26.1939 1464.5 27.3878C1464.5 28.5508 1464.15 29.4205 1463.5 29.8882C1462.88 30.3375 1462.5 30.3882 1462 30.3882C1461.72 30.3882 1461 30.3882 1460.5 29.8882C1460 29.3882 1460 28.3882 1460.5 27.8882C1461 27.3882 1459.37 27.019 1458.5 27.8882C1458 28.3882 1456.5 29.8882 1456.5 33.3882C1456.5 35.5347 1456.7 38.1488 1460.5 40.8882C1464.35 43.6571 1469.44 45.5876 1483 45.3882C1495.43 45.2054 1512 41.3882 1525 34.3882C1531.5 30.8882 1535 27.3882 1539 23.3882C1543 19.3882 1544.19 16.0908 1544.5 13.3882C1544.81 10.6856 1544.9 6.98741 1543.5 4.88818C1542.41 3.24968 1540.5 1.88818 1538.5 1.88818C1536 1.88818 1534.5 2.88818 1533.65 3.66498C1532.79 4.44178 1532 6.38818 1533 6.88818C1534 7.38818 1534 6.38818 1535 5.88818C1536 5.38818 1537 5.38818 1538 5.88818C1539 6.38818 1539.5 7.38818 1539.5 7.88818C1539.5 8.38818 1539.65 9.70188 1538.93 10.6856C1538.19 11.6876 1536.8 12.3881 1534.5 12.3881C1532.66 12.3881 1531.15 11.8601 1530.1 10.8786C1529.04 9.8939 1528.5 8.50272 1528.5 6.88781C1528.5 4.53485 1529.92 2.67313 1531.95 1.49477C1533.98 0.318168 1536.65 -0.213078 1539.3 0.078518C1541.97 0.370676 1544.65 1.49293 1546.66 3.66498Z" fill="#C3932F"/>
</mask>
<g mask="url(#mask2_184_46)">
<path d="M1546.66 3.66498C1548.68 5.84204 1550 9.03267 1550 13.3878C1550 18.3317 1547.3 22.8696 1542.96 26.8752C1538.63 30.8832 1532.6 34.407 1525.82 37.334C1512.27 43.1877 1495.58 46.7029 1483.01 46.8878C1469.37 47.0883 1461.86 44.8372 1457.76 41.8811C1453.61 38.8955 1453 35.2413 1453 32.8878C1453 30.049 1453.77 27.8031 1455.05 26.2569C1456.33 24.7061 1458.1 23.8878 1460 23.8878C1461.07 23.8878 1462.18 24.1548 1463.03 24.7218C1463.89 25.2986 1464.5 26.1939 1464.5 27.3878C1464.5 28.5508 1464.15 29.4205 1463.5 29.8882C1462.88 30.3375 1462.5 30.3882 1462 30.3882C1461.72 30.3882 1461 30.3882 1460.5 29.8882C1460 29.3882 1460 28.3882 1460.5 27.8882C1461 27.3882 1459.37 27.019 1458.5 27.8882C1458 28.3882 1456.5 29.8882 1456.5 33.3882C1456.5 35.5347 1456.7 38.1488 1460.5 40.8882C1464.35 43.6571 1469.44 45.5876 1483 45.3882C1495.43 45.2054 1512 41.3882 1525 34.3882C1531.5 30.8882 1535 27.3882 1539 23.3882C1543 19.3882 1544.19 16.0908 1544.5 13.3882C1544.81 10.6856 1544.9 6.98741 1543.5 4.88818C1542.41 3.24968 1540.5 1.88818 1538.5 1.88818C1536 1.88818 1534.5 2.88818 1533.65 3.66498C1532.79 4.44178 1532 6.38818 1533 6.88818C1534 7.38818 1534 6.38818 1535 5.88818C1536 5.38818 1537 5.38818 1538 5.88818C1539 6.38818 1539.5 7.38818 1539.5 7.88818C1539.5 8.38818 1539.65 9.70188 1538.93 10.6856C1538.19 11.6876 1536.8 12.3881 1534.5 12.3881C1532.66 12.3881 1531.15 11.8601 1530.1 10.8786C1529.04 9.8939 1528.5 8.50272 1528.5 6.88781C1528.5 4.53485 1529.92 2.67313 1531.95 1.49477C1533.98 0.318168 1536.65 -0.213078 1539.3 0.078518C1541.97 0.370676 1544.65 1.49293 1546.66 3.66498Z" fill="#C3932F"/>
<path d="M1548.5 3.5C1550.52 5.67706 1551.62 9.5 1550.5 14C1549 20 1546.84 22.4943 1542.5 26.5C1538.16 30.5079 1532.6 34.407 1525.82 37.334C1512.27 43.1877 1495.57 46.8152 1483 47C1469.36 47.2006 1461.86 44.8372 1457.76 41.8811C1453.61 38.8955 1452 35.3535 1452 33M1543.5 7.5C1543.67 5.83333 1542.8 2 1538 2C1534 2 1532.67 4.5 1533 5.5M1527.5 8C1528.5 9.33333 1531.3 12 1534.5 12C1538.5 12 1540.5 9.5 1540.5 9" stroke="#A97F27" stroke-width="2" stroke-linecap="round"/>
<path d="M1457.5 31.5C1457 28.9996 1459 26.0002 1460.5 27.5M1459.5 29.5C1460 30.5 1462.5 31.1 1464.5 29.5" stroke="#A97F27" stroke-linecap="round"/>
</g>
<mask id="mask3_184_46" style="mask-type:alpha" maskUnits="userSpaceOnUse" x="1451" y="21" width="19" height="15">
<path fill-rule="evenodd" clip-rule="evenodd" d="M1460.82 22.8882C1455.11 22.8882 1453.1 26.1686 1452.47 28.0463C1452.39 28.3083 1452.1 28.4498 1451.84 28.3625C1451.58 28.2752 1451.44 27.992 1451.53 27.7301C1452.23 25.6078 1454.71 21.3882 1461 21.3882C1465.28 21.3882 1468.5 24.3882 1469 28.8882C1469.38 32.302 1468.07 34.1044 1466.5 34.8882C1463.5 36.3882 1461 35.6382 1459.5 34.3882C1459.16 34.108 1459 33.3882 1459.5 32.8882C1460 32.3882 1460.66 32.8097 1461 32.8882C1462.68 33.2723 1463.91 33.0681 1465 32.3882C1466.09 31.7083 1467 30.3882 1467 28.8882C1467 25.1643 1464.54 22.8882 1460.82 22.8882Z" fill="#C3932F"/>
</mask>
<g mask="url(#mask3_184_46)">
<path fill-rule="evenodd" clip-rule="evenodd" d="M1460.82 22.8882C1455.11 22.8882 1453.1 26.1686 1452.47 28.0463C1452.39 28.3083 1452.1 28.4498 1451.84 28.3625C1451.58 28.2752 1451.44 27.992 1451.53 27.7301C1452.23 25.6078 1454.71 21.3882 1461 21.3882C1465.28 21.3882 1468.5 24.3882 1469 28.8882C1469.38 32.302 1468.07 34.1044 1466.5 34.8882C1463.5 36.3882 1461 35.6382 1459.5 34.3882C1459.16 34.108 1459 33.3882 1459.5 32.8882C1460 32.3882 1460.66 32.8097 1461 32.8882C1462.68 33.2723 1463.91 33.0681 1465 32.3882C1466.09 31.7083 1467 30.3882 1467 28.8882C1467 25.1643 1464.54 22.8882 1460.82 22.8882Z" fill="#C3932F"/>
<path d="M1469.5 33C1467.17 34.5 1461.7 36.8 1458.5 34M1466.5 29.5C1466.5 26 1465.5 23 1461 23C1456 23 1453 25 1452.5 29" stroke="#A97F27" stroke-linecap="round"/>
</g>
<mask id="mask4_184_46" style="mask-type:alpha" maskUnits="userSpaceOnUse" x="1454" y="17" width="6" height="4">
<path d="M1458.64 18.8992C1458.92 19.4093 1459.5 20.3868 1459 20.3868C1458.64 20.3868 1458.5 18.8868 1457 18.8868C1456.5 18.8868 1456.26 19.4152 1456.5 19.8868C1456.74 20.3583 1456.16 20.8868 1455.5 20.8868C1454.84 20.8868 1454.5 20.3854 1454.5 19.8868C1454.5 19.6373 1454.46 18.9226 1455 18.3868C1455.95 17.4361 1457.86 17.4523 1458.64 18.8992Z" fill="#C3932F"/>
</mask>
<g mask="url(#mask4_184_46)">
<path d="M1458.64 18.8992C1458.92 19.4093 1459.5 20.3868 1459 20.3868C1458.64 20.3868 1458.5 18.8868 1457 18.8868C1456.5 18.8868 1456.26 19.4152 1456.5 19.8868C1456.74 20.3583 1456.16 20.8868 1455.5 20.8868C1454.84 20.8868 1454.5 20.3854 1454.5 19.8868C1454.5 19.6373 1454.46 18.9226 1455 18.3868C1455.95 17.4361 1457.86 17.4523 1458.64 18.8992Z" fill="#C3932F"/>
<path d="M1454 20.5001C1454.5 21.5001 1456 21.4999 1456.5 20.4999C1457 19.5 1456.5 17.4999 1458 20" stroke="#A97F27" stroke-linecap="round"/>
</g>
<mask id="mask5_184_46" style="mask-type:alpha" maskUnits="userSpaceOnUse" x="15" y="42" width="50" height="22">
<path d="M28.1967 45.086C42.501 45.086 57.6966 53.5875 60.5 54.3882C68.5127 57.3882 63.3201 53.7215 61.4882 52.8882C56.9882 50.8882 44.001 43.3882 27.9304 42.8882C21.6012 42.8882 16.8298 47.2839 16.0897 53.8774C15.5283 58.8795 17.4699 61.5204 19.79 62.6688C24.2303 64.8667 27.9306 63.7678 30.1507 61.9362C30.6484 61.5257 30.8908 60.471 30.1507 59.7384C29.4107 59.0057 28.4387 59.6233 27.9306 59.7384C25.4443 60.3012 23.6203 60.002 22.0102 59.0057C20.4 58.0095 19.0499 56.0753 19.0499 53.8774C19.0499 48.4211 22.6849 45.086 28.1967 45.086Z" fill="#C3932F"/>
</mask>
<g mask="url(#mask5_184_46)">
<path d="M28.1967 45.086C42.501 45.086 57.6966 53.5875 60.5 54.3882C68.5127 57.3882 63.3201 53.7215 61.4882 52.8882C56.9882 50.8882 44.001 43.3882 27.9304 42.8882C21.6012 42.8882 16.8298 47.2839 16.0897 53.8774C15.5283 58.8795 17.4699 61.5204 19.79 62.6688C24.2303 64.8667 27.9306 63.7678 30.1507 61.9362C30.6484 61.5257 30.8908 60.471 30.1507 59.7384C29.4107 59.0057 28.4387 59.6233 27.9306 59.7384C25.4443 60.3012 23.6203 60.002 22.0102 59.0057C20.4 58.0095 19.0499 56.0753 19.0499 53.8774C19.0499 48.4211 22.6849 45.086 28.1967 45.086Z" fill="#C3932F"/>
<path d="M28.7437 45.9885C41.9218 45.9885 55.921 53.6804 58.5037 54.4048C65.8855 57.119 61.1017 53.8016 59.4141 53.0476C55.2684 51.2381 43.3037 44.4524 28.4984 44C22.6675 44 18.2718 47.9771 17.59 53.9427C17.0728 58.4683 18.8615 60.8578 20.9989 61.8968C25.0897 63.8853 28.4986 62.891 30.5439 61.2339C31.0024 60.8625 31.2257 59.9082 30.5439 59.2454C29.8621 58.5826 28.9666 59.1413 28.4986 59.2454C26.2081 59.7546 24.5277 59.4839 23.0443 58.5826C21.5609 57.6812 20.3171 55.9312 20.3171 53.9427C20.3171 49.006 23.6659 45.9885 28.7437 45.9885Z" fill="#A97F27"/>
</g>
<mask id="mask6_184_46" style="mask-type:alpha" maskUnits="userSpaceOnUse" x="12" y="33" width="127" height="26">
<path d="M136.5 39.3881C135.5 45.3881 126.7 57.1881 99.5 56.3881C65.5 55.3881 40.5 35.3881 14 35.8881" stroke="#C3932F" stroke-width="4" stroke-linecap="round"/>
</mask>
<g mask="url(#mask6_184_46)">
<path d="M136.5 39.3881C135.5 45.3881 126.7 57.1881 99.5 56.3881C65.5 55.3881 40.5 35.3881 14 35.8881" stroke="#C3932F" stroke-width="4" stroke-linecap="round"/>
<path d="M138.5 40.0002C137.5 46.0002 126.7 60.1883 99.5 59.3883C65.5 58.3883 38.5 37.5 12 38" stroke="#A97F27" stroke-width="4" stroke-linecap="round"/>
</g>
<mask id="mask7_184_46" style="mask-type:alpha" maskUnits="userSpaceOnUse" x="34" y="6" width="98" height="47">
<path d="M37.8367 9.66498C35.8157 11.842 34.5 15.0327 34.5 19.3878C34.5 24.3317 37.2003 28.8696 41.5357 32.8752C45.8735 36.8832 51.8979 40.407 58.6768 43.334C72.2339 49.1877 88.9236 52.7029 101.493 52.8878C115.131 53.0883 122.637 50.8372 126.742 47.8811C130.888 44.8955 131.5 41.2413 131.5 38.8878C131.5 36.049 130.725 33.8031 129.448 32.2569C128.167 30.7061 126.401 29.8878 124.5 29.8878C123.426 29.8878 122.323 30.1548 121.473 30.7218C120.607 31.2986 120 32.1939 120 33.3878C120 34.5508 120.35 35.4205 121 35.8882C121.624 36.3375 122.003 36.3882 122.5 36.3882C122.776 36.3882 123.5 36.3882 124 35.8882C124.5 35.3882 124.5 34.3882 124 33.8882C123.5 33.3882 125.131 33.019 126 33.8882C126.5 34.3882 128 35.8882 128 39.3882C128 41.5347 127.804 44.1488 124 46.8882C120.155 49.6571 115.061 51.5876 101.5 51.3882C89.0691 51.2054 72.5 47.3882 59.5 40.3882C53 36.8882 49.5 33.3882 45.5 29.3882C41.5 25.3882 40.3064 22.0908 40 19.3882C39.6936 16.6856 39.6005 12.9874 41 10.8882C42.0923 9.24968 44 7.88818 46 7.88818C48.5 7.88818 50 8.88818 50.8531 9.66498C51.7062 10.4418 52.5 12.3882 51.5 12.8882C50.5 13.3882 50.5 12.3882 49.5 11.8882C48.5 11.3882 47.5 11.3882 46.5 11.8882C45.5 12.3882 45 13.3882 45 13.8882C45 14.3882 44.8451 15.7019 45.5731 16.6856C46.3146 17.6876 47.701 18.3881 50 18.3881C51.8438 18.3881 53.3521 17.8601 54.4037 16.8786C55.4587 15.8939 56 14.5027 56 12.8878C56 10.5349 54.5753 8.67313 52.5481 7.49477C50.524 6.31817 47.8522 5.78692 45.1954 6.07852C42.5335 6.37068 39.853 7.49293 37.8367 9.66498Z" fill="#C3932F"/>
</mask>
<g mask="url(#mask7_184_46)">
<path d="M37.8367 9.66498C35.8157 11.842 34.5 15.0327 34.5 19.3878C34.5 24.3317 37.2003 28.8696 41.5357 32.8752C45.8735 36.8832 51.8979 40.407 58.6768 43.334C72.2339 49.1877 88.9236 52.7029 101.493 52.8878C115.131 53.0883 122.637 50.8372 126.742 47.8811C130.888 44.8955 131.5 41.2413 131.5 38.8878C131.5 36.049 130.725 33.8031 129.448 32.2569C128.167 30.7061 126.401 29.8878 124.5 29.8878C123.426 29.8878 122.323 30.1548 121.473 30.7218C120.607 31.2986 120 32.1939 120 33.3878C120 34.5508 120.35 35.4205 121 35.8882C121.624 36.3375 122.003 36.3882 122.5 36.3882C122.776 36.3882 123.5 36.3882 124 35.8882C124.5 35.3882 124.5 34.3882 124 33.8882C123.5 33.3882 125.131 33.019 126 33.8882C126.5 34.3882 128 35.8882 128 39.3882C128 41.5347 127.804 44.1488 124 46.8882C120.155 49.6571 115.061 51.5876 101.5 51.3882C89.0691 51.2054 72.5 47.3882 59.5 40.3882C53 36.8882 49.5 33.3882 45.5 29.3882C41.5 25.3882 40.3064 22.0908 40 19.3882C39.6936 16.6856 39.6005 12.9874 41 10.8882C42.0923 9.24968 44 7.88818 46 7.88818C48.5 7.88818 50 8.88818 50.8531 9.66498C51.7062 10.4418 52.5 12.3882 51.5 12.8882C50.5 13.3882 50.5 12.3882 49.5 11.8882C48.5 11.3882 47.5 11.3882 46.5 11.8882C45.5 12.3882 45 13.3882 45 13.8882C45 14.3882 44.8451 15.7019 45.5731 16.6856C46.3146 17.6876 47.701 18.3881 50 18.3881C51.8438 18.3881 53.3521 17.8601 54.4037 16.8786C55.4587 15.8939 56 14.5027 56 12.8878C56 10.5349 54.5753 8.67313 52.5481 7.49477C50.524 6.31817 47.8522 5.78692 45.1954 6.07852C42.5335 6.37068 39.853 7.49293 37.8367 9.66498Z" fill="#C3932F"/>
<path d="M36 9.5C33.979 11.6771 32.875 15.5 34 20C35.5 26 37.6646 28.4943 42 32.5C46.3378 36.5079 51.8979 40.407 58.6768 43.334C72.2339 49.1877 88.9309 52.8152 101.5 53C115.139 53.2006 122.637 50.8372 126.742 47.8811C130.888 44.8955 132.5 41.3535 132.5 39M41 13.5C40.8333 11.8333 41.7 8 46.5 8C50.5 8 51.8333 10.5 51.5 11.5M57 14C56 15.3333 53.2 18 50 18C46 18 44 15.5 44 15" stroke="#A97F27" stroke-width="2" stroke-linecap="round"/>
<path d="M127 37.5C127.5 34.9996 125.5 32.0002 124 33.5M125 35.5C124.5 36.5 122 37.1 120 35.5" stroke="#A97F27" stroke-linecap="round"/>
</g>
<mask id="mask8_184_46" style="mask-type:alpha" maskUnits="userSpaceOnUse" x="115" y="27" width="18" height="15">
<path fill-rule="evenodd" clip-rule="evenodd" d="M123.68 28.8882C129.389 28.8882 131.4 32.1686 132.026 34.0463C132.113 34.3083 132.396 34.4498 132.658 34.3625C132.92 34.2752 133.062 33.992 132.974 33.7301C132.267 31.6078 129.79 27.3882 123.5 27.3882C119.224 27.3882 116 30.3882 115.5 34.8882C115.121 38.302 116.432 40.1044 118 40.8882C121 42.3882 123.5 41.6382 125 40.3882C125.336 40.108 125.5 39.3882 125 38.8882C124.5 38.3882 123.843 38.8097 123.5 38.8882C121.82 39.2723 120.588 39.0681 119.5 38.3882C118.412 37.7083 117.5 36.3882 117.5 34.8882C117.5 31.1643 119.956 28.8882 123.68 28.8882Z" fill="#C3932F"/>
</mask>
<g mask="url(#mask8_184_46)">
<path fill-rule="evenodd" clip-rule="evenodd" d="M123.68 28.8882C129.389 28.8882 131.4 32.1686 132.026 34.0463C132.113 34.3083 132.396 34.4498 132.658 34.3625C132.92 34.2752 133.062 33.992 132.974 33.7301C132.267 31.6078 129.79 27.3882 123.5 27.3882C119.224 27.3882 116 30.3882 115.5 34.8882C115.121 38.302 116.432 40.1044 118 40.8882C121 42.3882 123.5 41.6382 125 40.3882C125.336 40.108 125.5 39.3882 125 38.8882C124.5 38.3882 123.843 38.8097 123.5 38.8882C121.82 39.2723 120.588 39.0681 119.5 38.3882C118.412 37.7083 117.5 36.3882 117.5 34.8882C117.5 31.1643 119.956 28.8882 123.68 28.8882Z" fill="#C3932F"/>
<path d="M115 39C117.333 40.5 122.8 42.8 126 40M118 35.5C118 32 119 29 123.5 29C128.5 29 131.5 31 132 35" stroke="#A97F27" stroke-linecap="round"/>
</g>
<mask id="mask9_184_46" style="mask-type:alpha" maskUnits="userSpaceOnUse" x="125" y="23" width="5" height="4">
<path d="M125.859 24.8992C125.584 25.4093 124.999 26.3868 125.499 26.3868C125.859 26.3868 125.999 24.8868 127.499 24.8868C127.999 24.8868 128.235 25.4152 127.999 25.8868C127.764 26.3583 128.342 26.8868 128.999 26.8868C129.657 26.8868 129.999 26.3854 129.999 25.8868C129.999 25.6373 130.037 24.9226 129.499 24.3868C128.547 23.4361 126.641 23.4523 125.859 24.8992Z" fill="#C3932F"/>
</mask>
<g mask="url(#mask9_184_46)">
<path d="M125.859 24.8992C125.584 25.4093 124.999 26.3868 125.499 26.3868C125.859 26.3868 125.999 24.8868 127.499 24.8868C127.999 24.8868 128.235 25.4152 127.999 25.8868C127.764 26.3583 128.342 26.8868 128.999 26.8868C129.657 26.8868 129.999 26.3854 129.999 25.8868C129.999 25.6373 130.037 24.9226 129.499 24.3868C128.547 23.4361 126.641 23.4523 125.859 24.8992Z" fill="#C3932F"/>
<path d="M130.5 26.5001C130 27.5001 128.5 27.4999 128 26.4999C127.5 25.5 128 23.4999 126.5 26" stroke="#A97F27" stroke-linecap="round"/>
</g>
</svg>
