<svg width="203" height="203" viewBox="0 0 203 203" fill="none" xmlns="http://www.w3.org/2000/svg">
<mask id="mask0_171_24" style="mask-type:alpha" maskUnits="userSpaceOnUse" x="181" y="122" width="22" height="50">
<path d="M183.237 159.54C183.237 145.236 191.738 130.04 192.539 127.237C195.539 119.224 191.872 124.417 191.039 126.249C189.039 130.749 181.539 143.736 181.039 159.807C181.039 166.136 185.435 170.907 192.028 171.647C197 172.205 199.671 170.267 200.82 167.947C203.018 163.507 201.919 159.806 200.087 157.586C199.677 157.089 198.622 156.846 197.889 157.586C197.157 158.326 197.774 159.298 197.889 159.806C198.452 162.293 198.153 164.117 197.157 165.727C196.16 167.337 194.226 168.687 192.028 168.687C186.572 168.687 183.237 165.052 183.237 159.54Z" fill="#C3932F"/>
</mask>
<g mask="url(#mask0_171_24)">
<path d="M183.237 159.54C183.237 145.236 191.738 130.04 192.539 127.237C195.539 119.224 191.872 124.417 191.039 126.249C189.039 130.749 181.539 143.736 181.039 159.807C181.039 166.136 185.435 170.907 192.028 171.647C197 172.205 199.671 170.267 200.82 167.947C203.018 163.507 201.919 159.806 200.087 157.586C199.677 157.089 198.622 156.846 197.889 157.586C197.157 158.326 197.774 159.298 197.889 159.806C198.452 162.293 198.153 164.117 197.157 165.727C196.16 167.337 194.226 168.687 192.028 168.687C186.572 168.687 183.237 165.052 183.237 159.54Z" fill="#C3932F"/>
<path d="M184.14 157.993C184.14 144.815 191.832 130.816 192.556 128.233C195.27 120.851 191.953 125.635 191.199 127.323C189.389 131.469 182.604 143.433 182.151 158.238C182.151 164.069 185.5 168.5 192 168.5L192.094 166.42C187.157 166.42 184.14 163.071 184.14 157.993Z" fill="#A97F27"/>
<path d="M186.5 170.5C190.5 173 200 172 202.5 165.5" stroke="#A97F27" stroke-linecap="round"/>
</g>
<mask id="mask1_171_24" style="mask-type:alpha" maskUnits="userSpaceOnUse" x="49" y="49" width="148" height="148">
<path d="M175.567 50.908C175.749 49.8185 176.779 49.0824 177.869 49.264C185.264 50.4966 197.354 60.5759 196.539 88.2956C196.028 105.656 190.654 120.858 185.588 134.828L185.218 135.849C180.253 149.531 175.764 161.899 176 174.394C176 175.964 175 176.451 173.963 176.431C161.462 176.195 149.143 180.634 135.515 185.543L134.508 185.906C120.594 190.915 105.451 196.23 88.0943 196.741C60.3746 197.556 50.2953 185.466 49.0627 178.07C48.8811 176.981 49.6171 175.95 50.7067 175.769C51.7962 175.587 52.8267 176.323 53.0083 177.413C53.7756 182.017 61.2964 193.527 87.9767 192.743C104.619 192.253 119.209 187.163 133.153 182.142C133.598 181.982 134.042 181.822 134.486 181.662C147.156 177.095 159.457 172.661 172.001 172.431C172.235 159.883 176.72 147.532 181.337 134.815C181.501 134.365 181.664 133.915 181.827 133.465C186.906 119.463 192.051 104.818 192.541 88.178C193.325 61.4977 181.815 53.977 177.211 53.2096C176.121 53.028 175.385 51.9976 175.567 50.908Z" fill="#C3932F"/>
</mask>
<g mask="url(#mask1_171_24)">
<path d="M175.567 50.908C175.749 49.8185 176.779 49.0824 177.869 49.264C185.264 50.4966 197.354 60.5759 196.539 88.2956C196.028 105.656 190.654 120.858 185.588 134.828L185.218 135.849C180.253 149.531 175.764 161.899 176 174.394C176 175.964 175 176.451 173.963 176.431C161.462 176.195 149.143 180.634 135.515 185.543L134.508 185.906C120.594 190.915 105.451 196.23 88.0943 196.741C60.3746 197.556 50.2953 185.466 49.0627 178.07C48.8811 176.981 49.6171 175.95 50.7067 175.769C51.7962 175.587 52.8267 176.323 53.0083 177.413C53.7756 182.017 61.2964 193.527 87.9767 192.743C104.619 192.253 119.209 187.163 133.153 182.142C133.598 181.982 134.042 181.822 134.486 181.662C147.156 177.095 159.457 172.661 172.001 172.431C172.235 159.883 176.72 147.532 181.337 134.815C181.501 134.365 181.664 133.915 181.827 133.465C186.906 119.463 192.051 104.818 192.541 88.178C193.325 61.4977 181.815 53.977 177.211 53.2096C176.121 53.028 175.385 51.9976 175.567 50.908Z" fill="#C3932F"/>
<path d="M49.0342 178.354C50.0342 184.354 60.8342 198.542 88.0342 197.742C122.034 196.742 149.5 175.931 176 176.431C175.5 149.931 195.5 124 198.5 88.5M174 52.5C182.5 53.5 189.5 62 190 75" stroke="#A97F27" stroke-width="4" stroke-linecap="round"/>
</g>
<mask id="mask2_171_24" style="mask-type:alpha" maskUnits="userSpaceOnUse" x="144" y="56" width="48" height="98">
<path d="M147.816 149.9C149.993 151.921 153.184 153.237 157.539 153.237C162.483 153.237 167.021 150.536 171.027 146.201C175.035 141.863 178.558 135.839 181.485 129.06C187.339 115.503 190.854 98.8132 191.039 86.2441C191.24 72.6055 188.989 65.0995 186.032 60.9944C183.047 56.8485 179.393 56.2365 177.039 56.2368C174.2 56.2368 171.954 57.0115 170.408 58.2888C168.858 59.5698 168.039 61.3354 168.039 63.2368C168.039 64.3109 168.306 65.4137 168.873 66.2641C169.45 67.1293 170.345 67.7368 171.539 67.7368C172.702 67.7368 173.572 67.3863 174.04 66.7368C174.489 66.1127 174.54 65.7334 174.54 65.2368C174.54 64.9606 174.54 64.2368 174.04 63.7368C173.54 63.2368 172.54 63.2368 172.04 63.7368C171.54 64.2368 171.17 62.6059 172.04 61.7368C172.54 61.2368 174.04 59.7371 177.54 59.7368C179.686 59.7366 182.3 59.9326 185.04 63.7368C187.808 67.5818 189.739 72.6754 189.54 86.2368C189.357 98.6677 185.54 115.237 178.54 128.237C175.04 134.737 171.54 138.237 167.54 142.237C163.54 146.237 160.242 147.43 157.54 147.737C154.837 148.043 151.139 148.136 149.04 146.737C147.401 145.644 146.04 143.737 146.04 141.737C146.04 139.237 147.04 137.737 147.816 136.884C148.593 136.031 150.54 135.237 151.04 136.237C151.54 137.237 150.54 137.237 150.04 138.237C149.54 139.237 149.54 140.237 150.04 141.237C150.54 142.237 151.54 142.737 152.04 142.737C152.54 142.737 153.853 142.892 154.837 142.164C155.839 141.422 156.54 140.036 156.54 137.737C156.54 135.893 156.012 134.385 155.03 133.333C154.045 132.278 152.654 131.737 151.039 131.737C148.686 131.737 146.824 133.161 145.646 135.189C144.47 137.213 143.938 139.885 144.23 142.541C144.522 145.203 145.644 147.884 147.816 149.9Z" fill="#C3932F"/>
</mask>
<g mask="url(#mask2_171_24)">
<path d="M147.816 149.9C149.993 151.921 153.184 153.237 157.539 153.237C162.483 153.237 167.021 150.536 171.027 146.201C175.035 141.863 178.558 135.839 181.485 129.06C187.339 115.503 190.854 98.8132 191.039 86.2441C191.24 72.6055 188.989 65.0995 186.032 60.9944C183.047 56.8485 179.393 56.2365 177.039 56.2368C174.2 56.2368 171.954 57.0115 170.408 58.2888C168.858 59.5698 168.039 61.3354 168.039 63.2368C168.039 64.3109 168.306 65.4137 168.873 66.2641C169.45 67.1293 170.345 67.7368 171.539 67.7368C172.702 67.7368 173.572 67.3863 174.04 66.7368C174.489 66.1127 174.54 65.7334 174.54 65.2368C174.54 64.9606 174.54 64.2368 174.04 63.7368C173.54 63.2368 172.54 63.2368 172.04 63.7368C171.54 64.2368 171.17 62.6059 172.04 61.7368C172.54 61.2368 174.04 59.7371 177.54 59.7368C179.686 59.7366 182.3 59.9326 185.04 63.7368C187.808 67.5818 189.739 72.6754 189.54 86.2368C189.357 98.6677 185.54 115.237 178.54 128.237C175.04 134.737 171.54 138.237 167.54 142.237C163.54 146.237 160.242 147.43 157.54 147.737C154.837 148.043 151.139 148.136 149.04 146.737C147.401 145.644 146.04 143.737 146.04 141.737C146.04 139.237 147.04 137.737 147.816 136.884C148.593 136.031 150.54 135.237 151.04 136.237C151.54 137.237 150.54 137.237 150.04 138.237C149.54 139.237 149.54 140.237 150.04 141.237C150.54 142.237 151.54 142.737 152.04 142.737C152.54 142.737 153.853 142.892 154.837 142.164C155.839 141.422 156.54 140.036 156.54 137.737C156.54 135.893 156.012 134.385 155.03 133.333C154.045 132.278 152.654 131.737 151.039 131.737C148.686 131.737 146.824 133.161 145.646 135.189C144.47 137.213 143.938 139.885 144.23 142.541C144.522 145.203 145.644 147.884 147.816 149.9Z" fill="#C3932F"/>
<path d="M145.5 148.5C147.677 150.521 153.375 153.356 158 153C164.5 152.5 166.646 150.072 170.651 145.737C174.659 141.399 178.558 135.839 181.485 129.06C187.339 115.503 190.967 98.8058 191.151 86.2368C191.352 72.5981 188.989 65.0995 186.032 60.9944C183.047 56.8485 179.505 55.2365 177.151 55.2368M152.151 145C150.151 145 147 144.5 147 140C147 137.263 149 136 150 136.5M156.5 142.5C153 144 149 142 149 138.5" stroke="#A97F27" stroke-width="2" stroke-linecap="round"/>
<path d="M180.5 60.5C175.5 57.4998 170 61.4997 171.652 63.7368M175 65.4998C174 68.4998 169 67.4998 168 65.4998" stroke="#A97F27" stroke-linecap="round"/>
</g>
<mask id="mask3_171_24" style="mask-type:alpha" maskUnits="userSpaceOnUse" x="165" y="54" width="15" height="19">
<path fill-rule="evenodd" clip-rule="evenodd" d="M167.039 64.057C167.039 58.3475 170.319 56.3371 172.197 55.7112C172.459 55.6239 172.601 55.3407 172.513 55.0788C172.426 54.8168 172.143 54.6752 171.881 54.7625C169.759 55.47 165.539 57.9464 165.539 64.2369C165.539 68.513 168.539 71.7368 173.039 72.2368C176.453 72.6161 178.255 71.3043 179.039 69.7368C180.539 66.7368 179.789 64.2368 178.539 62.7368C178.259 62.4005 177.539 62.2368 177.039 62.7368C176.539 63.2368 176.961 63.8935 177.039 64.2368C177.423 65.9165 177.219 67.1489 176.539 68.2368C175.859 69.3246 174.539 70.2368 173.039 70.2368C169.315 70.2368 167.039 67.7808 167.039 64.057Z" fill="#C3932F"/>
</mask>
<g mask="url(#mask3_171_24)">
<path fill-rule="evenodd" clip-rule="evenodd" d="M167.039 64.057C167.039 58.3475 170.319 56.3371 172.197 55.7112C172.459 55.6239 172.601 55.3407 172.513 55.0788C172.426 54.8168 172.143 54.6752 171.881 54.7625C169.759 55.47 165.539 57.9464 165.539 64.2369C165.539 68.513 168.539 71.7368 173.039 72.2368C176.453 72.6161 178.255 71.3043 179.039 69.7368C180.539 66.7368 179.789 64.2368 178.539 62.7368C178.259 62.4005 177.539 62.2368 177.039 62.7368C176.539 63.2368 176.961 63.8935 177.039 64.2368C177.423 65.9165 177.219 67.1489 176.539 68.2368C175.859 69.3246 174.539 70.2368 173.039 70.2368C169.315 70.2368 167.039 67.7808 167.039 64.057Z" fill="#C3932F"/>
<path d="M173 68.9999C169.5 68.9999 167 66.9999 167 63.4999C167 58.4999 170.5 55.9999 173.15 55.7368" stroke="#A97F27" stroke-linecap="round"/>
<path d="M167.5 71C171 73.0003 175.5 73.5 178 71.5C180.035 69.8718 181 67 181 65.4998M175.5 62.5C177 64 176.5 67 175 68.5" stroke="#A97F27" stroke-width="2" stroke-linecap="round"/>
</g>
<mask id="mask4_171_24" style="mask-type:alpha" maskUnits="userSpaceOnUse" x="161" y="57" width="5" height="6">
<path d="M163.05 61.8773C163.56 62.1527 164.538 62.7373 164.538 62.2373C164.538 61.8773 163.038 61.7373 163.038 60.2373C163.038 59.7373 163.566 59.5015 164.038 59.7373C164.509 59.9731 165.038 59.395 165.038 58.7373C165.038 58.0797 164.536 57.7373 164.038 57.7373C163.788 57.7373 163.073 57.7001 162.538 58.2373C161.587 59.1895 161.603 61.096 163.05 61.8773Z" fill="#C3932F"/>
</mask>
<g mask="url(#mask4_171_24)">
<path d="M163.05 61.8773C163.56 62.1527 164.538 62.7373 164.538 62.2373C164.538 61.8773 163.038 61.7373 163.038 60.2373C163.038 59.7373 163.566 59.5015 164.038 59.7373C164.509 59.9731 165.038 59.395 165.038 58.7373C165.038 58.0797 164.536 57.7373 164.038 57.7373C163.788 57.7373 163.073 57.7001 162.538 58.2373C161.587 59.1895 161.603 61.096 163.05 61.8773Z" fill="#C3932F"/>
<path d="M164.501 59.9999C164 59.4999 162.5 59.4998 164.151 61.2367M161 58.5C161 61 163 62.5 165 63" stroke="#A97F27" stroke-linecap="round"/>
</g>
<mask id="mask5_171_24" style="mask-type:alpha" maskUnits="userSpaceOnUse" x="143" y="3" width="22" height="50">
<path d="M162.695 16.1967C162.695 30.501 154.193 45.6966 153.393 48.5C150.393 56.5127 154.059 51.3201 154.893 49.4882C156.893 44.9882 164.393 32.001 164.893 15.9304C164.893 9.6012 160.497 4.82977 153.903 4.08971C148.901 3.52828 146.26 5.46988 145.112 7.78999C142.914 12.2303 144.013 15.9306 145.845 18.1507C146.255 18.6484 147.31 18.8908 148.042 18.1507C148.775 17.4107 148.157 16.4387 148.042 15.9306C147.48 13.4443 147.779 11.6203 148.775 10.0102C149.771 8.40001 151.705 7.04993 153.903 7.04993C159.36 7.04993 162.695 10.6849 162.695 16.1967Z" fill="#C3932F"/>
</mask>
<g mask="url(#mask5_171_24)">
<path d="M162.695 16.1967C162.695 30.501 154.193 45.6966 153.393 48.5C150.393 56.5127 154.059 51.3201 154.893 49.4882C156.893 44.9882 164.393 32.001 164.893 15.9304C164.893 9.6012 160.497 4.82977 153.903 4.08971C148.901 3.52828 146.26 5.46988 145.112 7.78999C142.914 12.2303 144.013 15.9306 145.845 18.1507C146.255 18.6484 147.31 18.8908 148.042 18.1507C148.775 17.4107 148.157 16.4387 148.042 15.9306C147.48 13.4443 147.779 11.6203 148.775 10.0102C149.771 8.40001 151.705 7.04993 153.903 7.04993C159.36 7.04993 162.695 10.6849 162.695 16.1967Z" fill="#C3932F"/>
<path d="M161.793 16.7437C161.793 29.9217 152.724 47.4174 152 50.0001C149.286 57.3819 153.98 49.1016 154.734 47.4139C156.543 43.2682 163.329 31.3036 163.781 16.4983C163.781 10.6675 159.804 6.27176 153.839 5.58997C149.313 5.07275 146.923 6.86148 145.884 8.99891C143.896 13.0896 144.89 16.4985 146.547 18.5439C146.919 19.0023 147.873 19.2257 148.536 18.5439C149.199 17.8621 148.64 16.9666 148.536 16.4985C148.027 14.208 148.297 12.5276 149.199 11.0443C150.1 9.5609 151.85 8.31712 153.839 8.31712C158.775 8.31712 161.793 11.6659 161.793 16.7437Z" fill="#A97F27"/>
</g>
<mask id="mask6_171_24" style="mask-type:alpha" maskUnits="userSpaceOnUse" x="149" y="0" width="25" height="127">
<path d="M168.393 124.5C162.393 123.5 150.593 114.7 151.393 87.5C152.393 53.5 172.393 28.5 171.893 2" stroke="#C3932F" stroke-width="4" stroke-linecap="round"/>
</mask>
<g mask="url(#mask6_171_24)">
<path d="M168.393 124.5C162.393 123.5 150.593 114.7 151.393 87.5C152.393 53.5 172.393 28.5 171.893 2" stroke="#C3932F" stroke-width="4" stroke-linecap="round"/>
<path d="M168.5 126.5C161 126.5 147.593 114.7 148.393 87.5C148.849 72 148.393 69.5 150 60.5" stroke="#A97F27" stroke-width="4" stroke-linecap="round"/>
<path d="M173.999 15C169.999 28 162.735 48.0921 159.5 56C156.265 63.9078 151.499 91 161 94.5" stroke="#A97F27" stroke-width="2" stroke-linecap="round"/>
</g>
<mask id="mask7_171_24" style="mask-type:alpha" maskUnits="userSpaceOnUse" x="154" y="22" width="48" height="98">
<path d="M198.116 25.8367C195.939 23.8157 192.749 22.5 188.393 22.5C183.45 22.5 178.912 25.2003 174.906 29.5357C170.898 33.8735 167.374 39.8979 164.447 46.6768C158.594 60.2339 155.078 76.9236 154.893 89.4926C154.693 103.131 156.944 110.637 159.9 114.742C162.886 118.888 166.54 119.5 168.893 119.5C171.732 119.5 173.978 118.725 175.524 117.448C177.075 116.167 177.893 114.401 177.893 112.5C177.893 111.426 177.626 110.323 177.059 109.473C176.483 108.607 175.587 108 174.393 108C173.23 108 172.361 108.35 171.893 109C171.444 109.624 171.393 110.003 171.393 110.5C171.393 110.776 171.393 111.5 171.893 112C172.393 112.5 173.393 112.5 173.893 112C174.393 111.5 174.762 113.131 173.893 114C173.393 114.5 171.893 116 168.393 116C166.247 116 163.632 115.804 160.893 112C158.124 108.155 156.194 103.061 156.393 89.5C156.576 77.0691 160.393 60.5 167.393 47.5C170.893 41 174.393 37.5 178.393 33.5C182.393 29.5 185.69 28.3064 188.393 28C191.096 27.6936 194.794 27.6005 196.893 29C198.532 30.0923 199.893 32 199.893 34C199.893 36.5 198.893 38 198.116 38.8531C197.339 39.7062 195.393 40.5 194.893 39.5C194.393 38.5 195.393 38.5 195.893 37.5C196.393 36.5 196.393 35.5 195.893 34.5C195.393 33.5 194.393 33 193.893 33C193.393 33 192.079 32.8451 191.096 33.5731C190.094 34.3146 189.393 35.701 189.393 38C189.393 39.8438 189.921 41.3521 190.903 42.4037C191.887 43.4587 193.279 44 194.893 44C197.246 44 199.108 42.5753 200.286 40.5481C201.463 38.524 201.994 35.8522 201.703 33.1954C201.411 30.5335 200.288 27.853 198.116 25.8367Z" fill="#C3932F"/>
</mask>
<g mask="url(#mask7_171_24)">
<path d="M198.116 25.8367C195.939 23.8157 192.749 22.5 188.393 22.5C183.45 22.5 178.912 25.2003 174.906 29.5357C170.898 33.8735 167.374 39.8979 164.447 46.6768C158.594 60.2339 155.078 76.9236 154.893 89.4926C154.693 103.131 156.944 110.637 159.9 114.742C162.886 118.888 166.54 119.5 168.893 119.5C171.732 119.5 173.978 118.725 175.524 117.448C177.075 116.167 177.893 114.401 177.893 112.5C177.893 111.426 177.626 110.323 177.059 109.473C176.483 108.607 175.587 108 174.393 108C173.23 108 172.361 108.35 171.893 109C171.444 109.624 171.393 110.003 171.393 110.5C171.393 110.776 171.393 111.5 171.893 112C172.393 112.5 173.393 112.5 173.893 112C174.393 111.5 174.762 113.131 173.893 114C173.393 114.5 171.893 116 168.393 116C166.247 116 163.632 115.804 160.893 112C158.124 108.155 156.194 103.061 156.393 89.5C156.576 77.0691 160.393 60.5 167.393 47.5C170.893 41 174.393 37.5 178.393 33.5C182.393 29.5 185.69 28.3064 188.393 28C191.096 27.6936 194.794 27.6005 196.893 29C198.532 30.0923 199.893 32 199.893 34C199.893 36.5 198.893 38 198.116 38.8531C197.339 39.7062 195.393 40.5 194.893 39.5C194.393 38.5 195.393 38.5 195.893 37.5C196.393 36.5 196.393 35.5 195.893 34.5C195.393 33.5 194.393 33 193.893 33C193.393 33 192.079 32.8451 191.096 33.5731C190.094 34.3146 189.393 35.701 189.393 38C189.393 39.8438 189.921 41.3521 190.903 42.4037C191.887 43.4587 193.279 44 194.893 44C197.246 44 199.108 42.5753 200.286 40.5481C201.463 38.524 201.994 35.8522 201.703 33.1954C201.411 30.5335 200.288 27.853 198.116 25.8367Z" fill="#C3932F"/>
<path d="M198.5 32.9999C198.5 27.9999 193 26.8749 188.5 27.9999C182.5 29.4999 180.006 31.6646 176 35.9999C171.992 40.3378 168.093 45.8978 165.166 52.6767C159.312 66.2339 157 82.9999 157.5 95.4999M159 115C163 120.5 176 120 178.5 115M192.5 32C194 32 195.5 34 196 35C196.5 36 196.5 37 195.5 38M201.5 41C201.5 43 198 44 195.5 44C193 44 188 42 188 39" stroke="#A97F27" stroke-width="2" stroke-linecap="round"/>
<path d="M170.281 115C172.782 115.5 175.781 113.5 174.282 112C173.5 111.5 172 113 171 111" stroke="#A97F27" stroke-linecap="round"/>
</g>
<mask id="mask8_171_24" style="mask-type:alpha" maskUnits="userSpaceOnUse" x="166" y="103" width="15" height="18">
<path fill-rule="evenodd" clip-rule="evenodd" d="M178.893 111.68C178.893 117.389 175.612 119.4 173.734 120.026C173.472 120.113 173.331 120.396 173.418 120.658C173.506 120.92 173.789 121.062 174.051 120.974C176.173 120.267 180.393 117.79 180.393 111.5C180.393 107.224 177.393 104 172.893 103.5C169.479 103.121 167.676 104.432 166.893 106C165.393 109 166.143 111.5 167.393 113C167.673 113.336 168.393 113.5 168.893 113C169.393 112.5 168.971 111.843 168.893 111.5C168.508 109.82 168.713 108.588 169.393 107.5C170.072 106.412 171.393 105.5 172.893 105.5C176.616 105.5 178.893 107.956 178.893 111.68Z" fill="#C3932F"/>
</mask>
<g mask="url(#mask8_171_24)">
<path fill-rule="evenodd" clip-rule="evenodd" d="M178.893 111.68C178.893 117.389 175.612 119.4 173.734 120.026C173.472 120.113 173.331 120.396 173.418 120.658C173.506 120.92 173.789 121.062 174.051 120.974C176.173 120.267 180.393 117.79 180.393 111.5C180.393 107.224 177.393 104 172.893 103.5C169.479 103.121 167.676 104.432 166.893 106C165.393 109 166.143 111.5 167.393 113C167.673 113.336 168.393 113.5 168.893 113C169.393 112.5 168.971 111.843 168.893 111.5C168.508 109.82 168.713 108.588 169.393 107.5C170.072 106.412 171.393 105.5 172.893 105.5C176.616 105.5 178.893 107.956 178.893 111.68Z" fill="#C3932F"/>
<path d="M167.5 113.5C171.5 113.5 165.5 106.583 172 105.5C175 105 178.78 106.5 178.78 111.5C178.78 116.5 176.78 119.5 172.78 120" stroke="#A97F27" stroke-linecap="round"/>
</g>
<mask id="mask9_171_24" style="mask-type:alpha" maskUnits="userSpaceOnUse" x="180" y="113" width="5" height="5">
<path d="M182.882 113.859C182.371 113.584 181.394 112.999 181.394 113.499C181.394 113.859 182.894 113.999 182.894 115.499C182.894 115.999 182.366 116.235 181.894 115.999C181.422 115.764 180.894 116.342 180.894 116.999C180.894 117.657 181.395 117.999 181.894 117.999C182.143 117.999 182.858 118.037 183.394 117.499C184.345 116.547 184.328 114.641 182.882 113.859Z" fill="#C3932F"/>
</mask>
<g mask="url(#mask9_171_24)">
<path d="M182.882 113.859C182.371 113.584 181.394 112.999 181.394 113.499C181.394 113.859 182.894 113.999 182.894 115.499C182.894 115.999 182.366 116.235 181.894 115.999C181.422 115.764 180.894 116.342 180.894 116.999C180.894 117.657 181.395 117.999 181.894 117.999C182.143 117.999 182.858 118.037 183.394 117.499C184.345 116.547 184.328 114.641 182.882 113.859Z" fill="#C3932F"/>
<path d="M184.5 117C183.5 118 181.781 118.375 180.5 117M181 114C182 114 183 115 182 115.5" stroke="#A97F27" stroke-linecap="round"/>
</g>
<mask id="mask10_171_24" style="mask-type:alpha" maskUnits="userSpaceOnUse" x="122" y="181" width="50" height="22">
<path d="M159.338 183.44C145.033 183.44 129.838 191.941 127.034 192.742C119.022 195.742 124.214 192.075 126.046 191.242C130.546 189.242 143.533 181.742 159.604 181.242C165.933 181.242 170.705 185.637 171.445 192.231C172 197 170.064 199.874 167.744 201.022C163.304 203.22 159.604 202.121 157.384 200.29C156.886 199.879 156.644 198.824 157.384 198.092C158.124 197.359 159.096 197.977 159.604 198.092C162.09 198.655 163.914 198.355 165.524 197.359C167.134 196.363 168.484 194.429 168.484 192.231C168.484 186.775 164.849 183.44 159.338 183.44Z" fill="#C3932F"/>
</mask>
<g mask="url(#mask10_171_24)">
<path d="M159.338 183.44C145.033 183.44 129.838 191.941 127.034 192.742C119.022 195.742 124.214 192.075 126.046 191.242C130.546 189.242 143.533 181.742 159.604 181.242C165.933 181.242 170.705 185.637 171.445 192.231C172 197 170.064 199.874 167.744 201.022C163.304 203.22 159.604 202.121 157.384 200.29C156.886 199.879 156.644 198.824 157.384 198.092C158.124 197.359 159.096 197.977 159.604 198.092C162.09 198.655 163.914 198.355 165.524 197.359C167.134 196.363 168.484 194.429 168.484 192.231C168.484 186.775 164.849 183.44 159.338 183.44Z" fill="#C3932F"/>
<path d="M158.791 184.342C145.612 184.342 131.613 192.034 129.031 192.758C121.649 195.473 126.433 192.155 128.12 191.401C132.266 189.592 144.231 182.806 159.036 182.354C164.867 182.354 168.5 185.5 168.5 190C168.5 192.704 167.5 195 165 196.5L167.217 192.296C167.217 187.359 163.868 184.342 158.791 184.342Z" fill="#A97F27"/>
<path d="M171 198C166.2 202.8 159 200.333 156 198.5C154.8 202.1 163.833 204.333 168.5 205L171 198Z" fill="#A97F27"/>
</g>
<mask id="mask11_171_24" style="mask-type:alpha" maskUnits="userSpaceOnUse" x="56" y="144" width="98" height="48">
<path d="M149.697 148.018C151.718 150.196 153.034 153.386 153.034 157.741C153.034 162.685 150.334 167.223 145.998 171.229C141.661 175.237 135.636 178.76 128.857 181.687C115.3 187.541 98.6106 191.056 86.0415 191.241C72.4029 191.442 64.8969 189.191 60.7918 186.235C56.6459 183.249 56.034 179.595 56.0342 177.241C56.0342 174.403 56.8089 172.157 58.0862 170.61C59.3672 169.06 61.1328 168.241 63.0342 168.241C64.1084 168.241 65.2111 168.508 66.0615 169.075C66.9268 169.652 67.5342 170.547 67.5342 171.741C67.5342 172.904 67.1838 173.774 66.5342 174.242C65.9101 174.691 65.5309 174.742 65.0342 174.742C64.758 174.742 64.0342 174.742 63.5342 174.242C63.0342 173.742 63.0342 172.742 63.5342 172.242C64.0342 171.742 62.4033 171.373 61.5342 172.242C61.0342 172.742 59.5345 174.242 59.5342 177.742C59.534 179.888 59.73 182.502 63.5342 185.242C67.3792 188.011 72.4728 189.941 86.0342 189.742C98.4651 189.559 115.034 185.742 128.034 178.742C134.534 175.242 138.034 171.742 142.034 167.742C146.034 163.742 147.228 160.444 147.534 157.742C147.841 155.039 147.934 151.341 146.534 149.242C145.442 147.603 143.534 146.242 141.534 146.242C139.034 146.242 137.534 147.242 136.681 148.018C135.828 148.795 135.034 150.742 136.034 151.242C137.034 151.742 137.034 150.742 138.034 150.242C139.034 149.742 140.034 149.742 141.034 150.242C142.034 150.742 142.534 151.742 142.534 152.242C142.534 152.742 142.689 154.055 141.961 155.039C141.22 156.041 139.833 156.742 137.534 156.742C135.69 156.742 134.182 156.214 133.131 155.232C132.075 154.247 131.534 152.856 131.534 151.241C131.534 148.888 132.959 147.027 134.986 145.848C137.01 144.672 139.682 144.14 142.339 144.432C145.001 144.724 147.681 145.846 149.697 148.018Z" fill="#C3932F"/>
</mask>
<g mask="url(#mask11_171_24)">
<path d="M149.697 148.018C151.718 150.196 153.034 153.386 153.034 157.741C153.034 162.685 150.334 167.223 145.998 171.229C141.661 175.237 135.636 178.76 128.857 181.687C115.3 187.541 98.6106 191.056 86.0415 191.241C72.4029 191.442 64.8969 189.191 60.7918 186.235C56.6459 183.249 56.034 179.595 56.0342 177.241C56.0342 174.403 56.8089 172.157 58.0862 170.61C59.3672 169.06 61.1328 168.241 63.0342 168.241C64.1084 168.241 65.2111 168.508 66.0615 169.075C66.9268 169.652 67.5342 170.547 67.5342 171.741C67.5342 172.904 67.1838 173.774 66.5342 174.242C65.9101 174.691 65.5309 174.742 65.0342 174.742C64.758 174.742 64.0342 174.742 63.5342 174.242C63.0342 173.742 63.0342 172.742 63.5342 172.242C64.0342 171.742 62.4033 171.373 61.5342 172.242C61.0342 172.742 59.5345 174.242 59.5342 177.742C59.534 179.888 59.73 182.502 63.5342 185.242C67.3792 188.011 72.4728 189.941 86.0342 189.742C98.4651 189.559 115.034 185.742 128.034 178.742C134.534 175.242 138.034 171.742 142.034 167.742C146.034 163.742 147.228 160.444 147.534 157.742C147.841 155.039 147.934 151.341 146.534 149.242C145.442 147.603 143.534 146.242 141.534 146.242C139.034 146.242 137.534 147.242 136.681 148.018C135.828 148.795 135.034 150.742 136.034 151.242C137.034 151.742 137.034 150.742 138.034 150.242C139.034 149.742 140.034 149.742 141.034 150.242C142.034 150.742 142.534 151.742 142.534 152.242C142.534 152.742 142.689 154.055 141.961 155.039C141.22 156.041 139.833 156.742 137.534 156.742C135.69 156.742 134.182 156.214 133.131 155.232C132.075 154.247 131.534 152.856 131.534 151.241C131.534 148.888 132.959 147.027 134.986 145.848C137.01 144.672 139.682 144.14 142.339 144.432C145.001 144.724 147.681 145.846 149.697 148.018Z" fill="#C3932F"/>
<path d="M129.499 182.5C115.942 188.354 98.6027 191.169 86.0337 191.353C72.395 191.554 64.8964 189.191 60.7913 186.235C56.6454 183.249 54.4999 173 57.9993 169M145.5 161C149.5 154.5 147.499 147.353 142.499 146.5C138.557 145.827 136.666 148.5 136.999 149.5M130.499 150.5C130.499 152.5 132.959 155.113 136.034 156C139.499 157 142.499 155.5 142.999 155" stroke="#A97F27" stroke-width="2" stroke-linecap="round"/>
<path d="M60.5337 175.854C59.4998 172.5 63.5341 170 63.534 171.854C63.4995 173 62.5 175 67 175" stroke="#A97F27" stroke-linecap="round"/>
</g>
<mask id="mask12_171_24" style="mask-type:alpha" maskUnits="userSpaceOnUse" x="54" y="165" width="19" height="16">
<path fill-rule="evenodd" clip-rule="evenodd" d="M63.8544 167.242C58.1449 167.242 56.1346 170.522 55.5087 172.4C55.4213 172.662 55.1382 172.803 54.8762 172.716C54.6142 172.629 54.4726 172.346 54.56 172.084C55.2674 169.961 57.7438 165.742 64.0343 165.742C68.3105 165.742 71.5342 168.742 72.0342 173.242C72.4135 176.656 71.1017 178.458 69.5342 179.242C66.5342 180.742 64.0342 179.992 62.5342 178.742C62.198 178.462 62.0342 177.742 62.5342 177.242C63.0342 176.742 63.6909 177.163 64.0342 177.242C65.714 177.626 66.9463 177.422 68.0342 176.742C69.122 176.062 70.0342 174.742 70.0342 173.242C70.0342 169.518 67.5783 167.242 63.8544 167.242Z" fill="#C3932F"/>
</mask>
<g mask="url(#mask12_171_24)">
<path fill-rule="evenodd" clip-rule="evenodd" d="M63.8544 167.242C58.1449 167.242 56.1346 170.522 55.5087 172.4C55.4213 172.662 55.1382 172.803 54.8762 172.716C54.6142 172.629 54.4726 172.346 54.56 172.084C55.2674 169.961 57.7438 165.742 64.0343 165.742C68.3105 165.742 71.5342 168.742 72.0342 173.242C72.4135 176.656 71.1017 178.458 69.5342 179.242C66.5342 180.742 64.0342 179.992 62.5342 178.742C62.198 178.462 62.0342 177.742 62.5342 177.242C63.0342 176.742 63.6909 177.163 64.0342 177.242C65.714 177.626 66.9463 177.422 68.0342 176.742C69.122 176.062 70.0342 174.742 70.0342 173.242C70.0342 169.518 67.5783 167.242 63.8544 167.242Z" fill="#C3932F"/>
<path d="M71.5 179.5C67 181 62.5 180 62.5 177.354M69 175C71.5 171.5 68.5342 167.354 64.0342 167.354C59.0342 167.354 56.5 170 56 174" stroke="#A97F27" stroke-linecap="round"/>
</g>
<mask id="mask13_171_24" style="mask-type:alpha" maskUnits="userSpaceOnUse" x="57" y="162" width="6" height="4">
<path d="M61.6747 163.253C61.9502 163.763 62.5348 164.74 62.0348 164.74C61.6747 164.74 61.5348 163.24 60.0348 163.24C59.5348 163.24 59.299 163.769 59.5348 164.24C59.7705 164.712 59.1924 165.24 58.5348 165.24C57.8771 165.24 57.5348 164.739 57.5348 164.24C57.5348 163.991 57.4975 163.276 58.0348 162.74C58.9869 161.79 60.8934 161.806 61.6747 163.253Z" fill="#C3932F"/>
</mask>
<g mask="url(#mask13_171_24)">
<path d="M61.6747 163.253C61.9502 163.763 62.5348 164.74 62.0348 164.74C61.6747 164.74 61.5348 163.24 60.0348 163.24C59.5348 163.24 59.299 163.769 59.5348 164.24C59.7705 164.712 59.1924 165.24 58.5348 165.24C57.8771 165.24 57.5348 164.739 57.5348 164.24C57.5348 163.991 57.4975 163.276 58.0348 162.74C58.9869 161.79 60.8934 161.806 61.6747 163.253Z" fill="#C3932F"/>
<path d="M57 162C57 163 57.5 166.5 60.5002 165C60.0002 164 60.0002 162 61.5002 164.5" stroke="#A97F27" stroke-linecap="round"/>
</g>
<mask id="mask14_171_24" style="mask-type:alpha" maskUnits="userSpaceOnUse" x="3" y="144" width="50" height="22">
<path d="M16.1965 162.889C30.5008 162.889 45.6965 154.388 48.4998 153.587C56.5126 150.587 51.3199 154.254 49.4881 155.087C44.9881 157.087 32.0008 164.587 15.9302 165.087C9.60104 165.087 4.8296 160.692 4.08955 154.098C3.53184 149.129 5.46972 146.455 7.78983 145.307C12.2302 143.109 15.9304 144.208 18.1506 146.039C18.6482 146.45 18.8906 147.505 18.1506 148.237C17.4105 148.97 16.4385 148.352 15.9304 148.237C13.4442 147.674 11.6201 147.974 10.01 148.97C8.39985 149.966 7.04977 151.9 7.04977 154.098C7.04977 159.554 10.6848 162.889 16.1965 162.889Z" fill="#C3932F"/>
</mask>
<g mask="url(#mask14_171_24)">
<path d="M16.1965 162.889C30.5008 162.889 45.6965 154.388 48.4998 153.587C56.5126 150.587 51.3199 154.254 49.4881 155.087C44.9881 157.087 32.0008 164.587 15.9302 165.087C9.60104 165.087 4.8296 160.692 4.08955 154.098C3.53184 149.129 5.46972 146.455 7.78983 145.307C12.2302 143.109 15.9304 144.208 18.1506 146.039C18.6482 146.45 18.8906 147.505 18.1506 148.237C17.4105 148.97 16.4385 148.352 15.9304 148.237C13.4442 147.674 11.6201 147.974 10.01 148.97C8.39985 149.966 7.04977 151.9 7.04977 154.098C7.04977 159.554 10.6848 162.889 16.1965 162.889Z" fill="#C3932F"/>
<path d="M15.5001 164C28.6782 164 42.331 157.216 44.9137 156.492C52.2955 153.778 47.5117 157.095 45.8241 157.849C41.6784 159.659 29.7138 166.444 14.9085 166.897C9.07767 166.897 2.18179 160.466 1.5 154.5C0.982777 149.974 1.36257 145.039 3.5 144C7.59072 142.011 9.45464 139.343 11.5 141C11.9584 141.371 12.6818 142.837 12 143.5C7.2 144.3 5.50015 150.779 5.50015 154C5.50015 158.937 9.45443 164 15.5001 164Z" fill="#A97F27"/>
</g>
<mask id="mask15_171_24" style="mask-type:alpha" maskUnits="userSpaceOnUse" x="0" y="149" width="127" height="26">
<path d="M124.5 168.587C123.5 162.587 114.7 150.787 87.5 151.587C53.5 152.587 28.5 172.587 2 172.087" stroke="#C3932F" stroke-width="4" stroke-linecap="round"/>
</mask>
<g mask="url(#mask15_171_24)">
<path d="M124.5 168.587C123.5 162.587 114.7 150.787 87.5 151.587C53.5 152.587 28.5 172.587 2 172.087" stroke="#C3932F" stroke-width="4" stroke-linecap="round"/>
<path d="M122.5 172.5C122.5 163.5 113.7 153.232 86.5 154.032C52.5 155.032 22.5 179 -2.5 173.5" stroke="#A97F27" stroke-width="4" stroke-linecap="round"/>
</g>
<mask id="mask16_171_24" style="mask-type:alpha" maskUnits="userSpaceOnUse" x="22" y="155" width="98" height="47">
<path d="M25.8367 198.311C23.8157 196.133 22.5 192.943 22.5 188.588C22.5 183.644 25.2003 179.106 29.5357 175.1C33.8735 171.092 39.8979 167.569 46.6768 164.642C60.2339 158.788 76.9236 155.273 89.4926 155.088C103.131 154.887 110.637 157.138 114.742 160.094C118.888 163.08 119.5 166.734 119.5 169.088C119.5 171.926 118.725 174.172 117.448 175.719C116.167 177.269 114.401 178.088 112.5 178.088C111.426 178.088 110.323 177.821 109.473 177.254C108.607 176.677 108 175.782 108 174.588C108 173.425 108.35 172.555 109 172.087C109.624 171.638 110.003 171.587 110.5 171.587C110.776 171.587 111.5 171.587 112 172.087C112.5 172.587 112.5 173.587 112 174.087C111.5 174.587 113.131 174.956 114 174.087C114.5 173.587 116 172.087 116 168.587C116 166.441 115.804 163.827 112 161.087C108.155 158.318 103.061 156.388 89.5 156.587C77.0691 156.77 60.5 160.587 47.5 167.587C41 171.087 37.5 174.587 33.5 178.587C29.5 182.587 28.3064 185.885 28 188.587C27.6936 191.29 27.6005 194.988 29 197.087C30.0923 198.726 32 200.087 34 200.087C36.5 200.087 38 199.087 38.8531 198.311C39.7062 197.534 40.5 195.587 39.5 195.087C38.5 194.587 38.5 195.587 37.5 196.087C36.5 196.587 35.5 196.587 34.5 196.087C33.5 195.587 33 194.587 33 194.087C33 193.587 32.8451 192.274 33.5731 191.29C34.3146 190.288 35.701 189.587 38 189.587C39.8438 189.587 41.3521 190.115 42.4037 191.097C43.4587 192.082 44 193.473 44 195.088C44 197.441 42.5753 199.302 40.5481 200.481C38.524 201.657 35.8522 202.189 33.1954 201.897C30.5335 201.605 27.853 200.483 25.8367 198.311Z" fill="#C3932F"/>
</mask>
<g mask="url(#mask16_171_24)">
<path d="M25.8367 198.311C23.8157 196.133 22.5 192.943 22.5 188.588C22.5 183.644 25.2003 179.106 29.5357 175.1C33.8735 171.092 39.8979 167.569 46.6768 164.642C60.2339 158.788 76.9236 155.273 89.4926 155.088C103.131 154.887 110.637 157.138 114.742 160.094C118.888 163.08 119.5 166.734 119.5 169.088C119.5 171.926 118.725 174.172 117.448 175.719C116.167 177.269 114.401 178.088 112.5 178.088C111.426 178.088 110.323 177.821 109.473 177.254C108.607 176.677 108 175.782 108 174.588C108 173.425 108.35 172.555 109 172.087C109.624 171.638 110.003 171.587 110.5 171.587C110.776 171.587 111.5 171.587 112 172.087C112.5 172.587 112.5 173.587 112 174.087C111.5 174.587 113.131 174.956 114 174.087C114.5 173.587 116 172.087 116 168.587C116 166.441 115.804 163.827 112 161.087C108.155 158.318 103.061 156.388 89.5 156.587C77.0691 156.77 60.5 160.587 47.5 167.587C41 171.087 37.5 174.587 33.5 178.587C29.5 182.587 28.3064 185.885 28 188.587C27.6936 191.29 27.6005 194.988 29 197.087C30.0923 198.726 32 200.087 34 200.087C36.5 200.087 38 199.087 38.8531 198.311C39.7062 197.534 40.5 195.587 39.5 195.087C38.5 194.587 38.5 195.587 37.5 196.087C36.5 196.587 35.5 196.587 34.5 196.087C33.5 195.587 33 194.587 33 194.087C33 193.587 32.8451 192.274 33.5731 191.29C34.3146 190.288 35.701 189.587 38 189.587C39.8438 189.587 41.3521 190.115 42.4037 191.097C43.4587 192.082 44 193.473 44 195.088C44 197.441 42.5753 199.302 40.5481 200.481C38.524 201.657 35.8522 202.189 33.1954 201.897C30.5335 201.605 27.853 200.483 25.8367 198.311Z" fill="#C3932F"/>
<path d="M32 171.5C27.6646 175.506 22.4988 181.924 22.5 188.5C22.5008 192.976 25 199 31 201C33.6016 201.867 37.5001 202.5 42 200.5M82.5 158C96.5 156 106.25 157 112.499 161.5C116.645 164.486 116.499 168.5 115.999 170.5C115.393 172.925 113.5 175.975 112 174.475M38.5 197C40 192.5 38.0358 197.012 35 196C32 195 32.5 191.5 33 190.5M109.499 171C107.499 172.5 107 179 114.5 179" stroke="#A97F27" stroke-width="2" stroke-linecap="round"/>
</g>
<mask id="mask17_171_24" style="mask-type:alpha" maskUnits="userSpaceOnUse" x="103" y="166" width="18" height="15">
<path fill-rule="evenodd" clip-rule="evenodd" d="M111.68 179.087C117.389 179.087 119.4 175.807 120.026 173.929C120.113 173.667 120.396 173.526 120.658 173.613C120.92 173.7 121.062 173.983 120.974 174.245C120.267 176.368 117.79 180.587 111.5 180.587C107.224 180.587 104 177.587 103.5 173.087C103.121 169.673 104.432 167.871 106 167.087C109 165.587 111.5 166.337 113 167.587C113.336 167.867 113.5 168.587 113 169.087C112.5 169.587 111.843 169.166 111.5 169.087C109.82 168.703 108.588 168.907 107.5 169.587C106.412 170.267 105.5 171.587 105.5 173.087C105.5 176.811 107.956 179.087 111.68 179.087Z" fill="#C3932F"/>
</mask>
<g mask="url(#mask17_171_24)">
<path fill-rule="evenodd" clip-rule="evenodd" d="M111.68 179.087C117.389 179.087 119.4 175.807 120.026 173.929C120.113 173.667 120.396 173.526 120.658 173.613C120.92 173.7 121.062 173.983 120.974 174.245C120.267 176.368 117.79 180.587 111.5 180.587C107.224 180.587 104 177.587 103.5 173.087C103.121 169.673 104.432 167.871 106 167.087C109 165.587 111.5 166.337 113 167.587C113.336 167.867 113.5 168.587 113 169.087C112.5 169.587 111.843 169.166 111.5 169.087C109.82 168.703 108.588 168.907 107.5 169.587C106.412 170.267 105.5 171.587 105.5 173.087C105.5 176.811 107.956 179.087 111.68 179.087Z" fill="#C3932F"/>
<path d="M107.5 166C104 166.5 100.783 173.914 107 179C109 180.636 111 181 113 181" stroke="#A97F27" stroke-linecap="round"/>
</g>
<mask id="mask18_171_24" style="mask-type:alpha" maskUnits="userSpaceOnUse" x="113" y="181" width="5" height="4">
<path d="M113.859 183.076C113.584 182.566 112.999 181.589 113.499 181.589C113.859 181.589 113.999 183.089 115.499 183.089C115.999 183.089 116.235 182.56 115.999 182.089C115.764 181.617 116.342 181.089 116.999 181.089C117.657 181.089 117.999 181.59 117.999 182.089C117.999 182.338 118.037 183.053 117.499 183.589C116.547 184.539 114.641 184.523 113.859 183.076Z" fill="#C3932F"/>
</mask>
<g mask="url(#mask18_171_24)">
<path d="M113.859 183.076C113.584 182.566 112.999 181.589 113.499 181.589C113.859 181.589 113.999 183.089 115.499 183.089C115.999 183.089 116.235 182.56 115.999 182.089C115.764 181.617 116.342 181.089 116.999 181.089C117.657 181.089 117.999 181.59 117.999 182.089C117.999 182.338 118.037 183.053 117.499 183.589C116.547 184.539 114.641 184.523 113.859 183.076Z" fill="#C3932F"/>
<path d="M119 183.5C118 184 117 185 115.5 184.5C114 184 113.5 183.5 113 182M115 181.5C114.833 181.833 115.6 182.1 116 182.5" stroke="#A97F27" stroke-linecap="round"/>
</g>
</svg>
