<svg width="250" height="171" viewBox="0 0 250 171" fill="none" xmlns="http://www.w3.org/2000/svg">
<mask id="mask0_163_262" style="mask-type:alpha" maskUnits="userSpaceOnUse" x="73" y="36" width="50" height="22">
<path d="M110.303 39.086C95.999 39.086 80.8034 47.5875 78 48.3882C69.9873 51.3882 75.1799 47.7215 77.0118 46.8882C81.5118 44.8882 94.499 37.3882 110.57 36.8882C116.899 36.8882 121.67 41.2839 122.41 47.8774C122.972 52.8795 121.03 55.5204 118.71 56.6688C114.27 58.8667 110.569 57.7678 108.349 55.9362C107.852 55.5257 107.609 54.471 108.349 53.7384C109.089 53.0057 110.061 53.6233 110.569 53.7384C113.056 54.3012 114.88 54.002 116.49 53.0057C118.1 52.0095 119.45 50.0753 119.45 47.8774C119.45 42.4211 115.815 39.086 110.303 39.086Z" fill="#C3932F"/>
</mask>
<g mask="url(#mask0_163_262)">
<path d="M110.303 39.086C95.999 39.086 80.8034 47.5875 78 48.3882C69.9873 51.3882 75.1799 47.7215 77.0118 46.8882C81.5118 44.8882 94.499 37.3882 110.57 36.8882C116.899 36.8882 121.67 41.2839 122.41 47.8774C122.972 52.8795 121.03 55.5204 118.71 56.6688C114.27 58.8667 110.569 57.7678 108.349 55.9362C107.852 55.5257 107.609 54.471 108.349 53.7384C109.089 53.0057 110.061 53.6233 110.569 53.7384C113.056 54.3012 114.88 54.002 116.49 53.0057C118.1 52.0095 119.45 50.0753 119.45 47.8774C119.45 42.4211 115.815 39.086 110.303 39.086Z" fill="#C3932F"/>
<path d="M109.756 39.9885C96.5782 39.9885 82.579 47.6804 79.9963 48.4048C72.6145 51.119 77.3983 47.8016 79.0859 47.0476C83.2316 45.2381 95.1963 38.4524 110.002 38C115.832 38 120.228 41.9771 120.91 47.9427C121.427 52.4683 119.639 54.8578 117.501 55.8968C113.41 57.8853 110.001 56.891 107.956 55.2339C107.498 54.8625 107.274 53.9082 107.956 53.2454C108.638 52.5826 109.533 53.1413 110.001 53.2454C112.292 53.7546 113.972 53.4839 115.456 52.5826C116.939 51.6812 118.183 49.9312 118.183 47.9427C118.183 43.006 114.834 39.9885 109.756 39.9885Z" fill="#A97F27"/>
</g>
<mask id="mask1_163_262" style="mask-type:alpha" maskUnits="userSpaceOnUse" x="0" y="27" width="127" height="26">
<path d="M2 33.3881C3 39.3881 11.8 51.1881 39 50.3881C73 49.3881 98 29.3881 124.5 29.8881" stroke="#C3932F" stroke-width="4" stroke-linecap="round"/>
</mask>
<g mask="url(#mask1_163_262)">
<path d="M2 33.3881C3 39.3881 11.8 51.1881 39 50.3881C73 49.3881 98 29.3881 124.5 29.8881" stroke="#C3932F" stroke-width="4" stroke-linecap="round"/>
<path d="M0 34.0002C1 40.0002 11.8 54.1883 39 53.3883C73 52.3883 100 31.5 126.5 32" stroke="#A97F27" stroke-width="4" stroke-linecap="round"/>
</g>
<mask id="mask2_163_262" style="mask-type:alpha" maskUnits="userSpaceOnUse" x="7" y="0" width="97" height="47">
<path d="M100.663 3.66498C102.684 5.84204 104 9.03267 104 13.3878C104 18.3317 101.3 22.8696 96.9643 26.8752C92.6265 30.8832 86.6021 34.407 79.8232 37.334C66.2661 43.1877 49.5764 46.7029 37.0074 46.8878C23.3687 47.0883 15.8627 44.8372 11.7577 41.8811C7.6117 38.8955 6.99979 35.2413 7 32.8878C7 30.049 7.77472 27.8031 9.05202 26.2569C10.3331 24.7061 12.0986 23.8878 14 23.8878C15.0742 23.8878 16.1769 24.1548 17.0274 24.7218C17.8926 25.2986 18.5 26.1939 18.5 27.3878C18.5 28.5508 18.1496 29.4205 17.5 29.8882C16.8759 30.3375 16.4967 30.3882 16 30.3882C15.7239 30.3882 15 30.3882 14.5 29.8882C14 29.3882 14 28.3882 14.5 27.8882C15 27.3882 13.3692 27.019 12.5 27.8882C12 28.3882 10.5003 29.8882 10.5 33.3882C10.4998 35.5347 10.6959 38.1488 14.5 40.8882C18.3451 43.6571 23.4386 45.5876 37 45.3882C49.4309 45.2054 66 41.3882 79 34.3882C85.5 30.8882 89 27.3882 93 23.3882C97 19.3882 98.1936 16.0908 98.5 13.3882C98.8064 10.6856 98.8995 6.98741 97.5 4.88818C96.4077 3.24968 94.5 1.88818 92.5 1.88818C90 1.88818 88.5 2.88818 87.6469 3.66498C86.7938 4.44178 86 6.38818 87 6.88818C88 7.38818 88 6.38818 89 5.88818C90 5.38818 91 5.38818 92 5.88818C93 6.38818 93.5 7.38818 93.5 7.88818C93.5 8.38818 93.6549 9.70188 92.9269 10.6856C92.1854 11.6876 90.799 12.3881 88.5 12.3881C86.6562 12.3881 85.1479 11.8601 84.0963 10.8786C83.0413 9.8939 82.5 8.50272 82.5 6.88781C82.5 4.53485 83.9247 2.67313 85.9519 1.49477C87.976 0.318168 90.6478 -0.213078 93.3046 0.078518C95.9665 0.370676 98.647 1.49293 100.663 3.66498Z" fill="#C3932F"/>
</mask>
<g mask="url(#mask2_163_262)">
<path d="M100.663 3.66498C102.684 5.84204 104 9.03267 104 13.3878C104 18.3317 101.3 22.8696 96.9643 26.8752C92.6265 30.8832 86.6021 34.407 79.8232 37.334C66.2661 43.1877 49.5764 46.7029 37.0074 46.8878C23.3687 47.0883 15.8627 44.8372 11.7577 41.8811C7.6117 38.8955 6.99979 35.2413 7 32.8878C7 30.049 7.77472 27.8031 9.05202 26.2569C10.3331 24.7061 12.0986 23.8878 14 23.8878C15.0742 23.8878 16.1769 24.1548 17.0274 24.7218C17.8926 25.2986 18.5 26.1939 18.5 27.3878C18.5 28.5508 18.1496 29.4205 17.5 29.8882C16.8759 30.3375 16.4967 30.3882 16 30.3882C15.7239 30.3882 15 30.3882 14.5 29.8882C14 29.3882 14 28.3882 14.5 27.8882C15 27.3882 13.3692 27.019 12.5 27.8882C12 28.3882 10.5003 29.8882 10.5 33.3882C10.4998 35.5347 10.6959 38.1488 14.5 40.8882C18.3451 43.6571 23.4386 45.5876 37 45.3882C49.4309 45.2054 66 41.3882 79 34.3882C85.5 30.8882 89 27.3882 93 23.3882C97 19.3882 98.1936 16.0908 98.5 13.3882C98.8064 10.6856 98.8995 6.98741 97.5 4.88818C96.4077 3.24968 94.5 1.88818 92.5 1.88818C90 1.88818 88.5 2.88818 87.6469 3.66498C86.7938 4.44178 86 6.38818 87 6.88818C88 7.38818 88 6.38818 89 5.88818C90 5.38818 91 5.38818 92 5.88818C93 6.38818 93.5 7.38818 93.5 7.88818C93.5 8.38818 93.6549 9.70188 92.9269 10.6856C92.1854 11.6876 90.799 12.3881 88.5 12.3881C86.6562 12.3881 85.1479 11.8601 84.0963 10.8786C83.0413 9.8939 82.5 8.50272 82.5 6.88781C82.5 4.53485 83.9247 2.67313 85.9519 1.49477C87.976 0.318168 90.6478 -0.213078 93.3046 0.078518C95.9665 0.370676 98.647 1.49293 100.663 3.66498Z" fill="#C3932F"/>
<path d="M102.5 3.5C104.521 5.67706 105.625 9.5 104.5 14C103 20 100.835 22.4943 96.5 26.5C92.1622 30.5079 86.6021 34.407 79.8232 37.334C66.2661 43.1877 49.5691 46.8152 37 47C23.3614 47.2006 15.8627 44.8372 11.7577 41.8811C7.6117 38.8955 5.99979 35.3535 6 33M97.5 7.5C97.6667 5.83333 96.8 2 92 2C88 2 86.6667 4.5 87 5.5M81.5 8C82.5 9.33333 85.3 12 88.5 12C92.5 12 94.5 9.5 94.5 9" stroke="#A97F27" stroke-width="2" stroke-linecap="round"/>
<path d="M11.5001 31.5C11.0005 28.9996 13.0003 26.0002 14.5003 27.5M13.5 29.5C13.9999 30.5 16.5 31.1 18.5 29.5" stroke="#A97F27" stroke-linecap="round"/>
</g>
<mask id="mask3_163_262" style="mask-type:alpha" maskUnits="userSpaceOnUse" x="5" y="21" width="19" height="15">
<path fill-rule="evenodd" clip-rule="evenodd" d="M14.8202 22.8882C9.1107 22.8882 7.10038 26.1686 6.47448 28.0463C6.38715 28.3083 6.10399 28.4498 5.84202 28.3625C5.58005 28.2752 5.43847 27.992 5.52579 27.7301C6.23323 25.6078 8.70966 21.3882 15.0001 21.3882C19.2763 21.3882 22.5 24.3882 23 28.8882C23.3793 32.302 22.0675 34.1044 20.5 34.8882C17.5 36.3882 15 35.6382 13.5 34.3882C13.1638 34.108 13 33.3882 13.5 32.8882C14 32.3882 14.6567 32.8097 15 32.8882C16.6798 33.2723 17.9121 33.0681 19 32.3882C20.0879 31.7083 21 30.3882 21 28.8882C21 25.1643 18.5441 22.8882 14.8202 22.8882Z" fill="#C3932F"/>
</mask>
<g mask="url(#mask3_163_262)">
<path fill-rule="evenodd" clip-rule="evenodd" d="M14.8202 22.8882C9.1107 22.8882 7.10038 26.1686 6.47448 28.0463C6.38715 28.3083 6.10399 28.4498 5.84202 28.3625C5.58005 28.2752 5.43847 27.992 5.52579 27.7301C6.23323 25.6078 8.70966 21.3882 15.0001 21.3882C19.2763 21.3882 22.5 24.3882 23 28.8882C23.3793 32.302 22.0675 34.1044 20.5 34.8882C17.5 36.3882 15 35.6382 13.5 34.3882C13.1638 34.108 13 33.3882 13.5 32.8882C14 32.3882 14.6567 32.8097 15 32.8882C16.6798 33.2723 17.9121 33.0681 19 32.3882C20.0879 31.7083 21 30.3882 21 28.8882C21 25.1643 18.5441 22.8882 14.8202 22.8882Z" fill="#C3932F"/>
<path d="M23.5 33C21.1667 34.5 15.7 36.8 12.5 34M20.5 29.5C20.5 26 19.5 23 15 23C10 23 7 25 6.5 29" stroke="#A97F27" stroke-linecap="round"/>
</g>
<mask id="mask4_163_262" style="mask-type:alpha" maskUnits="userSpaceOnUse" x="8" y="17" width="6" height="4">
<path d="M12.6405 18.8992C12.916 19.4093 13.5006 20.3868 13.0006 20.3868C12.6405 20.3868 12.5006 18.8868 11.0006 18.8868C10.5006 18.8868 10.2648 19.4152 10.5006 19.8868C10.7363 20.3583 10.1582 20.8868 9.50057 20.8868C8.8429 20.8868 8.50057 20.3854 8.50057 19.8868C8.50057 19.6373 8.46331 18.9226 9.00057 18.3868C9.95271 17.4361 11.8592 17.4523 12.6405 18.8992Z" fill="#C3932F"/>
</mask>
<g mask="url(#mask4_163_262)">
<path d="M12.6405 18.8992C12.916 19.4093 13.5006 20.3868 13.0006 20.3868C12.6405 20.3868 12.5006 18.8868 11.0006 18.8868C10.5006 18.8868 10.2648 19.4152 10.5006 19.8868C10.7363 20.3583 10.1582 20.8868 9.50057 20.8868C8.8429 20.8868 8.50057 20.3854 8.50057 19.8868C8.50057 19.6373 8.46331 18.9226 9.00057 18.3868C9.95271 17.4361 11.8592 17.4523 12.6405 18.8992Z" fill="#C3932F"/>
<path d="M8 20.5001C8.5 21.5001 9.99993 21.4999 10.5 20.4999C11 19.5 10.5 17.4999 12 20" stroke="#A97F27" stroke-linecap="round"/>
</g>
<mask id="mask5_163_262" style="mask-type:alpha" maskUnits="userSpaceOnUse" x="126" y="36" width="50" height="22">
<path d="M139.197 39.086C153.501 39.086 168.697 47.5875 171.5 48.3882C179.513 51.3882 174.32 47.7215 172.488 46.8882C167.988 44.8882 155.001 37.3882 138.93 36.8882C132.601 36.8882 127.83 41.2839 127.09 47.8774C126.528 52.8795 128.47 55.5204 130.79 56.6688C135.23 58.8667 138.931 57.7678 141.151 55.9362C141.648 55.5257 141.891 54.471 141.151 53.7384C140.411 53.0057 139.439 53.6233 138.931 53.7384C136.444 54.3012 134.62 54.002 133.01 53.0057C131.4 52.0095 130.05 50.0753 130.05 47.8774C130.05 42.4211 133.685 39.086 139.197 39.086Z" fill="#C3932F"/>
</mask>
<g mask="url(#mask5_163_262)">
<path d="M139.197 39.086C153.501 39.086 168.697 47.5875 171.5 48.3882C179.513 51.3882 174.32 47.7215 172.488 46.8882C167.988 44.8882 155.001 37.3882 138.93 36.8882C132.601 36.8882 127.83 41.2839 127.09 47.8774C126.528 52.8795 128.47 55.5204 130.79 56.6688C135.23 58.8667 138.931 57.7678 141.151 55.9362C141.648 55.5257 141.891 54.471 141.151 53.7384C140.411 53.0057 139.439 53.6233 138.931 53.7384C136.444 54.3012 134.62 54.002 133.01 53.0057C131.4 52.0095 130.05 50.0753 130.05 47.8774C130.05 42.4211 133.685 39.086 139.197 39.086Z" fill="#C3932F"/>
<path d="M139.744 39.9885C152.922 39.9885 166.921 47.6804 169.504 48.4048C176.885 51.119 172.102 47.8016 170.414 47.0476C166.268 45.2381 154.304 38.4524 139.498 38C133.668 38 129.272 41.9771 128.59 47.9427C128.073 52.4683 129.861 54.8578 131.999 55.8968C136.09 57.8853 139.499 56.891 141.544 55.2339C142.002 54.8625 142.226 53.9082 141.544 53.2454C140.862 52.5826 139.967 53.1413 139.499 53.2454C137.208 53.7546 135.528 53.4839 134.044 52.5826C132.561 51.6812 131.317 49.9312 131.317 47.9427C131.317 43.006 134.666 39.9885 139.744 39.9885Z" fill="#A97F27"/>
</g>
<mask id="mask6_163_262" style="mask-type:alpha" maskUnits="userSpaceOnUse" x="123" y="27" width="127" height="26">
<path d="M247.5 33.3881C246.5 39.3881 237.7 51.1881 210.5 50.3881C176.5 49.3881 151.5 29.3881 125 29.8881" stroke="#C3932F" stroke-width="4" stroke-linecap="round"/>
</mask>
<g mask="url(#mask6_163_262)">
<path d="M247.5 33.3881C246.5 39.3881 237.7 51.1881 210.5 50.3881C176.5 49.3881 151.5 29.3881 125 29.8881" stroke="#C3932F" stroke-width="4" stroke-linecap="round"/>
<path d="M249.5 34.0002C248.5 40.0002 237.7 54.1883 210.5 53.3883C176.5 52.3883 149.5 31.5 123 32" stroke="#A97F27" stroke-width="4" stroke-linecap="round"/>
</g>
<mask id="mask7_163_262" style="mask-type:alpha" maskUnits="userSpaceOnUse" x="145" y="0" width="98" height="47">
<path d="M148.837 3.66498C146.816 5.84204 145.5 9.03267 145.5 13.3878C145.5 18.3317 148.2 22.8696 152.536 26.8752C156.874 30.8832 162.898 34.407 169.677 37.334C183.234 43.1877 199.924 46.7029 212.493 46.8878C226.131 47.0883 233.637 44.8372 237.742 41.8811C241.888 38.8955 242.5 35.2413 242.5 32.8878C242.5 30.049 241.725 27.8031 240.448 26.2569C239.167 24.7061 237.401 23.8878 235.5 23.8878C234.426 23.8878 233.323 24.1548 232.473 24.7218C231.607 25.2986 231 26.1939 231 27.3878C231 28.5508 231.35 29.4205 232 29.8882C232.624 30.3375 233.003 30.3882 233.5 30.3882C233.776 30.3882 234.5 30.3882 235 29.8882C235.5 29.3882 235.5 28.3882 235 27.8882C234.5 27.3882 236.131 27.019 237 27.8882C237.5 28.3882 239 29.8882 239 33.3882C239 35.5347 238.804 38.1488 235 40.8882C231.155 43.6571 226.061 45.5876 212.5 45.3882C200.069 45.2054 183.5 41.3882 170.5 34.3882C164 30.8882 160.5 27.3882 156.5 23.3882C152.5 19.3882 151.306 16.0908 151 13.3882C150.694 10.6856 150.601 6.98741 152 4.88818C153.092 3.24968 155 1.88818 157 1.88818C159.5 1.88818 161 2.88818 161.853 3.66498C162.706 4.44178 163.5 6.38818 162.5 6.88818C161.5 7.38818 161.5 6.38818 160.5 5.88818C159.5 5.38818 158.5 5.38818 157.5 5.88818C156.5 6.38818 156 7.38818 156 7.88818C156 8.38818 155.845 9.70188 156.573 10.6856C157.315 11.6876 158.701 12.3881 161 12.3881C162.844 12.3881 164.352 11.8601 165.404 10.8786C166.459 9.8939 167 8.50272 167 6.88781C167 4.53485 165.575 2.67313 163.548 1.49477C161.524 0.318168 158.852 -0.213078 156.195 0.078518C153.534 0.370676 150.853 1.49293 148.837 3.66498Z" fill="#C3932F"/>
</mask>
<g mask="url(#mask7_163_262)">
<path d="M148.837 3.66498C146.816 5.84204 145.5 9.03267 145.5 13.3878C145.5 18.3317 148.2 22.8696 152.536 26.8752C156.874 30.8832 162.898 34.407 169.677 37.334C183.234 43.1877 199.924 46.7029 212.493 46.8878C226.131 47.0883 233.637 44.8372 237.742 41.8811C241.888 38.8955 242.5 35.2413 242.5 32.8878C242.5 30.049 241.725 27.8031 240.448 26.2569C239.167 24.7061 237.401 23.8878 235.5 23.8878C234.426 23.8878 233.323 24.1548 232.473 24.7218C231.607 25.2986 231 26.1939 231 27.3878C231 28.5508 231.35 29.4205 232 29.8882C232.624 30.3375 233.003 30.3882 233.5 30.3882C233.776 30.3882 234.5 30.3882 235 29.8882C235.5 29.3882 235.5 28.3882 235 27.8882C234.5 27.3882 236.131 27.019 237 27.8882C237.5 28.3882 239 29.8882 239 33.3882C239 35.5347 238.804 38.1488 235 40.8882C231.155 43.6571 226.061 45.5876 212.5 45.3882C200.069 45.2054 183.5 41.3882 170.5 34.3882C164 30.8882 160.5 27.3882 156.5 23.3882C152.5 19.3882 151.306 16.0908 151 13.3882C150.694 10.6856 150.601 6.98741 152 4.88818C153.092 3.24968 155 1.88818 157 1.88818C159.5 1.88818 161 2.88818 161.853 3.66498C162.706 4.44178 163.5 6.38818 162.5 6.88818C161.5 7.38818 161.5 6.38818 160.5 5.88818C159.5 5.38818 158.5 5.38818 157.5 5.88818C156.5 6.38818 156 7.38818 156 7.88818C156 8.38818 155.845 9.70188 156.573 10.6856C157.315 11.6876 158.701 12.3881 161 12.3881C162.844 12.3881 164.352 11.8601 165.404 10.8786C166.459 9.8939 167 8.50272 167 6.88781C167 4.53485 165.575 2.67313 163.548 1.49477C161.524 0.318168 158.852 -0.213078 156.195 0.078518C153.534 0.370676 150.853 1.49293 148.837 3.66498Z" fill="#C3932F"/>
<path d="M147 3.5C144.979 5.67706 143.875 9.5 145 14C146.5 20 148.665 22.4943 153 26.5C157.338 30.5079 162.898 34.407 169.677 37.334C183.234 43.1877 199.931 46.8152 212.5 47C226.139 47.2006 233.637 44.8372 237.742 41.8811C241.888 38.8955 243.5 35.3535 243.5 33M152 7.5C151.833 5.83333 152.7 2 157.5 2C161.5 2 162.833 4.5 162.5 5.5M168 8C167 9.33333 164.2 12 161 12C157 12 155 9.5 155 9" stroke="#A97F27" stroke-width="2" stroke-linecap="round"/>
<path d="M238 31.5C238.5 28.9996 236.5 26.0002 235 27.5M236 29.5C235.5 30.5 233 31.1 231 29.5" stroke="#A97F27" stroke-linecap="round"/>
</g>
<mask id="mask8_163_262" style="mask-type:alpha" maskUnits="userSpaceOnUse" x="226" y="21" width="18" height="15">
<path fill-rule="evenodd" clip-rule="evenodd" d="M234.68 22.8882C240.389 22.8882 242.4 26.1686 243.026 28.0463C243.113 28.3083 243.396 28.4498 243.658 28.3625C243.92 28.2752 244.062 27.992 243.974 27.7301C243.267 25.6078 240.79 21.3882 234.5 21.3882C230.224 21.3882 227 24.3882 226.5 28.8882C226.121 32.302 227.432 34.1044 229 34.8882C232 36.3882 234.5 35.6382 236 34.3882C236.336 34.108 236.5 33.3882 236 32.8882C235.5 32.3882 234.843 32.8097 234.5 32.8882C232.82 33.2723 231.588 33.0681 230.5 32.3882C229.412 31.7083 228.5 30.3882 228.5 28.8882C228.5 25.1643 230.956 22.8882 234.68 22.8882Z" fill="#C3932F"/>
</mask>
<g mask="url(#mask8_163_262)">
<path fill-rule="evenodd" clip-rule="evenodd" d="M234.68 22.8882C240.389 22.8882 242.4 26.1686 243.026 28.0463C243.113 28.3083 243.396 28.4498 243.658 28.3625C243.92 28.2752 244.062 27.992 243.974 27.7301C243.267 25.6078 240.79 21.3882 234.5 21.3882C230.224 21.3882 227 24.3882 226.5 28.8882C226.121 32.302 227.432 34.1044 229 34.8882C232 36.3882 234.5 35.6382 236 34.3882C236.336 34.108 236.5 33.3882 236 32.8882C235.5 32.3882 234.843 32.8097 234.5 32.8882C232.82 33.2723 231.588 33.0681 230.5 32.3882C229.412 31.7083 228.5 30.3882 228.5 28.8882C228.5 25.1643 230.956 22.8882 234.68 22.8882Z" fill="#C3932F"/>
<path d="M226 33C228.333 34.5 233.8 36.8 237 34M229 29.5C229 26 230 23 234.5 23C239.5 23 242.5 25 243 29" stroke="#A97F27" stroke-linecap="round"/>
</g>
<mask id="mask9_163_262" style="mask-type:alpha" maskUnits="userSpaceOnUse" x="236" y="17" width="5" height="4">
<path d="M236.859 18.8992C236.584 19.4093 235.999 20.3868 236.499 20.3868C236.859 20.3868 236.999 18.8868 238.499 18.8868C238.999 18.8868 239.235 19.4152 238.999 19.8868C238.764 20.3583 239.342 20.8868 239.999 20.8868C240.657 20.8868 240.999 20.3854 240.999 19.8868C240.999 19.6373 241.037 18.9226 240.499 18.3868C239.547 17.4361 237.641 17.4523 236.859 18.8992Z" fill="#C3932F"/>
</mask>
<g mask="url(#mask9_163_262)">
<path d="M236.859 18.8992C236.584 19.4093 235.999 20.3868 236.499 20.3868C236.859 20.3868 236.999 18.8868 238.499 18.8868C238.999 18.8868 239.235 19.4152 238.999 19.8868C238.764 20.3583 239.342 20.8868 239.999 20.8868C240.657 20.8868 240.999 20.3854 240.999 19.8868C240.999 19.6373 241.037 18.9226 240.499 18.3868C239.547 17.4361 237.641 17.4523 236.859 18.8992Z" fill="#C3932F"/>
<path d="M241.5 20.5001C241 21.5001 239.5 21.4999 239 20.4999C238.5 19.5 239 17.4999 237.5 20" stroke="#A97F27" stroke-linecap="round"/>
</g>
<mask id="mask10_163_262" style="mask-type:alpha" maskUnits="userSpaceOnUse" x="126" y="113" width="50" height="21">
<path d="M139.197 131.802C153.501 131.802 168.697 123.301 171.5 122.5C179.513 119.5 174.32 123.167 172.488 124C167.988 126 155.001 133.5 138.93 134C132.601 134 127.83 129.604 127.09 123.011C126.528 118.009 128.47 115.368 130.79 114.219C135.23 112.022 138.931 113.12 141.151 114.952C141.648 115.362 141.891 116.417 141.151 117.15C140.411 117.882 139.439 117.265 138.931 117.15C136.444 116.587 134.62 116.886 133.01 117.882C131.4 118.879 130.05 120.813 130.05 123.011C130.05 128.467 133.685 131.802 139.197 131.802Z" fill="#C3932F"/>
</mask>
<g mask="url(#mask10_163_262)">
<path d="M139.197 131.802C153.501 131.802 168.697 123.301 171.5 122.5C179.513 119.5 174.32 123.167 172.488 124C167.988 126 155.001 133.5 138.93 134C132.601 134 127.83 129.604 127.09 123.011C126.528 118.009 128.47 115.368 130.79 114.219C135.23 112.022 138.931 113.12 141.151 114.952C141.648 115.362 141.891 116.417 141.151 117.15C140.411 117.882 139.439 117.265 138.931 117.15C136.444 116.587 134.62 116.886 133.01 117.882C131.4 118.879 130.05 120.813 130.05 123.011C130.05 128.467 133.685 131.802 139.197 131.802Z" fill="#C3932F"/>
<path d="M139.744 130.9C152.922 130.9 166.921 123.208 169.504 122.483C176.885 119.769 172.102 123.087 170.414 123.841C166.268 125.65 154.304 132.436 139.498 132.888C133.668 132.888 129.272 128.911 128.59 122.946C128.073 118.42 129.861 116.03 131.999 114.991C136.09 113.003 139.499 113.997 141.544 115.654C142.002 116.026 142.226 116.98 141.544 117.643C140.862 118.306 139.967 117.747 139.499 117.643C137.208 117.134 135.528 117.404 134.044 118.306C132.561 119.207 131.317 120.957 131.317 122.946C131.317 127.882 134.666 130.9 139.744 130.9Z" fill="#A97F27"/>
</g>
<mask id="mask11_163_262" style="mask-type:alpha" maskUnits="userSpaceOnUse" x="123" y="118" width="127" height="26">
<path d="M247.5 137.5C246.5 131.5 237.7 119.7 210.5 120.5C176.5 121.5 151.5 141.5 125 141" stroke="#C3932F" stroke-width="4" stroke-linecap="round"/>
</mask>
<g mask="url(#mask11_163_262)">
<path d="M247.5 137.5C246.5 131.5 237.7 119.7 210.5 120.5C176.5 121.5 151.5 141.5 125 141" stroke="#C3932F" stroke-width="4" stroke-linecap="round"/>
<path d="M249.5 136.888C248.5 130.888 237.7 116.7 210.5 117.5C176.5 118.5 149.5 139.388 123 138.888" stroke="#A97F27" stroke-width="4" stroke-linecap="round"/>
</g>
<mask id="mask12_163_262" style="mask-type:alpha" maskUnits="userSpaceOnUse" x="145" y="123" width="98" height="48">
<path d="M148.837 167.223C146.816 165.046 145.5 161.856 145.5 157.5C145.5 152.556 148.2 148.019 152.536 144.013C156.874 140.005 162.898 136.481 169.677 133.554C183.234 127.7 199.924 124.185 212.493 124C226.131 123.8 233.637 126.051 237.742 129.007C241.888 131.993 242.5 135.647 242.5 138C242.5 140.839 241.725 143.085 240.448 144.631C239.167 146.182 237.401 147 235.5 147C234.426 147 233.323 146.733 232.473 146.166C231.607 145.59 231 144.694 231 143.5C231 142.337 231.35 141.468 232 141C232.624 140.551 233.003 140.5 233.5 140.5C233.776 140.5 234.5 140.5 235 141C235.5 141.5 235.5 142.5 235 143C234.5 143.5 236.131 143.869 237 143C237.5 142.5 239 141 239 137.5C239 135.354 238.804 132.739 235 130C231.155 127.231 226.061 125.301 212.5 125.5C200.069 125.683 183.5 129.5 170.5 136.5C164 140 160.5 143.5 156.5 147.5C152.5 151.5 151.306 154.797 151 157.5C150.694 160.203 150.601 163.901 152 166C153.092 167.638 155 169 157 169C159.5 169 161 168 161.853 167.223C162.706 166.446 163.5 164.5 162.5 164C161.5 163.5 161.5 164.5 160.5 165C159.5 165.5 158.5 165.5 157.5 165C156.5 164.5 156 163.5 156 163C156 162.5 155.845 161.186 156.573 160.203C157.315 159.201 158.701 158.5 161 158.5C162.844 158.5 164.352 159.028 165.404 160.01C166.459 160.994 167 162.385 167 164C167 166.353 165.575 168.215 163.548 169.393C161.524 170.57 158.852 171.101 156.195 170.81C153.534 170.518 150.853 169.395 148.837 167.223Z" fill="#C3932F"/>
</mask>
<g mask="url(#mask12_163_262)">
<path d="M148.837 167.223C146.816 165.046 145.5 161.856 145.5 157.5C145.5 152.556 148.2 148.019 152.536 144.013C156.874 140.005 162.898 136.481 169.677 133.554C183.234 127.7 199.924 124.185 212.493 124C226.131 123.8 233.637 126.051 237.742 129.007C241.888 131.993 242.5 135.647 242.5 138C242.5 140.839 241.725 143.085 240.448 144.631C239.167 146.182 237.401 147 235.5 147C234.426 147 233.323 146.733 232.473 146.166C231.607 145.59 231 144.694 231 143.5C231 142.337 231.35 141.468 232 141C232.624 140.551 233.003 140.5 233.5 140.5C233.776 140.5 234.5 140.5 235 141C235.5 141.5 235.5 142.5 235 143C234.5 143.5 236.131 143.869 237 143C237.5 142.5 239 141 239 137.5C239 135.354 238.804 132.739 235 130C231.155 127.231 226.061 125.301 212.5 125.5C200.069 125.683 183.5 129.5 170.5 136.5C164 140 160.5 143.5 156.5 147.5C152.5 151.5 151.306 154.797 151 157.5C150.694 160.203 150.601 163.901 152 166C153.092 167.638 155 169 157 169C159.5 169 161 168 161.853 167.223C162.706 166.446 163.5 164.5 162.5 164C161.5 163.5 161.5 164.5 160.5 165C159.5 165.5 158.5 165.5 157.5 165C156.5 164.5 156 163.5 156 163C156 162.5 155.845 161.186 156.573 160.203C157.315 159.201 158.701 158.5 161 158.5C162.844 158.5 164.352 159.028 165.404 160.01C166.459 160.994 167 162.385 167 164C167 166.353 165.575 168.215 163.548 169.393C161.524 170.57 158.852 171.101 156.195 170.81C153.534 170.518 150.853 169.395 148.837 167.223Z" fill="#C3932F"/>
<path d="M147 167.388C144.979 165.211 143.875 161.388 145 156.888C146.5 150.888 148.665 148.394 153 144.388C157.338 140.38 162.898 136.481 169.677 133.554C183.234 127.7 199.931 124.073 212.5 123.888C226.139 123.688 233.637 126.051 237.742 129.007C241.888 131.993 243.5 135.535 243.5 137.888M152 163.388C151.833 165.055 152.7 168.888 157.5 168.888C161.5 168.888 162.833 166.388 162.5 165.388M168 162.888C167 161.555 164.2 158.888 161 158.888C157 158.888 155 161.388 155 161.888" stroke="#A97F27" stroke-width="2" stroke-linecap="round"/>
<path d="M238 139.388C238.5 141.889 236.5 144.888 235 143.388M236 141.388C235.5 140.388 233 139.788 231 141.388" stroke="#A97F27" stroke-linecap="round"/>
</g>
<mask id="mask13_163_262" style="mask-type:alpha" maskUnits="userSpaceOnUse" x="226" y="135" width="18" height="15">
<path fill-rule="evenodd" clip-rule="evenodd" d="M234.68 148C240.389 148 242.4 144.72 243.026 142.842C243.113 142.58 243.396 142.438 243.658 142.526C243.92 142.613 244.062 142.896 243.974 143.158C243.267 145.28 240.79 149.5 234.5 149.5C230.224 149.5 227 146.5 226.5 142C226.121 138.586 227.432 136.784 229 136C232 134.5 234.5 135.25 236 136.5C236.336 136.78 236.5 137.5 236 138C235.5 138.5 234.843 138.078 234.5 138C232.82 137.616 231.588 137.82 230.5 138.5C229.412 139.18 228.5 140.5 228.5 142C228.5 145.724 230.956 148 234.68 148Z" fill="#C3932F"/>
</mask>
<g mask="url(#mask13_163_262)">
<path fill-rule="evenodd" clip-rule="evenodd" d="M234.68 148C240.389 148 242.4 144.72 243.026 142.842C243.113 142.58 243.396 142.438 243.658 142.526C243.92 142.613 244.062 142.896 243.974 143.158C243.267 145.28 240.79 149.5 234.5 149.5C230.224 149.5 227 146.5 226.5 142C226.121 138.586 227.432 136.784 229 136C232 134.5 234.5 135.25 236 136.5C236.336 136.78 236.5 137.5 236 138C235.5 138.5 234.843 138.078 234.5 138C232.82 137.616 231.588 137.82 230.5 138.5C229.412 139.18 228.5 140.5 228.5 142C228.5 145.724 230.956 148 234.68 148Z" fill="#C3932F"/>
<path d="M226 137.888C228.333 136.388 233.8 134.088 237 136.888M229 141.388C229 144.888 230 147.888 234.5 147.888C239.5 147.888 242.5 145.888 243 141.888" stroke="#A97F27" stroke-linecap="round"/>
</g>
<mask id="mask14_163_262" style="mask-type:alpha" maskUnits="userSpaceOnUse" x="236" y="150" width="5" height="4">
<path d="M236.859 151.989C236.584 151.479 235.999 150.501 236.499 150.501C236.859 150.501 236.999 152.001 238.499 152.001C238.999 152.001 239.235 151.473 238.999 151.001C238.764 150.53 239.342 150.001 239.999 150.001C240.657 150.001 240.999 150.503 240.999 151.001C240.999 151.251 241.037 151.966 240.499 152.501C239.547 153.452 237.641 153.436 236.859 151.989Z" fill="#C3932F"/>
</mask>
<g mask="url(#mask14_163_262)">
<path d="M236.859 151.989C236.584 151.479 235.999 150.501 236.499 150.501C236.859 150.501 236.999 152.001 238.499 152.001C238.999 152.001 239.235 151.473 238.999 151.001C238.764 150.53 239.342 150.001 239.999 150.001C240.657 150.001 240.999 150.503 240.999 151.001C240.999 151.251 241.037 151.966 240.499 152.501C239.547 153.452 237.641 153.436 236.859 151.989Z" fill="#C3932F"/>
<path d="M241.5 150.388C241 149.388 239.5 149.388 239 150.388C238.5 151.388 239 153.388 237.5 150.888" stroke="#A97F27" stroke-linecap="round"/>
</g>
<mask id="mask15_163_262" style="mask-type:alpha" maskUnits="userSpaceOnUse" x="73" y="113" width="50" height="21">
<path d="M110.303 131.802C95.999 131.802 80.8034 123.301 78 122.5C69.9873 119.5 75.1799 123.167 77.0118 124C81.5118 126 94.499 133.5 110.57 134C116.899 134 121.67 129.604 122.41 123.011C122.972 118.009 121.03 115.368 118.71 114.219C114.27 112.022 110.569 113.12 108.349 114.952C107.852 115.362 107.609 116.417 108.349 117.15C109.089 117.882 110.061 117.265 110.569 117.15C113.056 116.587 114.88 116.886 116.49 117.882C118.1 118.879 119.45 120.813 119.45 123.011C119.45 128.467 115.815 131.802 110.303 131.802Z" fill="#C3932F"/>
</mask>
<g mask="url(#mask15_163_262)">
<path d="M110.303 131.802C95.999 131.802 80.8034 123.301 78 122.5C69.9873 119.5 75.1799 123.167 77.0118 124C81.5118 126 94.499 133.5 110.57 134C116.899 134 121.67 129.604 122.41 123.011C122.972 118.009 121.03 115.368 118.71 114.219C114.27 112.022 110.569 113.12 108.349 114.952C107.852 115.362 107.609 116.417 108.349 117.15C109.089 117.882 110.061 117.265 110.569 117.15C113.056 116.587 114.88 116.886 116.49 117.882C118.1 118.879 119.45 120.813 119.45 123.011C119.45 128.467 115.815 131.802 110.303 131.802Z" fill="#C3932F"/>
<path d="M109.756 130.9C96.5782 130.9 82.579 123.208 79.9963 122.483C72.6145 119.769 77.3983 123.087 79.0859 123.841C83.2316 125.65 95.1963 132.436 110.002 132.888C115.832 132.888 120.228 128.911 120.91 122.946C121.427 118.42 119.639 116.03 117.501 114.991C113.41 113.003 110.001 113.997 107.956 115.654C107.498 116.026 107.274 116.98 107.956 117.643C108.638 118.306 109.533 117.747 110.001 117.643C112.292 117.134 113.972 117.404 115.456 118.306C116.939 119.207 118.183 120.957 118.183 122.946C118.183 127.882 114.834 130.9 109.756 130.9Z" fill="#A97F27"/>
</g>
<mask id="mask16_163_262" style="mask-type:alpha" maskUnits="userSpaceOnUse" x="0" y="118" width="127" height="26">
<path d="M2 137.5C3 131.5 11.8 119.7 39 120.5C73 121.5 98 141.5 124.5 141" stroke="#C3932F" stroke-width="4" stroke-linecap="round"/>
</mask>
<g mask="url(#mask16_163_262)">
<path d="M2 137.5C3 131.5 11.8 119.7 39 120.5C73 121.5 98 141.5 124.5 141" stroke="#C3932F" stroke-width="4" stroke-linecap="round"/>
<path d="M1.7563e-07 136.888C1 130.888 11.8 116.7 39 117.5C73 118.5 100 139.388 126.5 138.888" stroke="#A97F27" stroke-width="4" stroke-linecap="round"/>
</g>
<mask id="mask17_163_262" style="mask-type:alpha" maskUnits="userSpaceOnUse" x="7" y="123" width="97" height="48">
<path d="M100.663 167.223C102.684 165.046 104 161.856 104 157.5C104 152.556 101.3 148.019 96.9643 144.013C92.6265 140.005 86.6021 136.481 79.8232 133.554C66.2661 127.7 49.5764 124.185 37.0074 124C23.3687 123.8 15.8627 126.051 11.7577 129.007C7.6117 131.993 6.99979 135.647 7 138C7 140.839 7.77472 143.085 9.05202 144.631C10.3331 146.182 12.0986 147 14 147C15.0742 147 16.1769 146.733 17.0274 146.166C17.8926 145.59 18.5 144.694 18.5 143.5C18.5 142.337 18.1496 141.468 17.5 141C16.8759 140.551 16.4967 140.5 16 140.5C15.7239 140.5 15 140.5 14.5 141C14 141.5 14 142.5 14.5 143C15 143.5 13.3692 143.869 12.5 143C12 142.5 10.5003 141 10.5 137.5C10.4998 135.354 10.6959 132.739 14.5 130C18.3451 127.231 23.4387 125.301 37 125.5C49.4309 125.683 66 129.5 79 136.5C85.5 140 89 143.5 93 147.5C97 151.5 98.1936 154.797 98.5 157.5C98.8064 160.203 98.8995 163.901 97.5 166C96.4077 167.639 94.5 169 92.5 169C90 169 88.5 168 87.6469 167.223C86.7938 166.446 86 164.5 87 164C88 163.5 88 164.5 89 165C90 165.5 91 165.5 92 165C93 164.5 93.5 163.5 93.5 163C93.5 162.5 93.6549 161.186 92.9269 160.203C92.1854 159.201 90.799 158.5 88.5 158.5C86.6562 158.5 85.1479 159.028 84.0963 160.01C83.0413 160.994 82.5 162.385 82.5 164C82.5 166.353 83.9247 168.215 85.9519 169.393C87.976 170.57 90.6478 171.101 93.3046 170.81C95.9665 170.518 98.647 169.395 100.663 167.223Z" fill="#C3932F"/>
</mask>
<g mask="url(#mask17_163_262)">
<path d="M100.663 167.223C102.684 165.046 104 161.856 104 157.5C104 152.556 101.3 148.019 96.9643 144.013C92.6265 140.005 86.6021 136.481 79.8232 133.554C66.2661 127.7 49.5764 124.185 37.0074 124C23.3687 123.8 15.8627 126.051 11.7577 129.007C7.6117 131.993 6.99979 135.647 7 138C7 140.839 7.77472 143.085 9.05202 144.631C10.3331 146.182 12.0986 147 14 147C15.0742 147 16.1769 146.733 17.0274 146.166C17.8926 145.59 18.5 144.694 18.5 143.5C18.5 142.337 18.1496 141.468 17.5 141C16.8759 140.551 16.4967 140.5 16 140.5C15.7239 140.5 15 140.5 14.5 141C14 141.5 14 142.5 14.5 143C15 143.5 13.3692 143.869 12.5 143C12 142.5 10.5003 141 10.5 137.5C10.4998 135.354 10.6959 132.739 14.5 130C18.3451 127.231 23.4387 125.301 37 125.5C49.4309 125.683 66 129.5 79 136.5C85.5 140 89 143.5 93 147.5C97 151.5 98.1936 154.797 98.5 157.5C98.8064 160.203 98.8995 163.901 97.5 166C96.4077 167.639 94.5 169 92.5 169C90 169 88.5 168 87.6469 167.223C86.7938 166.446 86 164.5 87 164C88 163.5 88 164.5 89 165C90 165.5 91 165.5 92 165C93 164.5 93.5 163.5 93.5 163C93.5 162.5 93.6549 161.186 92.9269 160.203C92.1854 159.201 90.799 158.5 88.5 158.5C86.6562 158.5 85.1479 159.028 84.0963 160.01C83.0413 160.994 82.5 162.385 82.5 164C82.5 166.353 83.9247 168.215 85.9519 169.393C87.976 170.57 90.6478 171.101 93.3046 170.81C95.9665 170.518 98.647 169.395 100.663 167.223Z" fill="#C3932F"/>
<path d="M102.5 167.388C104.521 165.211 105.625 161.388 104.5 156.888C103 150.888 100.835 148.394 96.5 144.388C92.1622 140.38 86.6021 136.481 79.8232 133.554C66.2661 127.7 49.5691 124.073 37 123.888C23.3614 123.688 15.8627 126.051 11.7577 129.007C7.6117 131.993 5.99979 135.535 6 137.888M97.5 163.388C97.6667 165.055 96.8 168.888 92 168.888C88 168.888 86.6667 166.388 87 165.388M81.5 162.888C82.5 161.555 85.3 158.888 88.5 158.888C92.5 158.888 94.5 161.388 94.5 161.888" stroke="#A97F27" stroke-width="2" stroke-linecap="round"/>
<path d="M11.5001 139.388C11.0005 141.889 13.0003 144.888 14.5003 143.388M13.5 141.388C13.9999 140.388 16.5 139.788 18.5 141.388" stroke="#A97F27" stroke-linecap="round"/>
</g>
<mask id="mask18_163_262" style="mask-type:alpha" maskUnits="userSpaceOnUse" x="5" y="135" width="19" height="15">
<path fill-rule="evenodd" clip-rule="evenodd" d="M14.8202 148C9.1107 148 7.10038 144.72 6.47448 142.842C6.38715 142.58 6.10399 142.438 5.84202 142.526C5.58005 142.613 5.43847 142.896 5.52579 143.158C6.23323 145.28 8.70966 149.5 15.0001 149.5C19.2763 149.5 22.5 146.5 23 142C23.3793 138.586 22.0675 136.784 20.5 136C17.5 134.5 15 135.25 13.5 136.5C13.1638 136.78 13 137.5 13.5 138C14 138.5 14.6567 138.078 15 138C16.6798 137.616 17.9121 137.82 19 138.5C20.0879 139.18 21 140.5 21 142C21 145.724 18.5441 148 14.8202 148Z" fill="#C3932F"/>
</mask>
<g mask="url(#mask18_163_262)">
<path fill-rule="evenodd" clip-rule="evenodd" d="M14.8202 148C9.1107 148 7.10038 144.72 6.47448 142.842C6.38715 142.58 6.10399 142.438 5.84202 142.526C5.58005 142.613 5.43847 142.896 5.52579 143.158C6.23323 145.28 8.70966 149.5 15.0001 149.5C19.2763 149.5 22.5 146.5 23 142C23.3793 138.586 22.0675 136.784 20.5 136C17.5 134.5 15 135.25 13.5 136.5C13.1638 136.78 13 137.5 13.5 138C14 138.5 14.6567 138.078 15 138C16.6798 137.616 17.9121 137.82 19 138.5C20.0879 139.18 21 140.5 21 142C21 145.724 18.5441 148 14.8202 148Z" fill="#C3932F"/>
<path d="M23.5 137.888C21.1667 136.388 15.7 134.088 12.5 136.888M20.5 141.388C20.5 144.888 19.5 147.888 15 147.888C10 147.888 7 145.888 6.5 141.888" stroke="#A97F27" stroke-linecap="round"/>
</g>
<mask id="mask19_163_262" style="mask-type:alpha" maskUnits="userSpaceOnUse" x="8" y="150" width="6" height="4">
<path d="M12.6405 151.989C12.916 151.479 13.5006 150.501 13.0006 150.501C12.6405 150.501 12.5006 152.001 11.0006 152.001C10.5006 152.001 10.2648 151.473 10.5006 151.001C10.7363 150.53 10.1582 150.001 9.50057 150.001C8.8429 150.001 8.50057 150.503 8.50057 151.001C8.50057 151.251 8.46331 151.966 9.00057 152.501C9.95271 153.452 11.8592 153.436 12.6405 151.989Z" fill="#C3932F"/>
</mask>
<g mask="url(#mask19_163_262)">
<path d="M12.6405 151.989C12.916 151.479 13.5006 150.501 13.0006 150.501C12.6405 150.501 12.5006 152.001 11.0006 152.001C10.5006 152.001 10.2648 151.473 10.5006 151.001C10.7363 150.53 10.1582 150.001 9.50057 150.001C8.8429 150.001 8.50057 150.503 8.50057 151.001C8.50057 151.251 8.46331 151.966 9.00057 152.501C9.95271 153.452 11.8592 153.436 12.6405 151.989Z" fill="#C3932F"/>
<path d="M8 150.388C8.5 149.388 9.99993 149.388 10.5 150.388C11 151.388 10.5 153.388 12 150.888" stroke="#A97F27" stroke-linecap="round"/>
</g>
</svg>
