<svg width="203" height="203" viewBox="0 0 203 203" fill="none" xmlns="http://www.w3.org/2000/svg">
<mask id="mask0_171_381" style="mask-type:alpha" maskUnits="userSpaceOnUse" x="0" y="30" width="21" height="50">
<path d="M18.8022 42.7014C18.8022 57.0057 10.3007 72.2013 9.5 75.0047C6.5 83.0174 10.1667 77.8248 11 75.9929C13 71.4929 20.5 58.5057 21 42.4351C21 36.1059 16.6043 31.3345 10.0108 30.5944C5.03906 30.0366 2.36775 31.9746 1.21936 34.2947C-0.978493 38.7351 0.120431 42.4353 1.95197 44.6555C2.36249 45.1531 3.41721 45.3955 4.14982 44.6555C4.88244 43.9154 4.26483 42.9434 4.14982 42.4353C3.58701 39.949 3.88621 38.125 4.88244 36.5149C5.87866 34.9047 7.8129 33.5547 10.0108 33.5547C15.4671 33.5547 18.8022 37.1896 18.8022 42.7014Z" fill="#C3932F"/>
</mask>
<g mask="url(#mask0_171_381)">
<path d="M18.8022 42.7014C18.8022 57.0057 10.3007 72.2013 9.5 75.0047C6.5 83.0174 10.1667 77.8248 11 75.9929C13 71.4929 20.5 58.5057 21 42.4351C21 36.1059 16.6043 31.3345 10.0108 30.5944C5.03906 30.0366 2.36775 31.9746 1.21936 34.2947C-0.978493 38.7351 0.120431 42.4353 1.95197 44.6555C2.36249 45.1531 3.41721 45.3955 4.14982 44.6555C4.88244 43.9154 4.26483 42.9434 4.14982 42.4353C3.58701 39.949 3.88621 38.125 4.88244 36.5149C5.87866 34.9047 7.8129 33.5547 10.0108 33.5547C15.4671 33.5547 18.8022 37.1896 18.8022 42.7014Z" fill="#C3932F"/>
<path d="M17.8992 44.2486C17.8992 57.4266 10.2073 71.4257 9.48293 74.0084C6.76865 81.3902 10.0861 76.6064 10.8401 74.9188C12.6496 70.7731 19.4353 58.8085 19.8877 44.0032C19.8877 38.1724 16.5391 33.7417 10.0391 33.7417L9.94504 35.822C14.8817 35.822 17.8992 39.1708 17.8992 44.2486Z" fill="#A97F27"/>
<path d="M15.5391 31.7418C11.5391 29.2419 2.03906 30.2417 -0.460938 36.7417" stroke="#A97F27" stroke-linecap="round"/>
</g>
<mask id="mask1_171_381" style="mask-type:alpha" maskUnits="userSpaceOnUse" x="5" y="5" width="149" height="149">
<path d="M26.472 151.334C26.2905 152.423 25.26 153.159 24.1705 152.978C16.7748 151.745 4.68484 141.666 5.50014 113.946C6.01072 96.5857 11.3848 81.3832 16.4513 67.4131L16.8214 66.3931C21.7864 52.7111 26.2748 40.3423 26.0391 27.848C26.0391 26.2781 27.0391 25.791 28.0765 25.8106C40.5767 26.0464 52.8965 21.6081 66.5241 16.6986L67.5311 16.3359C81.445 11.3262 96.5876 6.01137 113.945 5.50087C141.664 4.68558 151.744 16.7755 152.976 24.1712C153.158 25.2607 152.422 26.2912 151.332 26.4728C150.243 26.6544 149.212 25.9183 149.031 24.8288C148.263 20.2245 140.743 8.71442 114.062 9.49913C97.4196 9.98864 82.8298 15.0789 68.8862 20.0994C68.4415 20.2595 67.9973 20.4196 67.5535 20.5796C54.8833 25.1468 42.5825 29.5808 30.0383 29.8102C29.8038 42.3588 25.3193 54.7096 20.7017 67.4268C20.5385 67.8764 20.3751 68.3264 20.2117 68.7769C15.1335 82.7791 9.98781 97.4239 9.4984 114.064C8.71368 140.744 20.2238 148.265 24.8281 149.032C25.9176 149.214 26.6536 150.244 26.472 151.334Z" fill="#C3932F"/>
</mask>
<g mask="url(#mask1_171_381)">
<path d="M26.472 151.334C26.2905 152.423 25.26 153.159 24.1705 152.978C16.7748 151.745 4.68484 141.666 5.50014 113.946C6.01072 96.5857 11.3848 81.3832 16.4513 67.4131L16.8214 66.3931C21.7864 52.7111 26.2748 40.3423 26.0391 27.848C26.0391 26.2781 27.0391 25.791 28.0765 25.8106C40.5767 26.0464 52.8965 21.6081 66.5241 16.6986L67.5311 16.3359C81.445 11.3262 96.5876 6.01137 113.945 5.50087C141.664 4.68558 151.744 16.7755 152.976 24.1712C153.158 25.2607 152.422 26.2912 151.332 26.4728C150.243 26.6544 149.212 25.9183 149.031 24.8288C148.263 20.2245 140.743 8.71442 114.062 9.49913C97.4196 9.98864 82.8298 15.0789 68.8862 20.0994C68.4415 20.2595 67.9973 20.4196 67.5535 20.5796C54.8833 25.1468 42.5825 29.5808 30.0383 29.8102C29.8038 42.3588 25.3193 54.7096 20.7017 67.4268C20.5385 67.8764 20.3751 68.3264 20.2117 68.7769C15.1335 82.7791 9.98781 97.4239 9.4984 114.064C8.71368 140.744 20.2238 148.265 24.8281 149.032C25.9176 149.214 26.6536 150.244 26.472 151.334Z" fill="#C3932F"/>
<path d="M153.005 23.8882C152.005 17.8882 141.205 3.70019 114.005 4.50019C80.0049 5.50019 52.5391 26.3105 26.0391 25.8105C26.5391 52.3105 6.53906 78.2417 3.53906 113.742M28.0391 149.742C19.5391 148.742 12.5391 140.242 12.0391 127.242" stroke="#A97F27" stroke-width="4" stroke-linecap="round"/>
</g>
<mask id="mask2_171_381" style="mask-type:alpha" maskUnits="userSpaceOnUse" x="10" y="49" width="48" height="98">
<path d="M54.2227 52.3416C52.0457 50.3206 48.855 49.0049 44.4999 49.0049C39.556 49.0049 35.0181 51.7052 31.0125 56.0406C27.0045 60.3784 23.4807 66.4028 20.5537 73.1817C14.7 86.7388 11.1848 103.428 10.9999 115.998C10.7994 129.636 13.0505 137.142 16.0066 141.247C18.9922 145.393 22.6464 146.005 24.9999 146.005C27.8387 146.005 30.0846 145.23 31.6308 143.953C33.1816 142.672 33.9999 140.906 33.9999 139.005C33.9999 137.931 33.7329 136.828 33.1659 135.978C32.5891 135.112 31.6938 134.505 30.4999 134.505C29.3369 134.505 28.4672 134.855 27.9995 135.505C27.5502 136.129 27.4995 136.508 27.4995 137.005C27.4995 137.281 27.4995 138.005 27.9995 138.505C28.4995 139.005 29.4995 139.005 29.9995 138.505C30.4995 138.005 30.8687 139.636 29.9995 140.505C29.4995 141.005 27.9995 142.505 24.4995 142.505C22.353 142.505 19.7389 142.309 16.9995 138.505C14.2306 134.66 12.3001 129.566 12.4995 116.005C12.6823 103.574 16.4995 87.0049 23.4995 74.0049C26.9995 67.5049 30.4995 64.0049 34.4995 60.0049C38.4995 56.0049 41.7969 54.8112 44.4995 54.5049C47.2021 54.1985 50.9003 54.1054 52.9995 55.5049C54.638 56.5972 55.9995 58.5049 55.9995 60.5049C55.9995 63.0049 54.9995 64.5049 54.2227 65.358C53.4459 66.211 51.4995 67.0049 50.9995 66.0049C50.4995 65.0049 51.4995 65.0049 51.9995 64.0049C52.4995 63.0049 52.4995 62.0049 51.9995 61.0049C51.4995 60.0049 50.4995 59.5049 49.9995 59.5049C49.4995 59.5049 48.1858 59.35 47.2021 60.078C46.2001 60.8195 45.4995 62.2059 45.4995 64.5049C45.4995 66.3487 46.0276 67.857 47.0091 68.9086C47.9938 69.9636 49.385 70.5049 50.9999 70.5049C53.3528 70.5049 55.2146 69.0802 56.3929 67.053C57.5695 65.0289 58.1008 62.3571 57.8092 59.7003C57.517 57.0384 56.3948 54.3579 54.2227 52.3416Z" fill="#C3932F"/>
</mask>
<g mask="url(#mask2_171_381)">
<path d="M54.2227 52.3416C52.0457 50.3206 48.855 49.0049 44.4999 49.0049C39.556 49.0049 35.0181 51.7052 31.0125 56.0406C27.0045 60.3784 23.4807 66.4028 20.5537 73.1817C14.7 86.7388 11.1848 103.428 10.9999 115.998C10.7994 129.636 13.0505 137.142 16.0066 141.247C18.9922 145.393 22.6464 146.005 24.9999 146.005C27.8387 146.005 30.0846 145.23 31.6308 143.953C33.1816 142.672 33.9999 140.906 33.9999 139.005C33.9999 137.931 33.7329 136.828 33.1659 135.978C32.5891 135.112 31.6938 134.505 30.4999 134.505C29.3369 134.505 28.4672 134.855 27.9995 135.505C27.5502 136.129 27.4995 136.508 27.4995 137.005C27.4995 137.281 27.4995 138.005 27.9995 138.505C28.4995 139.005 29.4995 139.005 29.9995 138.505C30.4995 138.005 30.8687 139.636 29.9995 140.505C29.4995 141.005 27.9995 142.505 24.4995 142.505C22.353 142.505 19.7389 142.309 16.9995 138.505C14.2306 134.66 12.3001 129.566 12.4995 116.005C12.6823 103.574 16.4995 87.0049 23.4995 74.0049C26.9995 67.5049 30.4995 64.0049 34.4995 60.0049C38.4995 56.0049 41.7969 54.8112 44.4995 54.5049C47.2021 54.1985 50.9003 54.1054 52.9995 55.5049C54.638 56.5972 55.9995 58.5049 55.9995 60.5049C55.9995 63.0049 54.9995 64.5049 54.2227 65.358C53.4459 66.211 51.4995 67.0049 50.9995 66.0049C50.4995 65.0049 51.4995 65.0049 51.9995 64.0049C52.4995 63.0049 52.4995 62.0049 51.9995 61.0049C51.4995 60.0049 50.4995 59.5049 49.9995 59.5049C49.4995 59.5049 48.1858 59.35 47.2021 60.078C46.2001 60.8195 45.4995 62.2059 45.4995 64.5049C45.4995 66.3487 46.0276 67.857 47.0091 68.9086C47.9938 69.9636 49.385 70.5049 50.9999 70.5049C53.3528 70.5049 55.2146 69.0802 56.3929 67.053C57.5695 65.0289 58.1008 62.3571 57.8092 59.7003C57.517 57.0384 56.3948 54.3579 54.2227 52.3416Z" fill="#C3932F"/>
<path d="M56.5391 53.7417C54.362 51.7207 48.6639 48.8859 44.0391 49.2417C37.5391 49.7417 35.3933 52.1695 31.3877 56.5049C27.3797 60.8427 23.4807 66.4028 20.5537 73.1817C14.6999 86.7388 11.0725 103.436 10.8877 116.005C10.6871 129.644 13.0505 137.142 16.0066 141.247C18.9922 145.393 22.5342 147.005 24.8877 147.005M49.8877 57.2417C51.8877 57.2417 55.0391 57.7417 55.0391 62.2417C55.0391 64.979 53.0391 66.2417 52.0391 65.7417M45.5391 59.7417C49.0391 58.2417 53.0391 60.2417 53.0391 63.7417" stroke="#A97F27" stroke-width="2" stroke-linecap="round"/>
<path d="M21.539 141.741C26.5391 144.742 32.039 140.742 30.3874 138.505M27.0391 136.742C28.0391 133.742 33.0391 134.742 34.0391 136.742" stroke="#A97F27" stroke-linecap="round"/>
</g>
<mask id="mask3_171_381" style="mask-type:alpha" maskUnits="userSpaceOnUse" x="22" y="129" width="15" height="19">
<path fill-rule="evenodd" clip-rule="evenodd" d="M35 138.185C35 143.894 31.7196 145.905 29.8419 146.53C29.5799 146.618 29.4383 146.901 29.5257 147.163C29.613 147.425 29.8961 147.566 30.1581 147.479C32.2804 146.772 36.5 144.295 36.5 138.005C36.5 133.729 33.5 130.505 29 130.005C25.5862 129.626 23.7838 130.937 23 132.505C21.5 135.505 22.25 138.005 23.5 139.505C23.7802 139.841 24.5 140.005 25 139.505C25.5 139.005 25.0785 138.348 25 138.005C24.6159 136.325 24.8201 135.093 25.5 134.005C26.1799 132.917 27.5 132.005 29 132.005C32.7239 132.005 35 134.461 35 138.185Z" fill="#C3932F"/>
</mask>
<g mask="url(#mask3_171_381)">
<path fill-rule="evenodd" clip-rule="evenodd" d="M35 138.185C35 143.894 31.7196 145.905 29.8419 146.53C29.5799 146.618 29.4383 146.901 29.5257 147.163C29.613 147.425 29.8961 147.566 30.1581 147.479C32.2804 146.772 36.5 144.295 36.5 138.005C36.5 133.729 33.5 130.505 29 130.005C25.5862 129.626 23.7838 130.937 23 132.505C21.5 135.505 22.25 138.005 23.5 139.505C23.7802 139.841 24.5 140.005 25 139.505C25.5 139.005 25.0785 138.348 25 138.005C24.6159 136.325 24.8201 135.093 25.5 134.005C26.1799 132.917 27.5 132.005 29 132.005C32.7239 132.005 35 134.461 35 138.185Z" fill="#C3932F"/>
<path d="M29.0391 133.242C32.5391 133.242 35.0391 135.242 35.0391 138.742C35.0391 143.742 31.5391 146.242 28.8887 146.505" stroke="#A97F27" stroke-linecap="round"/>
<path d="M34.5391 131.242C31.0391 129.241 26.5391 128.742 24.0391 130.742C22.0038 132.37 21.0391 135.242 21.0391 136.742M26.5391 139.742C25.0391 138.242 25.5391 135.242 27.0391 133.742" stroke="#A97F27" stroke-width="2" stroke-linecap="round"/>
</g>
<mask id="mask4_171_381" style="mask-type:alpha" maskUnits="userSpaceOnUse" x="37" y="139" width="4" height="6">
<path d="M38.989 140.364C38.4789 140.089 37.5014 139.504 37.5014 140.004C37.5014 140.364 39.0014 140.504 39.0014 142.004C39.0014 142.504 38.473 142.74 38.0014 142.504C37.5299 142.269 37.0014 142.847 37.0014 143.504C37.0014 144.162 37.5028 144.504 38.0014 144.504C38.2509 144.504 38.9656 144.542 39.5014 144.004C40.452 143.052 40.4359 141.146 38.989 140.364Z" fill="#C3932F"/>
</mask>
<g mask="url(#mask4_171_381)">
<path d="M38.989 140.364C38.4789 140.089 37.5014 139.504 37.5014 140.004C37.5014 140.364 39.0014 140.504 39.0014 142.004C39.0014 142.504 38.473 142.74 38.0014 142.504C37.5299 142.269 37.0014 142.847 37.0014 143.504C37.0014 144.162 37.5028 144.504 38.0014 144.504C38.2509 144.504 38.9656 144.542 39.5014 144.004C40.452 143.052 40.4359 141.146 38.989 140.364Z" fill="#C3932F"/>
<path d="M37.5382 142.242C38.0391 142.742 39.5387 142.742 37.8876 141.005M41.0391 143.742C41.0391 141.242 39.0391 139.742 37.0391 139.242" stroke="#A97F27" stroke-linecap="round"/>
</g>
<mask id="mask5_171_381" style="mask-type:alpha" maskUnits="userSpaceOnUse" x="37" y="149" width="22" height="50">
<path d="M39.3443 186.045C39.3443 171.741 47.8458 156.545 48.6465 153.742C51.6465 145.729 47.9798 150.922 47.1465 152.753C45.1465 157.253 37.6465 170.241 37.1465 186.311C37.1465 192.64 41.5422 197.412 48.1357 198.152C53.1378 198.713 55.7787 196.772 56.9271 194.452C59.125 190.011 58.0261 186.311 56.1945 184.091C55.784 183.593 54.7293 183.351 53.9967 184.091C53.264 184.831 53.8816 185.803 53.9967 186.311C54.5595 188.797 54.2603 190.621 53.264 192.232C52.2678 193.842 50.3336 195.192 48.1357 195.192C42.6794 195.192 39.3443 191.557 39.3443 186.045Z" fill="#C3932F"/>
</mask>
<g mask="url(#mask5_171_381)">
<path d="M39.3443 186.045C39.3443 171.741 47.8458 156.545 48.6465 153.742C51.6465 145.729 47.9798 150.922 47.1465 152.753C45.1465 157.253 37.6465 170.241 37.1465 186.311C37.1465 192.64 41.5422 197.412 48.1357 198.152C53.1378 198.713 55.7787 196.772 56.9271 194.452C59.125 190.011 58.0261 186.311 56.1945 184.091C55.784 183.593 54.7293 183.351 53.9967 184.091C53.264 184.831 53.8816 185.803 53.9967 186.311C54.5595 188.797 54.2603 190.621 53.264 192.232C52.2678 193.842 50.3336 195.192 48.1357 195.192C42.6794 195.192 39.3443 191.557 39.3443 186.045Z" fill="#C3932F"/>
<path d="M40.2463 185.498C40.2463 172.32 49.3147 154.824 50.0391 152.242C52.7533 144.86 48.0594 153.14 47.3054 154.828C45.4959 158.974 38.7102 170.938 38.2578 185.743C38.2578 191.574 42.2349 195.97 48.2005 196.652C52.7261 197.169 55.1156 195.38 56.1546 193.243C58.1431 189.152 57.1488 185.743 55.4917 183.698C55.1203 183.239 54.1661 183.016 53.5032 183.698C52.8404 184.38 53.3992 185.275 53.5032 185.743C54.0124 188.034 53.7417 189.714 52.8404 191.197C51.939 192.681 50.189 193.925 48.2005 193.925C43.2638 193.925 40.2463 190.576 40.2463 185.498Z" fill="#A97F27"/>
</g>
<mask id="mask6_171_381" style="mask-type:alpha" maskUnits="userSpaceOnUse" x="28" y="75" width="25" height="128">
<path d="M33.6459 77.7417C39.6459 78.7417 51.4459 87.5417 50.6459 114.742C49.6459 148.742 29.6459 173.742 30.1459 200.242" stroke="#C3932F" stroke-width="4" stroke-linecap="round"/>
</mask>
<g mask="url(#mask6_171_381)">
<path d="M33.6459 77.7417C39.6459 78.7417 51.4459 87.5417 50.6459 114.742C49.6459 148.742 29.6459 173.742 30.1459 200.242" stroke="#C3932F" stroke-width="4" stroke-linecap="round"/>
<path d="M33.5391 75.7417C41.0391 75.7417 54.4459 87.5417 53.6459 114.742C53.1901 130.242 53.6459 132.742 52.0391 141.742" stroke="#A97F27" stroke-width="4" stroke-linecap="round"/>
<path d="M28.0396 187.242C32.0396 174.242 39.3043 154.15 42.5392 146.242C45.774 138.334 50.5398 111.242 41.0394 107.742" stroke="#A97F27" stroke-width="2" stroke-linecap="round"/>
</g>
<mask id="mask7_171_381" style="mask-type:alpha" maskUnits="userSpaceOnUse" x="0" y="82" width="48" height="98">
<path d="M3.9228 176.405C6.09985 178.426 9.29048 179.742 13.6456 179.742C18.5895 179.742 23.1274 177.041 27.133 172.706C31.141 168.368 34.6648 162.344 37.5918 155.565C43.4455 142.008 46.9607 125.318 47.1456 112.749C47.3461 99.1104 45.095 91.6044 42.1389 87.4994C39.1533 83.3534 35.4991 82.7415 33.1456 82.7417C30.3068 82.7417 28.0609 83.5164 26.5147 84.7937C24.9639 86.0748 24.1456 87.8403 24.1456 89.7417C24.1456 90.8159 24.4127 91.9186 24.9796 92.769C25.5564 93.6343 26.4517 94.2417 27.6456 94.2417C28.8086 94.2417 29.6783 93.8913 30.146 93.2417C30.5953 92.6176 30.646 92.2384 30.646 91.7417C30.646 91.4656 30.646 90.7417 30.146 90.2417C29.646 89.7417 28.646 89.7417 28.146 90.2417C27.646 90.7417 27.2768 89.1109 28.146 88.2417C28.646 87.7417 30.146 86.242 33.646 86.2417C35.7925 86.2415 38.4066 86.4376 41.146 90.2417C43.9149 94.0868 45.8454 99.1803 45.646 112.742C45.4632 125.173 41.646 141.742 34.646 154.742C31.146 161.242 27.646 164.742 23.646 168.742C19.646 172.742 16.3486 173.935 13.646 174.242C10.9434 174.548 7.24523 174.641 5.146 173.242C3.5075 172.149 2.146 170.242 2.146 168.242C2.146 165.742 3.146 164.242 3.9228 163.389C4.69959 162.536 6.646 161.742 7.146 162.742C7.646 163.742 6.646 163.742 6.146 164.742C5.646 165.742 5.646 166.742 6.146 167.742C6.646 168.742 7.646 169.242 8.146 169.242C8.646 169.242 9.95969 169.397 10.9434 168.669C11.9454 167.927 12.646 166.541 12.646 164.242C12.646 162.398 12.118 160.89 11.1364 159.838C10.1517 158.783 8.76054 158.242 7.14562 158.242C4.79266 158.242 2.93094 159.666 1.75258 161.694C0.575982 163.718 0.0447352 166.389 0.336331 169.046C0.628489 171.708 1.75075 174.389 3.9228 176.405Z" fill="#C3932F"/>
</mask>
<g mask="url(#mask7_171_381)">
<path d="M3.9228 176.405C6.09985 178.426 9.29048 179.742 13.6456 179.742C18.5895 179.742 23.1274 177.041 27.133 172.706C31.141 168.368 34.6648 162.344 37.5918 155.565C43.4455 142.008 46.9607 125.318 47.1456 112.749C47.3461 99.1104 45.095 91.6044 42.1389 87.4994C39.1533 83.3534 35.4991 82.7415 33.1456 82.7417C30.3068 82.7417 28.0609 83.5164 26.5147 84.7937C24.9639 86.0748 24.1456 87.8403 24.1456 89.7417C24.1456 90.8159 24.4127 91.9186 24.9796 92.769C25.5564 93.6343 26.4517 94.2417 27.6456 94.2417C28.8086 94.2417 29.6783 93.8913 30.146 93.2417C30.5953 92.6176 30.646 92.2384 30.646 91.7417C30.646 91.4656 30.646 90.7417 30.146 90.2417C29.646 89.7417 28.646 89.7417 28.146 90.2417C27.646 90.7417 27.2768 89.1109 28.146 88.2417C28.646 87.7417 30.146 86.242 33.646 86.2417C35.7925 86.2415 38.4066 86.4376 41.146 90.2417C43.9149 94.0868 45.8454 99.1803 45.646 112.742C45.4632 125.173 41.646 141.742 34.646 154.742C31.146 161.242 27.646 164.742 23.646 168.742C19.646 172.742 16.3486 173.935 13.646 174.242C10.9434 174.548 7.24523 174.641 5.146 173.242C3.5075 172.149 2.146 170.242 2.146 168.242C2.146 165.742 3.146 164.242 3.9228 163.389C4.69959 162.536 6.646 161.742 7.146 162.742C7.646 163.742 6.646 163.742 6.146 164.742C5.646 165.742 5.646 166.742 6.146 167.742C6.646 168.742 7.646 169.242 8.146 169.242C8.646 169.242 9.95969 169.397 10.9434 168.669C11.9454 167.927 12.646 166.541 12.646 164.242C12.646 162.398 12.118 160.89 11.1364 159.838C10.1517 158.783 8.76054 158.242 7.14562 158.242C4.79266 158.242 2.93094 159.666 1.75258 161.694C0.575982 163.718 0.0447352 166.389 0.336331 169.046C0.628489 171.708 1.75075 174.389 3.9228 176.405Z" fill="#C3932F"/>
<path d="M3.53906 169.242C3.53906 174.242 9.03906 175.367 13.5391 174.242C19.5391 172.742 22.0334 170.577 26.0391 166.242C30.047 161.904 33.9461 156.344 36.8731 149.565C42.7268 136.008 45.0391 119.242 44.5391 106.742M43.0391 87.2417C39.0391 81.7417 26.0391 82.2417 23.5391 87.2419M9.53906 170.242C8.03906 170.242 6.53906 168.242 6.03906 167.242C5.53906 166.242 5.53906 165.242 6.53906 164.242M0.539063 161.242C0.539063 159.242 4.03906 158.242 6.53906 158.242C9.03906 158.242 14.0391 160.242 14.0391 163.242" stroke="#A97F27" stroke-width="2" stroke-linecap="round"/>
<path d="M31.7576 87.2415C29.2571 86.7419 26.2578 88.7418 27.7576 90.2418C28.5391 90.7417 30.0391 89.2417 31.0391 91.2417" stroke="#A97F27" stroke-linecap="round"/>
</g>
<mask id="mask8_171_381" style="mask-type:alpha" maskUnits="userSpaceOnUse" x="21" y="81" width="15" height="18">
<path fill-rule="evenodd" clip-rule="evenodd" d="M23.1465 90.5619C23.1465 84.8524 26.4269 82.8421 28.3046 82.2162C28.5666 82.1289 28.7081 81.8457 28.6208 81.5837C28.5335 81.3217 28.2503 81.1802 27.9884 81.2675C25.8661 81.9749 21.6465 84.4514 21.6465 90.7418C21.6465 95.018 24.6465 98.2417 29.1465 98.7417C32.5603 99.121 34.3627 97.8092 35.1465 96.2417C36.6465 93.2417 35.8965 90.7417 34.6465 89.2417C34.3663 88.9055 33.6465 88.7417 33.1465 89.2417C32.6465 89.7417 33.068 90.3984 33.1465 90.7417C33.5306 92.4215 33.3264 93.6538 32.6465 94.7417C31.9666 95.8296 30.6465 96.7417 29.1465 96.7417C25.4226 96.7417 23.1465 94.2858 23.1465 90.5619Z" fill="#C3932F"/>
</mask>
<g mask="url(#mask8_171_381)">
<path fill-rule="evenodd" clip-rule="evenodd" d="M23.1465 90.5619C23.1465 84.8524 26.4269 82.8421 28.3046 82.2162C28.5666 82.1289 28.7081 81.8457 28.6208 81.5837C28.5335 81.3217 28.2503 81.1802 27.9884 81.2675C25.8661 81.9749 21.6465 84.4514 21.6465 90.7418C21.6465 95.018 24.6465 98.2417 29.1465 98.7417C32.5603 99.121 34.3627 97.8092 35.1465 96.2417C36.6465 93.2417 35.8965 90.7417 34.6465 89.2417C34.3663 88.9055 33.6465 88.7417 33.1465 89.2417C32.6465 89.7417 33.068 90.3984 33.1465 90.7417C33.5306 92.4215 33.3264 93.6538 32.6465 94.7417C31.9666 95.8296 30.6465 96.7417 29.1465 96.7417C25.4226 96.7417 23.1465 94.2858 23.1465 90.5619Z" fill="#C3932F"/>
<path d="M34.5391 88.7417C30.5391 88.7417 36.5391 95.6584 30.0391 96.7417C27.0391 97.2417 23.2588 95.7417 23.2588 90.7417C23.2588 85.7417 25.2588 82.7417 29.2588 82.2417" stroke="#A97F27" stroke-linecap="round"/>
</g>
<mask id="mask9_171_381" style="mask-type:alpha" maskUnits="userSpaceOnUse" x="17" y="84" width="5" height="5">
<path d="M19.1575 88.3822C19.6676 88.6577 20.6451 89.2423 20.6451 88.7423C20.6451 88.3822 19.1451 88.2423 19.1451 86.7423C19.1451 86.2423 19.6735 86.0065 20.1451 86.2423C20.6166 86.478 21.1451 85.8999 21.1451 85.2423C21.1451 84.5846 20.6437 84.2423 20.1451 84.2423C19.8956 84.2423 19.1809 84.205 18.6451 84.7423C17.6944 85.6944 17.7106 87.6009 19.1575 88.3822Z" fill="#C3932F"/>
</mask>
<g mask="url(#mask9_171_381)">
<path d="M19.1575 88.3822C19.6676 88.6577 20.6451 89.2423 20.6451 88.7423C20.6451 88.3822 19.1451 88.2423 19.1451 86.7423C19.1451 86.2423 19.6735 86.0065 20.1451 86.2423C20.6166 86.478 21.1451 85.8999 21.1451 85.2423C21.1451 84.5846 20.6437 84.2423 20.1451 84.2423C19.8956 84.2423 19.1809 84.205 18.6451 84.7423C17.6944 85.6944 17.7106 87.6009 19.1575 88.3822Z" fill="#C3932F"/>
<path d="M17.5391 85.2421C18.5391 84.242 20.2581 83.8672 21.5391 85.2418M21.0391 88.2417C20.0391 88.2417 19.0391 87.2417 20.0391 86.7417" stroke="#A97F27" stroke-linecap="round"/>
</g>
<mask id="mask10_171_381" style="mask-type:alpha" maskUnits="userSpaceOnUse" x="30" y="0" width="50" height="21">
<path d="M42.7014 18.8022C57.0057 18.8022 72.2013 10.3007 75.0047 9.5C83.0174 6.5 77.8248 10.1667 75.9929 11C71.4929 13 58.5057 20.5 42.4351 21C36.1059 21 31.3345 16.6043 30.5944 10.0108C30.0391 5.2417 31.9746 2.36775 34.2947 1.21936C38.7351 -0.978492 42.4353 0.120432 44.6555 1.95197C45.1531 2.36249 45.3955 3.41721 44.6555 4.14982C43.9154 4.88244 42.9434 4.26484 42.4353 4.14982C39.949 3.58701 38.125 3.88622 36.5149 4.88244C34.9047 5.87866 33.5547 7.8129 33.5547 10.0108C33.5547 15.4671 37.1896 18.8022 42.7014 18.8022Z" fill="#C3932F"/>
</mask>
<g mask="url(#mask10_171_381)">
<path d="M42.7014 18.8022C57.0057 18.8022 72.2013 10.3007 75.0047 9.5C83.0174 6.5 77.8248 10.1667 75.9929 11C71.4929 13 58.5057 20.5 42.4351 21C36.1059 21 31.3345 16.6043 30.5944 10.0108C30.0391 5.2417 31.9746 2.36775 34.2947 1.21936C38.7351 -0.978492 42.4353 0.120432 44.6555 1.95197C45.1531 2.36249 45.3955 3.41721 44.6555 4.14982C43.9154 4.88244 42.9434 4.26484 42.4353 4.14982C39.949 3.58701 38.125 3.88622 36.5149 4.88244C34.9047 5.87866 33.5547 7.8129 33.5547 10.0108C33.5547 15.4671 37.1896 18.8022 42.7014 18.8022Z" fill="#C3932F"/>
<path d="M43.2486 17.8997C56.4267 17.8997 70.4259 10.2078 73.0085 9.48342C80.3904 6.76914 75.6066 10.0866 73.9189 10.8406C69.7733 12.6501 57.8086 19.4358 43.0033 19.8882C37.1724 19.8882 32.7767 15.9111 32.0949 9.94553C31.5776 5.41987 33.3664 3.03043 35.5038 1.99141C39.5945 0.00288054 43.0034 0.997145 45.0488 2.65426C45.5073 3.02568 45.7306 3.97994 45.0488 4.64278C44.367 5.30563 43.4715 4.74684 43.0034 4.64278C40.713 4.13357 39.0325 4.40428 37.5492 5.30563C36.0658 6.20697 34.822 7.957 34.822 9.94553C34.822 14.8822 38.1708 17.8997 43.2486 17.8997Z" fill="#A97F27"/>
</g>
<mask id="mask11_171_381" style="mask-type:alpha" maskUnits="userSpaceOnUse" x="49" y="10" width="98" height="48">
<path d="M52.3416 54.2232C50.3206 52.0461 49.0049 48.8555 49.0049 44.5004C49.0049 39.5565 51.7052 35.0186 56.0406 31.013C60.3784 27.005 66.4028 23.4812 73.1817 20.5542C86.7388 14.7005 103.428 11.1853 115.998 11.0004C129.636 10.7999 137.142 13.051 141.247 16.0071C145.393 18.9927 146.005 22.6469 146.005 25.0004C146.005 27.8392 145.23 30.0851 143.953 31.6313C142.672 33.182 140.906 34.0004 139.005 34.0004C137.931 34.0004 136.828 33.7333 135.978 33.1664C135.112 32.5896 134.505 31.6943 134.505 30.5004C134.505 29.3374 134.855 28.4677 135.505 28C136.129 27.5507 136.508 27.5 137.005 27.5C137.281 27.5 138.005 27.5 138.505 28C139.005 28.5 139.005 29.5 138.505 30C138.005 30.5 139.636 30.8692 140.505 30C141.005 29.5 142.505 28 142.505 24.5C142.505 22.3535 142.309 19.7394 138.505 17C134.66 14.2311 129.566 12.3006 116.005 12.5C103.574 12.6828 87.0049 16.5 74.0049 23.5C67.5049 27 64.0049 30.5 60.0049 34.5C56.0049 38.5 54.8112 41.7974 54.5049 44.5C54.1985 47.2026 54.1054 50.9008 55.5049 53C56.5972 54.6385 58.5049 56 60.5049 56C63.0049 56 64.5049 55 65.358 54.2232C66.211 53.4464 67.0049 51.5 66.0049 51C65.0049 50.5 65.0049 51.5 64.0049 52C63.0049 52.5 62.0049 52.5 61.0049 52C60.0049 51.5 59.5049 50.5 59.5049 50C59.5049 49.5 59.35 48.1863 60.078 47.2026C60.8195 46.2006 62.2059 45.5 64.5049 45.5C66.3487 45.5 67.857 46.028 68.9086 47.0096C69.9636 47.9943 70.5049 49.3855 70.5049 51.0004C70.5049 53.3533 69.0802 55.2151 67.053 56.3934C65.0289 57.57 62.3571 58.1013 59.7003 57.8097C57.0384 57.5175 54.3579 56.3952 52.3416 54.2232Z" fill="#C3932F"/>
</mask>
<g mask="url(#mask11_171_381)">
<path d="M52.3416 54.2232C50.3206 52.0461 49.0049 48.8555 49.0049 44.5004C49.0049 39.5565 51.7052 35.0186 56.0406 31.013C60.3784 27.005 66.4028 23.4812 73.1817 20.5542C86.7388 14.7005 103.428 11.1853 115.998 11.0004C129.636 10.7999 137.142 13.051 141.247 16.0071C145.393 18.9927 146.005 22.6469 146.005 25.0004C146.005 27.8392 145.23 30.0851 143.953 31.6313C142.672 33.182 140.906 34.0004 139.005 34.0004C137.931 34.0004 136.828 33.7333 135.978 33.1664C135.112 32.5896 134.505 31.6943 134.505 30.5004C134.505 29.3374 134.855 28.4677 135.505 28C136.129 27.5507 136.508 27.5 137.005 27.5C137.281 27.5 138.005 27.5 138.505 28C139.005 28.5 139.005 29.5 138.505 30C138.005 30.5 139.636 30.8692 140.505 30C141.005 29.5 142.505 28 142.505 24.5C142.505 22.3535 142.309 19.7394 138.505 17C134.66 14.2311 129.566 12.3006 116.005 12.5C103.574 12.6828 87.0049 16.5 74.0049 23.5C67.5049 27 64.0049 30.5 60.0049 34.5C56.0049 38.5 54.8112 41.7974 54.5049 44.5C54.1985 47.2026 54.1054 50.9008 55.5049 53C56.5972 54.6385 58.5049 56 60.5049 56C63.0049 56 64.5049 55 65.358 54.2232C66.211 53.4464 67.0049 51.5 66.0049 51C65.0049 50.5 65.0049 51.5 64.0049 52C63.0049 52.5 62.0049 52.5 61.0049 52C60.0049 51.5 59.5049 50.5 59.5049 50C59.5049 49.5 59.35 48.1863 60.078 47.2026C60.8195 46.2006 62.2059 45.5 64.5049 45.5C66.3487 45.5 67.857 46.028 68.9086 47.0096C69.9636 47.9943 70.5049 49.3855 70.5049 51.0004C70.5049 53.3533 69.0802 55.2151 67.053 56.3934C65.0289 57.57 62.3571 58.1013 59.7003 57.8097C57.0384 57.5175 54.3579 56.3952 52.3416 54.2232Z" fill="#C3932F"/>
<path d="M50.5049 54.3882C48.4839 52.2111 47.3799 48.3882 48.5049 43.8882C50.0049 37.8882 52.1695 35.3938 56.5049 31.3882C60.8427 27.3802 66.4028 23.4812 73.1817 20.5541C86.7388 14.7004 103.436 11.073 116.005 10.8882C129.644 10.6876 137.142 13.051 141.247 16.0071C145.393 18.9926 147.005 22.5347 147.005 24.8882M55.5049 50.3882C55.3382 52.0549 56.2049 55.8882 61.0049 55.8882C65.0049 55.8882 66.3382 53.3882 66.0049 52.3882M71.5049 49.8882C70.5049 48.5549 67.7049 45.8882 64.5049 45.8882C60.5049 45.8882 58.5049 48.3882 58.5049 48.8882" stroke="#A97F27" stroke-width="2" stroke-linecap="round"/>
<path d="M141.505 26.3882C142.004 28.8886 140.005 31.888 138.505 30.3882M139.505 28.3882C139.005 27.3882 136.505 26.7882 134.505 28.3882" stroke="#A97F27" stroke-linecap="round"/>
</g>
<mask id="mask12_171_381" style="mask-type:alpha" maskUnits="userSpaceOnUse" x="129" y="22" width="19" height="15">
<path fill-rule="evenodd" clip-rule="evenodd" d="M138.185 35C143.894 35 145.905 31.7196 146.53 29.8419C146.618 29.5799 146.901 29.4383 147.163 29.5257C147.425 29.613 147.566 29.8961 147.479 30.1581C146.772 32.2804 144.295 36.5 138.005 36.5C133.729 36.5 130.505 33.5 130.005 29C129.626 25.5862 130.937 23.7838 132.505 23C135.505 21.5 138.005 22.25 139.505 23.5C139.841 23.7802 140.005 24.5 139.505 25C139.005 25.5 138.348 25.0785 138.005 25C136.325 24.6159 135.093 24.8201 134.005 25.5C132.917 26.1799 132.005 27.5 132.005 29C132.005 32.7239 134.461 35 138.185 35Z" fill="#C3932F"/>
</mask>
<g mask="url(#mask12_171_381)">
<path fill-rule="evenodd" clip-rule="evenodd" d="M138.185 35C143.894 35 145.905 31.7196 146.53 29.8419C146.618 29.5799 146.901 29.4383 147.163 29.5257C147.425 29.613 147.566 29.8961 147.479 30.1581C146.772 32.2804 144.295 36.5 138.005 36.5C133.729 36.5 130.505 33.5 130.005 29C129.626 25.5862 130.937 23.7838 132.505 23C135.505 21.5 138.005 22.25 139.505 23.5C139.841 23.7802 140.005 24.5 139.505 25C139.005 25.5 138.348 25.0785 138.005 25C136.325 24.6159 135.093 24.8201 134.005 25.5C132.917 26.1799 132.005 27.5 132.005 29C132.005 32.7239 134.461 35 138.185 35Z" fill="#C3932F"/>
<path d="M129.505 24.8882C131.838 23.3882 137.305 21.0882 140.505 23.8882M132.505 28.3882C132.505 31.8882 133.505 34.8882 138.005 34.8882C143.005 34.8882 146.005 32.8882 146.505 28.8882" stroke="#A97F27" stroke-linecap="round"/>
</g>
<mask id="mask13_171_381" style="mask-type:alpha" maskUnits="userSpaceOnUse" x="139" y="37" width="6" height="4">
<path d="M140.364 38.989C140.089 38.4789 139.504 37.5014 140.004 37.5014C140.364 37.5014 140.504 39.0014 142.004 39.0014C142.504 39.0014 142.74 38.473 142.504 38.0014C142.269 37.5299 142.847 37.0014 143.504 37.0014C144.162 37.0014 144.504 37.5028 144.504 38.0014C144.504 38.2509 144.542 38.9656 144.004 39.5014C143.052 40.452 141.146 40.4359 140.364 38.989Z" fill="#C3932F"/>
</mask>
<g mask="url(#mask13_171_381)">
<path d="M140.364 38.989C140.089 38.4789 139.504 37.5014 140.004 37.5014C140.364 37.5014 140.504 39.0014 142.004 39.0014C142.504 39.0014 142.74 38.473 142.504 38.0014C142.269 37.5299 142.847 37.0014 143.504 37.0014C144.162 37.0014 144.504 37.5028 144.504 38.0014C144.504 38.2509 144.542 38.9656 144.004 39.5014C143.052 40.452 141.146 40.4359 140.364 38.989Z" fill="#C3932F"/>
<path d="M145.005 37.388C144.505 36.388 143.005 36.3882 142.505 37.3883C142.005 38.3882 142.505 40.3883 141.005 37.8881" stroke="#A97F27" stroke-linecap="round"/>
</g>
<mask id="mask14_171_381" style="mask-type:alpha" maskUnits="userSpaceOnUse" x="149" y="37" width="50" height="22">
<path d="M185.842 39.3521C171.538 39.3521 156.342 47.8536 153.539 48.6543C145.526 51.6543 150.719 47.9876 152.551 47.1543C157.051 45.1543 170.038 37.6543 186.109 37.1543C192.438 37.1543 197.209 41.55 197.949 48.1435C198.511 53.1456 196.569 55.7866 194.249 56.9349C189.809 59.1328 186.108 58.0339 183.888 56.2023C183.391 55.7918 183.148 54.7371 183.888 54.0045C184.628 53.2719 185.6 53.8895 186.108 54.0045C188.595 54.5673 190.419 54.2681 192.029 53.2719C193.639 52.2756 194.989 50.3414 194.989 48.1435C194.989 42.6872 191.354 39.3521 185.842 39.3521Z" fill="#C3932F"/>
</mask>
<g mask="url(#mask14_171_381)">
<path d="M185.842 39.3521C171.538 39.3521 156.342 47.8536 153.539 48.6543C145.526 51.6543 150.719 47.9876 152.551 47.1543C157.051 45.1543 170.038 37.6543 186.109 37.1543C192.438 37.1543 197.209 41.55 197.949 48.1435C198.511 53.1456 196.569 55.7866 194.249 56.9349C189.809 59.1328 186.108 58.0339 183.888 56.2023C183.391 55.7918 183.148 54.7371 183.888 54.0045C184.628 53.2719 185.6 53.8895 186.108 54.0045C188.595 54.5673 190.419 54.2681 192.029 53.2719C193.639 52.2756 194.989 50.3414 194.989 48.1435C194.989 42.6872 191.354 39.3521 185.842 39.3521Z" fill="#C3932F"/>
<path d="M185.295 40.2546C172.117 40.2546 158.118 47.9465 155.535 48.6709C148.154 51.3852 152.937 48.0677 154.625 47.3137C158.771 45.5042 170.735 38.7185 185.541 38.2661C191.372 38.2661 195.767 42.2432 196.449 48.2088C196.966 52.7344 195.178 55.1239 193.04 56.1629C188.949 58.1514 185.54 57.1572 183.495 55.5C183.037 55.1286 182.813 54.1744 183.495 53.5115C184.177 52.8487 185.072 53.4075 185.54 53.5115C187.831 54.0207 189.511 53.75 190.995 52.8487C192.478 51.9473 193.722 50.1973 193.722 48.2088C193.722 43.2721 190.373 40.2546 185.295 40.2546Z" fill="#A97F27"/>
</g>
<mask id="mask15_171_381" style="mask-type:alpha" maskUnits="userSpaceOnUse" x="75" y="28" width="128" height="25">
<path d="M77.5391 33.6542C78.5391 39.6542 87.3391 51.4542 114.539 50.6542C148.539 49.6542 173.539 29.6542 200.039 30.1542" stroke="#C3932F" stroke-width="4" stroke-linecap="round"/>
</mask>
<g mask="url(#mask15_171_381)">
<path d="M77.5391 33.6542C78.5391 39.6542 87.3391 51.4542 114.539 50.6542C148.539 49.6542 173.539 29.6542 200.039 30.1542" stroke="#C3932F" stroke-width="4" stroke-linecap="round"/>
<path d="M75.5391 34.2663C76.5391 40.2663 87.3391 54.4544 114.539 53.6544C148.539 52.6544 175.539 31.7662 202.039 32.2662" stroke="#A97F27" stroke-width="4" stroke-linecap="round"/>
</g>
<mask id="mask16_171_381" style="mask-type:alpha" maskUnits="userSpaceOnUse" x="82" y="0" width="98" height="48">
<path d="M176.202 3.9311C178.223 6.10815 179.539 9.29879 179.539 13.6539C179.539 18.5978 176.839 23.1357 172.503 27.1413C168.166 31.1493 162.141 34.6731 155.362 37.6001C141.805 43.4538 125.115 46.969 112.546 47.1539C98.9078 47.3544 91.4018 45.1033 87.2967 42.1472C83.1508 39.1616 82.5389 35.5074 82.5391 33.1539C82.5391 30.3151 83.3138 28.0692 84.5911 26.523C85.8721 24.9723 87.6377 24.1539 89.5391 24.1539C90.6132 24.1539 91.716 24.421 92.5664 24.9879C93.4317 25.5647 94.0391 26.46 94.0391 27.6539C94.0391 28.8169 93.6886 29.6866 93.0391 30.1543C92.415 30.6036 92.0357 30.6543 91.5391 30.6543C91.2629 30.6543 90.5391 30.6543 90.0391 30.1543C89.5391 29.6543 89.5391 28.6543 90.0391 28.1543C90.5391 27.6543 88.9082 27.2851 88.0391 28.1543C87.5391 28.6543 86.0394 30.1543 86.0391 33.6543C86.0389 35.8008 86.2349 38.4149 90.0391 41.1543C93.8841 43.9232 98.9777 45.8537 112.539 45.6543C124.97 45.4715 141.539 41.6543 154.539 34.6543C161.039 31.1543 164.539 27.6543 168.539 23.6543C172.539 19.6543 173.733 16.3569 174.039 13.6543C174.345 10.9517 174.439 7.25353 173.039 5.1543C171.947 3.5158 170.039 2.1543 168.039 2.1543C165.539 2.1543 164.039 3.1543 163.186 3.9311C162.333 4.7079 161.539 6.6543 162.539 7.1543C163.539 7.6543 163.539 6.6543 164.539 6.1543C165.539 5.6543 166.539 5.6543 167.539 6.1543C168.539 6.6543 169.039 7.6543 169.039 8.1543C169.039 8.6543 169.194 9.968 168.466 10.9517C167.724 11.9537 166.338 12.6543 164.039 12.6543C162.195 12.6543 160.687 12.1263 159.635 11.1447C158.58 10.16 158.039 8.76884 158.039 7.15392C158.039 4.80097 159.464 2.93924 161.491 1.76089C163.515 0.584284 166.187 0.0530376 168.844 0.344634C171.506 0.636792 174.186 1.75905 176.202 3.9311Z" fill="#C3932F"/>
</mask>
<g mask="url(#mask16_171_381)">
<path d="M176.202 3.9311C178.223 6.10815 179.539 9.29879 179.539 13.6539C179.539 18.5978 176.839 23.1357 172.503 27.1413C168.166 31.1493 162.141 34.6731 155.362 37.6001C141.805 43.4538 125.115 46.969 112.546 47.1539C98.9078 47.3544 91.4018 45.1033 87.2967 42.1472C83.1508 39.1616 82.5389 35.5074 82.5391 33.1539C82.5391 30.3151 83.3138 28.0692 84.5911 26.523C85.8721 24.9723 87.6377 24.1539 89.5391 24.1539C90.6132 24.1539 91.716 24.421 92.5664 24.9879C93.4317 25.5647 94.0391 26.46 94.0391 27.6539C94.0391 28.8169 93.6886 29.6866 93.0391 30.1543C92.415 30.6036 92.0357 30.6543 91.5391 30.6543C91.2629 30.6543 90.5391 30.6543 90.0391 30.1543C89.5391 29.6543 89.5391 28.6543 90.0391 28.1543C90.5391 27.6543 88.9082 27.2851 88.0391 28.1543C87.5391 28.6543 86.0394 30.1543 86.0391 33.6543C86.0389 35.8008 86.2349 38.4149 90.0391 41.1543C93.8841 43.9232 98.9777 45.8537 112.539 45.6543C124.97 45.4715 141.539 41.6543 154.539 34.6543C161.039 31.1543 164.539 27.6543 168.539 23.6543C172.539 19.6543 173.733 16.3569 174.039 13.6543C174.345 10.9517 174.439 7.25353 173.039 5.1543C171.947 3.5158 170.039 2.1543 168.039 2.1543C165.539 2.1543 164.039 3.1543 163.186 3.9311C162.333 4.7079 161.539 6.6543 162.539 7.1543C163.539 7.6543 163.539 6.6543 164.539 6.1543C165.539 5.6543 166.539 5.6543 167.539 6.1543C168.539 6.6543 169.039 7.6543 169.039 8.1543C169.039 8.6543 169.194 9.968 168.466 10.9517C167.724 11.9537 166.338 12.6543 164.039 12.6543C162.195 12.6543 160.687 12.1263 159.635 11.1447C158.58 10.16 158.039 8.76884 158.039 7.15392C158.039 4.80097 159.464 2.93924 161.491 1.76089C163.515 0.584284 166.187 0.0530376 168.844 0.344634C171.506 0.636792 174.186 1.75905 176.202 3.9311Z" fill="#C3932F"/>
<path d="M178.039 3.76612C180.06 5.94317 181.164 9.76612 180.039 14.2661C178.539 20.2661 176.374 22.7605 172.039 26.7661C167.701 30.7741 162.141 34.6731 155.362 37.6002C141.805 43.4539 125.108 47.0813 112.539 47.2661C98.9004 47.4667 91.4018 45.1033 87.2967 42.1472C83.1508 39.1616 81.5389 35.6196 81.5391 33.2661M173.039 7.76612C173.206 6.09945 172.339 2.26612 167.539 2.26612C163.539 2.26612 162.206 4.76612 162.539 5.76612M157.039 8.26612C158.039 9.59945 160.839 12.2661 164.039 12.2661C168.039 12.2661 170.039 9.76612 170.039 9.26612" stroke="#A97F27" stroke-width="2" stroke-linecap="round"/>
<path d="M87.0391 31.7661C86.5395 29.2657 88.5394 26.2663 90.0394 27.7661M89.0391 29.7661C89.539 30.7661 92.0391 31.3661 94.0391 29.7661" stroke="#A97F27" stroke-linecap="round"/>
</g>
<mask id="mask17_171_381" style="mask-type:alpha" maskUnits="userSpaceOnUse" x="81" y="21" width="18" height="15">
<path fill-rule="evenodd" clip-rule="evenodd" d="M90.3593 23.1543C84.6498 23.1543 82.6394 26.4347 82.0135 28.3124C81.9262 28.5744 81.6431 28.716 81.3811 28.6286C81.1191 28.5413 80.9775 28.2582 81.0649 27.9962C81.7723 25.8739 84.2487 21.6543 90.5392 21.6543C94.8153 21.6543 98.0391 24.6543 98.5391 29.1543C98.9184 32.5681 97.6066 34.3705 96.0391 35.1543C93.0391 36.6543 90.5391 35.9043 89.0391 34.6543C88.7029 34.3741 88.5391 33.6543 89.0391 33.1543C89.5391 32.6543 90.1958 33.0758 90.5391 33.1543C92.2188 33.5384 93.4512 33.3342 94.5391 32.6543C95.6269 31.9744 96.5391 30.6543 96.5391 29.1543C96.5391 25.4304 94.0831 23.1543 90.3593 23.1543Z" fill="#C3932F"/>
</mask>
<g mask="url(#mask17_171_381)">
<path fill-rule="evenodd" clip-rule="evenodd" d="M90.3593 23.1543C84.6498 23.1543 82.6394 26.4347 82.0135 28.3124C81.9262 28.5744 81.6431 28.716 81.3811 28.6286C81.1191 28.5413 80.9775 28.2582 81.0649 27.9962C81.7723 25.8739 84.2487 21.6543 90.5392 21.6543C94.8153 21.6543 98.0391 24.6543 98.5391 29.1543C98.9184 32.5681 97.6066 34.3705 96.0391 35.1543C93.0391 36.6543 90.5391 35.9043 89.0391 34.6543C88.7029 34.3741 88.5391 33.6543 89.0391 33.1543C89.5391 32.6543 90.1958 33.0758 90.5391 33.1543C92.2188 33.5384 93.4512 33.3342 94.5391 32.6543C95.6269 31.9744 96.5391 30.6543 96.5391 29.1543C96.5391 25.4304 94.0831 23.1543 90.3593 23.1543Z" fill="#C3932F"/>
<path d="M99.0391 33.2661C96.7057 34.7661 91.2391 37.0661 88.0391 34.2661M96.0391 29.7661C96.0391 26.2661 95.0391 23.2661 90.5391 23.2661C85.5391 23.2661 82.5391 25.2661 82.0391 29.2661" stroke="#A97F27" stroke-linecap="round"/>
</g>
<mask id="mask18_171_381" style="mask-type:alpha" maskUnits="userSpaceOnUse" x="84" y="17" width="5" height="5">
<path d="M88.1796 19.1653C88.4551 19.6754 89.0396 20.6529 88.5396 20.6529C88.1796 20.6529 88.0396 19.1529 86.5396 19.1529C86.0396 19.1529 85.8039 19.6813 86.0396 20.1529C86.2754 20.6244 85.6973 21.1529 85.0396 21.1529C84.382 21.1529 84.0396 20.6515 84.0396 20.1529C84.0396 19.9034 84.0024 19.1887 84.5396 18.6529C85.4918 17.7023 87.3983 17.7184 88.1796 19.1653Z" fill="#C3932F"/>
</mask>
<g mask="url(#mask18_171_381)">
<path d="M88.1796 19.1653C88.4551 19.6754 89.0396 20.6529 88.5396 20.6529C88.1796 20.6529 88.0396 19.1529 86.5396 19.1529C86.0396 19.1529 85.8039 19.6813 86.0396 20.1529C86.2754 20.6244 85.6973 21.1529 85.0396 21.1529C84.382 21.1529 84.0396 20.6515 84.0396 20.1529C84.0396 19.9034 84.0024 19.1887 84.5396 18.6529C85.4918 17.7023 87.3983 17.7184 88.1796 19.1653Z" fill="#C3932F"/>
<path d="M83.5391 20.7662C84.0391 21.7662 85.539 21.7661 86.0391 20.766C86.5391 19.7661 86.0391 17.766 87.5391 20.2661" stroke="#A97F27" stroke-linecap="round"/>
</g>
</svg>
