<svg width="203" height="203" viewBox="0 0 203 203" fill="none" xmlns="http://www.w3.org/2000/svg">
<mask id="mask0_171_470" style="mask-type:alpha" maskUnits="userSpaceOnUse" x="181" y="30" width="22" height="50">
<path d="M183.237 42.7014C183.237 57.0057 191.738 72.2013 192.539 75.0047C195.539 83.0174 191.872 77.8248 191.039 75.9929C189.039 71.4929 181.539 58.5057 181.039 42.4351C181.039 36.1059 185.435 31.3345 192.028 30.5944C197 30.0366 199.671 31.9746 200.82 34.2947C203.018 38.7351 201.919 42.4353 200.087 44.6555C199.677 45.1531 198.622 45.3955 197.889 44.6555C197.157 43.9154 197.774 42.9434 197.889 42.4353C198.452 39.949 198.153 38.125 197.157 36.5149C196.16 34.9047 194.226 33.5547 192.028 33.5547C186.572 33.5547 183.237 37.1896 183.237 42.7014Z" fill="#C3932F"/>
</mask>
<g mask="url(#mask0_171_470)">
<path d="M183.237 42.7014C183.237 57.0057 191.738 72.2013 192.539 75.0047C195.539 83.0174 191.872 77.8248 191.039 75.9929C189.039 71.4929 181.539 58.5057 181.039 42.4351C181.039 36.1059 185.435 31.3345 192.028 30.5944C197 30.0366 199.671 31.9746 200.82 34.2947C203.018 38.7351 201.919 42.4353 200.087 44.6555C199.677 45.1531 198.622 45.3955 197.889 44.6555C197.157 43.9154 197.774 42.9434 197.889 42.4353C198.452 39.949 198.153 38.125 197.157 36.5149C196.16 34.9047 194.226 33.5547 192.028 33.5547C186.572 33.5547 183.237 37.1896 183.237 42.7014Z" fill="#C3932F"/>
<path d="M184.14 44.2486C184.14 57.4266 191.832 71.4257 192.556 74.0084C195.27 81.3902 191.953 76.6064 191.199 74.9188C189.389 70.7731 182.604 58.8085 182.151 44.0032C182.151 38.1724 185.5 33.7417 192 33.7417L192.094 35.822C187.157 35.822 184.14 39.1708 184.14 44.2486Z" fill="#A97F27"/>
<path d="M186.5 31.7418C190.5 29.2419 200 30.2417 202.5 36.7417" stroke="#A97F27" stroke-linecap="round"/>
</g>
<mask id="mask1_171_470" style="mask-type:alpha" maskUnits="userSpaceOnUse" x="49" y="5" width="148" height="149">
<path d="M175.567 151.334C175.749 152.423 176.779 153.159 177.869 152.978C185.264 151.745 197.354 141.666 196.539 113.946C196.028 96.5857 190.654 81.3832 185.588 67.4131L185.218 66.3931C180.253 52.7111 175.764 40.3423 176 27.848C176 26.2781 175 25.791 173.963 25.8106C161.462 26.0464 149.143 21.6081 135.515 16.6986L134.508 16.3359C120.594 11.3262 105.451 6.01137 88.0943 5.50087C60.3746 4.68558 50.2953 16.7755 49.0627 24.1712C48.8811 25.2607 49.6171 26.2912 50.7067 26.4728C51.7962 26.6544 52.8267 25.9183 53.0083 24.8288C53.7756 20.2245 61.2964 8.71442 87.9767 9.49913C104.619 9.98864 119.209 15.0789 133.153 20.0994C133.598 20.2595 134.042 20.4196 134.486 20.5796C147.156 25.1468 159.457 29.5808 172.001 29.8102C172.235 42.3588 176.72 54.7096 181.337 67.4268C181.501 67.8764 181.664 68.3264 181.827 68.7769C186.906 82.7791 192.051 97.4239 192.541 114.064C193.325 140.744 181.815 148.265 177.211 149.032C176.121 149.214 175.385 150.244 175.567 151.334Z" fill="#C3932F"/>
</mask>
<g mask="url(#mask1_171_470)">
<path d="M175.567 151.334C175.749 152.423 176.779 153.159 177.869 152.978C185.264 151.745 197.354 141.666 196.539 113.946C196.028 96.5857 190.654 81.3832 185.588 67.4131L185.218 66.3931C180.253 52.7111 175.764 40.3423 176 27.848C176 26.2781 175 25.791 173.963 25.8106C161.462 26.0464 149.143 21.6081 135.515 16.6986L134.508 16.3359C120.594 11.3262 105.451 6.01137 88.0943 5.50087C60.3746 4.68558 50.2953 16.7755 49.0627 24.1712C48.8811 25.2607 49.6171 26.2912 50.7067 26.4728C51.7962 26.6544 52.8267 25.9183 53.0083 24.8288C53.7756 20.2245 61.2964 8.71442 87.9767 9.49913C104.619 9.98864 119.209 15.0789 133.153 20.0994C133.598 20.2595 134.042 20.4196 134.486 20.5796C147.156 25.1468 159.457 29.5808 172.001 29.8102C172.235 42.3588 176.72 54.7096 181.337 67.4268C181.501 67.8764 181.664 68.3264 181.827 68.7769C186.906 82.7791 192.051 97.4239 192.541 114.064C193.325 140.744 181.815 148.265 177.211 149.032C176.121 149.214 175.385 150.244 175.567 151.334Z" fill="#C3932F"/>
<path d="M49.0342 23.8882C50.0342 17.8882 60.8342 3.70019 88.0342 4.50019C122.034 5.50019 149.5 26.3105 176 25.8105C175.5 52.3105 195.5 78.2417 198.5 113.742M174 149.742C182.5 148.742 189.5 140.242 190 127.242" stroke="#A97F27" stroke-width="4" stroke-linecap="round"/>
</g>
<mask id="mask2_171_470" style="mask-type:alpha" maskUnits="userSpaceOnUse" x="144" y="49" width="48" height="98">
<path d="M147.816 52.3416C149.993 50.3206 153.184 49.0049 157.539 49.0049C162.483 49.0049 167.021 51.7052 171.027 56.0406C175.035 60.3784 178.558 66.4028 181.485 73.1817C187.339 86.7388 190.854 103.428 191.039 115.998C191.24 129.636 188.989 137.142 186.032 141.247C183.047 145.393 179.393 146.005 177.039 146.005C174.2 146.005 171.954 145.23 170.408 143.953C168.858 142.672 168.039 140.906 168.039 139.005C168.039 137.931 168.306 136.828 168.873 135.978C169.45 135.112 170.345 134.505 171.539 134.505C172.702 134.505 173.572 134.855 174.04 135.505C174.489 136.129 174.54 136.508 174.54 137.005C174.54 137.281 174.54 138.005 174.04 138.505C173.54 139.005 172.54 139.005 172.04 138.505C171.54 138.005 171.17 139.636 172.04 140.505C172.54 141.005 174.04 142.505 177.54 142.505C179.686 142.505 182.3 142.309 185.04 138.505C187.808 134.66 189.739 129.566 189.54 116.005C189.357 103.574 185.54 87.0049 178.54 74.0049C175.04 67.5049 171.54 64.0049 167.54 60.0049C163.54 56.0049 160.242 54.8112 157.54 54.5049C154.837 54.1985 151.139 54.1054 149.04 55.5049C147.401 56.5972 146.04 58.5049 146.04 60.5049C146.04 63.0049 147.04 64.5049 147.816 65.358C148.593 66.211 150.54 67.0049 151.04 66.0049C151.54 65.0049 150.54 65.0049 150.04 64.0049C149.54 63.0049 149.54 62.0049 150.04 61.0049C150.54 60.0049 151.54 59.5049 152.04 59.5049C152.54 59.5049 153.853 59.35 154.837 60.078C155.839 60.8195 156.54 62.2059 156.54 64.5049C156.54 66.3487 156.012 67.857 155.03 68.9086C154.045 69.9636 152.654 70.5049 151.039 70.5049C148.686 70.5049 146.824 69.0802 145.646 67.053C144.47 65.0289 143.938 62.3571 144.23 59.7003C144.522 57.0384 145.644 54.3579 147.816 52.3416Z" fill="#C3932F"/>
</mask>
<g mask="url(#mask2_171_470)">
<path d="M147.816 52.3416C149.993 50.3206 153.184 49.0049 157.539 49.0049C162.483 49.0049 167.021 51.7052 171.027 56.0406C175.035 60.3784 178.558 66.4028 181.485 73.1817C187.339 86.7388 190.854 103.428 191.039 115.998C191.24 129.636 188.989 137.142 186.032 141.247C183.047 145.393 179.393 146.005 177.039 146.005C174.2 146.005 171.954 145.23 170.408 143.953C168.858 142.672 168.039 140.906 168.039 139.005C168.039 137.931 168.306 136.828 168.873 135.978C169.45 135.112 170.345 134.505 171.539 134.505C172.702 134.505 173.572 134.855 174.04 135.505C174.489 136.129 174.54 136.508 174.54 137.005C174.54 137.281 174.54 138.005 174.04 138.505C173.54 139.005 172.54 139.005 172.04 138.505C171.54 138.005 171.17 139.636 172.04 140.505C172.54 141.005 174.04 142.505 177.54 142.505C179.686 142.505 182.3 142.309 185.04 138.505C187.808 134.66 189.739 129.566 189.54 116.005C189.357 103.574 185.54 87.0049 178.54 74.0049C175.04 67.5049 171.54 64.0049 167.54 60.0049C163.54 56.0049 160.242 54.8112 157.54 54.5049C154.837 54.1985 151.139 54.1054 149.04 55.5049C147.401 56.5972 146.04 58.5049 146.04 60.5049C146.04 63.0049 147.04 64.5049 147.816 65.358C148.593 66.211 150.54 67.0049 151.04 66.0049C151.54 65.0049 150.54 65.0049 150.04 64.0049C149.54 63.0049 149.54 62.0049 150.04 61.0049C150.54 60.0049 151.54 59.5049 152.04 59.5049C152.54 59.5049 153.853 59.35 154.837 60.078C155.839 60.8195 156.54 62.2059 156.54 64.5049C156.54 66.3487 156.012 67.857 155.03 68.9086C154.045 69.9636 152.654 70.5049 151.039 70.5049C148.686 70.5049 146.824 69.0802 145.646 67.053C144.47 65.0289 143.938 62.3571 144.23 59.7003C144.522 57.0384 145.644 54.3579 147.816 52.3416Z" fill="#C3932F"/>
<path d="M145.5 53.7417C147.677 51.7207 153.375 48.8859 158 49.2417C164.5 49.7417 166.646 52.1695 170.651 56.5049C174.659 60.8427 178.558 66.4028 181.485 73.1817C187.339 86.7388 190.967 103.436 191.151 116.005C191.352 129.644 188.989 137.142 186.032 141.247C183.047 145.393 179.505 147.005 177.151 147.005M152.151 57.2417C150.151 57.2417 147 57.7417 147 62.2417C147 64.979 149 66.2417 150 65.7417M156.5 59.7417C153 58.2417 149 60.2417 149 63.7417" stroke="#A97F27" stroke-width="2" stroke-linecap="round"/>
<path d="M180.5 141.741C175.5 144.742 170 140.742 171.652 138.505M175 136.742C174 133.742 169 134.742 168 136.742" stroke="#A97F27" stroke-linecap="round"/>
</g>
<mask id="mask3_171_470" style="mask-type:alpha" maskUnits="userSpaceOnUse" x="165" y="129" width="15" height="19">
<path fill-rule="evenodd" clip-rule="evenodd" d="M167.039 138.185C167.039 143.894 170.319 145.905 172.197 146.53C172.459 146.618 172.601 146.901 172.513 147.163C172.426 147.425 172.143 147.566 171.881 147.479C169.759 146.772 165.539 144.295 165.539 138.005C165.539 133.729 168.539 130.505 173.039 130.005C176.453 129.626 178.255 130.937 179.039 132.505C180.539 135.505 179.789 138.005 178.539 139.505C178.259 139.841 177.539 140.005 177.039 139.505C176.539 139.005 176.961 138.348 177.039 138.005C177.423 136.325 177.219 135.093 176.539 134.005C175.859 132.917 174.539 132.005 173.039 132.005C169.315 132.005 167.039 134.461 167.039 138.185Z" fill="#C3932F"/>
</mask>
<g mask="url(#mask3_171_470)">
<path fill-rule="evenodd" clip-rule="evenodd" d="M167.039 138.185C167.039 143.894 170.319 145.905 172.197 146.53C172.459 146.618 172.601 146.901 172.513 147.163C172.426 147.425 172.143 147.566 171.881 147.479C169.759 146.772 165.539 144.295 165.539 138.005C165.539 133.729 168.539 130.505 173.039 130.005C176.453 129.626 178.255 130.937 179.039 132.505C180.539 135.505 179.789 138.005 178.539 139.505C178.259 139.841 177.539 140.005 177.039 139.505C176.539 139.005 176.961 138.348 177.039 138.005C177.423 136.325 177.219 135.093 176.539 134.005C175.859 132.917 174.539 132.005 173.039 132.005C169.315 132.005 167.039 134.461 167.039 138.185Z" fill="#C3932F"/>
<path d="M173 133.242C169.5 133.242 167 135.242 167 138.742C167 143.742 170.5 146.242 173.15 146.505" stroke="#A97F27" stroke-linecap="round"/>
<path d="M167.5 131.242C171 129.241 175.5 128.742 178 130.742C180.035 132.37 181 135.242 181 136.742M175.5 139.742C177 138.242 176.5 135.242 175 133.742" stroke="#A97F27" stroke-width="2" stroke-linecap="round"/>
</g>
<mask id="mask4_171_470" style="mask-type:alpha" maskUnits="userSpaceOnUse" x="161" y="139" width="5" height="6">
<path d="M163.05 140.364C163.56 140.089 164.538 139.504 164.538 140.004C164.538 140.364 163.038 140.504 163.038 142.004C163.038 142.504 163.566 142.74 164.038 142.504C164.509 142.269 165.038 142.847 165.038 143.504C165.038 144.162 164.536 144.504 164.038 144.504C163.788 144.504 163.073 144.542 162.538 144.004C161.587 143.052 161.603 141.146 163.05 140.364Z" fill="#C3932F"/>
</mask>
<g mask="url(#mask4_171_470)">
<path d="M163.05 140.364C163.56 140.089 164.538 139.504 164.538 140.004C164.538 140.364 163.038 140.504 163.038 142.004C163.038 142.504 163.566 142.74 164.038 142.504C164.509 142.269 165.038 142.847 165.038 143.504C165.038 144.162 164.536 144.504 164.038 144.504C163.788 144.504 163.073 144.542 162.538 144.004C161.587 143.052 161.603 141.146 163.05 140.364Z" fill="#C3932F"/>
<path d="M164.501 142.242C164 142.742 162.5 142.742 164.151 141.005M161 143.742C161 141.242 163 139.742 165 139.242" stroke="#A97F27" stroke-linecap="round"/>
</g>
<mask id="mask5_171_470" style="mask-type:alpha" maskUnits="userSpaceOnUse" x="143" y="149" width="22" height="50">
<path d="M162.695 186.045C162.695 171.741 154.193 156.545 153.393 153.742C150.393 145.729 154.059 150.922 154.893 152.753C156.893 157.253 164.393 170.241 164.893 186.311C164.893 192.64 160.497 197.412 153.903 198.152C148.901 198.713 146.26 196.772 145.112 194.452C142.914 190.011 144.013 186.311 145.845 184.091C146.255 183.593 147.31 183.351 148.042 184.091C148.775 184.831 148.157 185.803 148.042 186.311C147.48 188.797 147.779 190.621 148.775 192.232C149.771 193.842 151.705 195.192 153.903 195.192C159.36 195.192 162.695 191.557 162.695 186.045Z" fill="#C3932F"/>
</mask>
<g mask="url(#mask5_171_470)">
<path d="M162.695 186.045C162.695 171.741 154.193 156.545 153.393 153.742C150.393 145.729 154.059 150.922 154.893 152.753C156.893 157.253 164.393 170.241 164.893 186.311C164.893 192.64 160.497 197.412 153.903 198.152C148.901 198.713 146.26 196.772 145.112 194.452C142.914 190.011 144.013 186.311 145.845 184.091C146.255 183.593 147.31 183.351 148.042 184.091C148.775 184.831 148.157 185.803 148.042 186.311C147.48 188.797 147.779 190.621 148.775 192.232C149.771 193.842 151.705 195.192 153.903 195.192C159.36 195.192 162.695 191.557 162.695 186.045Z" fill="#C3932F"/>
<path d="M161.793 185.498C161.793 172.32 152.724 154.824 152 152.242C149.286 144.86 153.98 153.14 154.734 154.828C156.543 158.974 163.329 170.938 163.781 185.743C163.781 191.574 159.804 195.97 153.839 196.652C149.313 197.169 146.923 195.38 145.884 193.243C143.896 189.152 144.89 185.743 146.547 183.698C146.919 183.239 147.873 183.016 148.536 183.698C149.199 184.38 148.64 185.275 148.536 185.743C148.027 188.034 148.297 189.714 149.199 191.197C150.1 192.681 151.85 193.925 153.839 193.925C158.775 193.925 161.793 190.576 161.793 185.498Z" fill="#A97F27"/>
</g>
<mask id="mask6_171_470" style="mask-type:alpha" maskUnits="userSpaceOnUse" x="149" y="75" width="25" height="128">
<path d="M168.393 77.7417C162.393 78.7417 150.593 87.5417 151.393 114.742C152.393 148.742 172.393 173.742 171.893 200.242" stroke="#C3932F" stroke-width="4" stroke-linecap="round"/>
</mask>
<g mask="url(#mask6_171_470)">
<path d="M168.393 77.7417C162.393 78.7417 150.593 87.5417 151.393 114.742C152.393 148.742 172.393 173.742 171.893 200.242" stroke="#C3932F" stroke-width="4" stroke-linecap="round"/>
<path d="M168.5 75.7417C161 75.7417 147.593 87.5417 148.393 114.742C148.849 130.242 148.393 132.742 150 141.742" stroke="#A97F27" stroke-width="4" stroke-linecap="round"/>
<path d="M173.999 187.242C169.999 174.242 162.735 154.15 159.5 146.242C156.265 138.334 151.499 111.242 161 107.742" stroke="#A97F27" stroke-width="2" stroke-linecap="round"/>
</g>
<mask id="mask7_171_470" style="mask-type:alpha" maskUnits="userSpaceOnUse" x="154" y="82" width="48" height="98">
<path d="M198.116 176.405C195.939 178.426 192.749 179.742 188.393 179.742C183.45 179.742 178.912 177.041 174.906 172.706C170.898 168.368 167.374 162.344 164.447 155.565C158.594 142.008 155.078 125.318 154.893 112.749C154.693 99.1104 156.944 91.6044 159.9 87.4994C162.886 83.3534 166.54 82.7415 168.893 82.7417C171.732 82.7417 173.978 83.5164 175.524 84.7937C177.075 86.0748 177.893 87.8403 177.893 89.7417C177.893 90.8159 177.626 91.9186 177.059 92.769C176.483 93.6343 175.587 94.2417 174.393 94.2417C173.23 94.2417 172.361 93.8913 171.893 93.2417C171.444 92.6176 171.393 92.2384 171.393 91.7417C171.393 91.4656 171.393 90.7417 171.893 90.2417C172.393 89.7417 173.393 89.7417 173.893 90.2417C174.393 90.7417 174.762 89.1109 173.893 88.2417C173.393 87.7417 171.893 86.242 168.393 86.2417C166.247 86.2415 163.632 86.4376 160.893 90.2417C158.124 94.0868 156.194 99.1803 156.393 112.742C156.576 125.173 160.393 141.742 167.393 154.742C170.893 161.242 174.393 164.742 178.393 168.742C182.393 172.742 185.69 173.935 188.393 174.242C191.096 174.548 194.794 174.641 196.893 173.242C198.532 172.149 199.893 170.242 199.893 168.242C199.893 165.742 198.893 164.242 198.116 163.389C197.339 162.536 195.393 161.742 194.893 162.742C194.393 163.742 195.393 163.742 195.893 164.742C196.393 165.742 196.393 166.742 195.893 167.742C195.393 168.742 194.393 169.242 193.893 169.242C193.393 169.242 192.079 169.397 191.096 168.669C190.094 167.927 189.393 166.541 189.393 164.242C189.393 162.398 189.921 160.89 190.903 159.838C191.887 158.783 193.279 158.242 194.893 158.242C197.246 158.242 199.108 159.666 200.286 161.694C201.463 163.718 201.994 166.389 201.703 169.046C201.411 171.708 200.288 174.389 198.116 176.405Z" fill="#C3932F"/>
</mask>
<g mask="url(#mask7_171_470)">
<path d="M198.116 176.405C195.939 178.426 192.749 179.742 188.393 179.742C183.45 179.742 178.912 177.041 174.906 172.706C170.898 168.368 167.374 162.344 164.447 155.565C158.594 142.008 155.078 125.318 154.893 112.749C154.693 99.1104 156.944 91.6044 159.9 87.4994C162.886 83.3534 166.54 82.7415 168.893 82.7417C171.732 82.7417 173.978 83.5164 175.524 84.7937C177.075 86.0748 177.893 87.8403 177.893 89.7417C177.893 90.8159 177.626 91.9186 177.059 92.769C176.483 93.6343 175.587 94.2417 174.393 94.2417C173.23 94.2417 172.361 93.8913 171.893 93.2417C171.444 92.6176 171.393 92.2384 171.393 91.7417C171.393 91.4656 171.393 90.7417 171.893 90.2417C172.393 89.7417 173.393 89.7417 173.893 90.2417C174.393 90.7417 174.762 89.1109 173.893 88.2417C173.393 87.7417 171.893 86.242 168.393 86.2417C166.247 86.2415 163.632 86.4376 160.893 90.2417C158.124 94.0868 156.194 99.1803 156.393 112.742C156.576 125.173 160.393 141.742 167.393 154.742C170.893 161.242 174.393 164.742 178.393 168.742C182.393 172.742 185.69 173.935 188.393 174.242C191.096 174.548 194.794 174.641 196.893 173.242C198.532 172.149 199.893 170.242 199.893 168.242C199.893 165.742 198.893 164.242 198.116 163.389C197.339 162.536 195.393 161.742 194.893 162.742C194.393 163.742 195.393 163.742 195.893 164.742C196.393 165.742 196.393 166.742 195.893 167.742C195.393 168.742 194.393 169.242 193.893 169.242C193.393 169.242 192.079 169.397 191.096 168.669C190.094 167.927 189.393 166.541 189.393 164.242C189.393 162.398 189.921 160.89 190.903 159.838C191.887 158.783 193.279 158.242 194.893 158.242C197.246 158.242 199.108 159.666 200.286 161.694C201.463 163.718 201.994 166.389 201.703 169.046C201.411 171.708 200.288 174.389 198.116 176.405Z" fill="#C3932F"/>
<path d="M198.5 169.242C198.5 174.242 193 175.367 188.5 174.242C182.5 172.742 180.006 170.577 176 166.242C171.992 161.904 168.093 156.344 165.166 149.565C159.312 136.008 157 119.242 157.5 106.742M159 87.2417C163 81.7417 176 82.2417 178.5 87.2419M192.5 170.242C194 170.242 195.5 168.242 196 167.242C196.5 166.242 196.5 165.242 195.5 164.242M201.5 161.242C201.5 159.242 198 158.242 195.5 158.242C193 158.242 188 160.242 188 163.242" stroke="#A97F27" stroke-width="2" stroke-linecap="round"/>
<path d="M170.281 87.2415C172.782 86.7419 175.781 88.7418 174.282 90.2418C173.5 90.7417 172 89.2417 171 91.2417" stroke="#A97F27" stroke-linecap="round"/>
</g>
<mask id="mask8_171_470" style="mask-type:alpha" maskUnits="userSpaceOnUse" x="166" y="81" width="15" height="18">
<path fill-rule="evenodd" clip-rule="evenodd" d="M178.893 90.5619C178.893 84.8524 175.612 82.8421 173.734 82.2162C173.472 82.1289 173.331 81.8457 173.418 81.5837C173.506 81.3217 173.789 81.1802 174.051 81.2675C176.173 81.9749 180.393 84.4514 180.393 90.7418C180.393 95.018 177.393 98.2417 172.893 98.7417C169.479 99.121 167.676 97.8092 166.893 96.2417C165.393 93.2417 166.143 90.7417 167.393 89.2417C167.673 88.9055 168.393 88.7417 168.893 89.2417C169.393 89.7417 168.971 90.3984 168.893 90.7417C168.508 92.4215 168.713 93.6538 169.393 94.7417C170.072 95.8296 171.393 96.7417 172.893 96.7417C176.616 96.7417 178.893 94.2858 178.893 90.5619Z" fill="#C3932F"/>
</mask>
<g mask="url(#mask8_171_470)">
<path fill-rule="evenodd" clip-rule="evenodd" d="M178.893 90.5619C178.893 84.8524 175.612 82.8421 173.734 82.2162C173.472 82.1289 173.331 81.8457 173.418 81.5837C173.506 81.3217 173.789 81.1802 174.051 81.2675C176.173 81.9749 180.393 84.4514 180.393 90.7418C180.393 95.018 177.393 98.2417 172.893 98.7417C169.479 99.121 167.676 97.8092 166.893 96.2417C165.393 93.2417 166.143 90.7417 167.393 89.2417C167.673 88.9055 168.393 88.7417 168.893 89.2417C169.393 89.7417 168.971 90.3984 168.893 90.7417C168.508 92.4215 168.713 93.6538 169.393 94.7417C170.072 95.8296 171.393 96.7417 172.893 96.7417C176.616 96.7417 178.893 94.2858 178.893 90.5619Z" fill="#C3932F"/>
<path d="M167.5 88.7417C171.5 88.7417 165.5 95.6584 172 96.7417C175 97.2417 178.78 95.7417 178.78 90.7417C178.78 85.7417 176.78 82.7417 172.78 82.2417" stroke="#A97F27" stroke-linecap="round"/>
</g>
<mask id="mask9_171_470" style="mask-type:alpha" maskUnits="userSpaceOnUse" x="180" y="84" width="5" height="5">
<path d="M182.882 88.3822C182.371 88.6577 181.394 89.2423 181.394 88.7423C181.394 88.3822 182.894 88.2423 182.894 86.7423C182.894 86.2423 182.366 86.0065 181.894 86.2423C181.422 86.478 180.894 85.8999 180.894 85.2423C180.894 84.5846 181.395 84.2423 181.894 84.2423C182.143 84.2423 182.858 84.205 183.394 84.7423C184.345 85.6944 184.328 87.6009 182.882 88.3822Z" fill="#C3932F"/>
</mask>
<g mask="url(#mask9_171_470)">
<path d="M182.882 88.3822C182.371 88.6577 181.394 89.2423 181.394 88.7423C181.394 88.3822 182.894 88.2423 182.894 86.7423C182.894 86.2423 182.366 86.0065 181.894 86.2423C181.422 86.478 180.894 85.8999 180.894 85.2423C180.894 84.5846 181.395 84.2423 181.894 84.2423C182.143 84.2423 182.858 84.205 183.394 84.7423C184.345 85.6944 184.328 87.6009 182.882 88.3822Z" fill="#C3932F"/>
<path d="M184.5 85.2421C183.5 84.242 181.781 83.8672 180.5 85.2418M181 88.2417C182 88.2417 183 87.2417 182 86.7417" stroke="#A97F27" stroke-linecap="round"/>
</g>
<mask id="mask10_171_470" style="mask-type:alpha" maskUnits="userSpaceOnUse" x="122" y="0" width="50" height="21">
<path d="M159.338 18.8022C145.033 18.8022 129.838 10.3007 127.034 9.5C119.022 6.5 124.214 10.1667 126.046 11C130.546 13 143.533 20.5 159.604 21C165.933 21 170.705 16.6043 171.445 10.0108C172 5.2417 170.064 2.36775 167.744 1.21936C163.304 -0.978492 159.604 0.120432 157.384 1.95197C156.886 2.36249 156.644 3.41721 157.384 4.14982C158.124 4.88244 159.096 4.26484 159.604 4.14982C162.09 3.58701 163.914 3.88622 165.524 4.88244C167.134 5.87866 168.484 7.8129 168.484 10.0108C168.484 15.4671 164.849 18.8022 159.338 18.8022Z" fill="#C3932F"/>
</mask>
<g mask="url(#mask10_171_470)">
<path d="M159.338 18.8022C145.033 18.8022 129.838 10.3007 127.034 9.5C119.022 6.5 124.214 10.1667 126.046 11C130.546 13 143.533 20.5 159.604 21C165.933 21 170.705 16.6043 171.445 10.0108C172 5.2417 170.064 2.36775 167.744 1.21936C163.304 -0.978492 159.604 0.120432 157.384 1.95197C156.886 2.36249 156.644 3.41721 157.384 4.14982C158.124 4.88244 159.096 4.26484 159.604 4.14982C162.09 3.58701 163.914 3.88622 165.524 4.88244C167.134 5.87866 168.484 7.8129 168.484 10.0108C168.484 15.4671 164.849 18.8022 159.338 18.8022Z" fill="#C3932F"/>
<path d="M158.79 17.8997C145.612 17.8997 131.613 10.2078 129.031 9.48342C121.649 6.76914 126.432 10.0866 128.12 10.8406C132.266 12.6501 144.23 19.4358 159.036 19.8882C164.867 19.8882 169.262 15.9111 169.944 9.94553C170.461 5.41987 168.673 3.03043 166.535 1.99141C162.445 0.00288054 159.036 0.997145 156.99 2.65426C156.532 3.02568 156.308 3.97994 156.99 4.64278C157.672 5.30563 158.568 4.74684 159.036 4.64278C161.326 4.13357 163.007 4.40428 164.49 5.30563C165.973 6.20697 167.217 7.957 167.217 9.94553C167.217 14.8822 163.868 17.8997 158.79 17.8997Z" fill="#A97F27"/>
</g>
<mask id="mask11_171_470" style="mask-type:alpha" maskUnits="userSpaceOnUse" x="56" y="10" width="98" height="48">
<path d="M149.697 54.2232C151.718 52.0461 153.034 48.8555 153.034 44.5004C153.034 39.5565 150.334 35.0186 145.998 31.013C141.661 27.005 135.636 23.4812 128.857 20.5542C115.3 14.7005 98.6106 11.1853 86.0415 11.0004C72.4029 10.7999 64.8969 13.051 60.7918 16.0071C56.6459 18.9927 56.034 22.6469 56.0342 25.0004C56.0342 27.8392 56.8089 30.0851 58.0862 31.6313C59.3672 33.182 61.1328 34.0004 63.0342 34.0004C64.1084 34.0004 65.2111 33.7333 66.0615 33.1664C66.9268 32.5896 67.5342 31.6943 67.5342 30.5004C67.5342 29.3374 67.1838 28.4677 66.5342 28C65.9101 27.5507 65.5309 27.5 65.0342 27.5C64.758 27.5 64.0342 27.5 63.5342 28C63.0342 28.5 63.0342 29.5 63.5342 30C64.0342 30.5 62.4033 30.8692 61.5342 30C61.0342 29.5 59.5345 28 59.5342 24.5C59.534 22.3535 59.73 19.7394 63.5342 17C67.3792 14.2311 72.4728 12.3006 86.0342 12.5C98.4651 12.6828 115.034 16.5 128.034 23.5C134.534 27 138.034 30.5 142.034 34.5C146.034 38.5 147.228 41.7974 147.534 44.5C147.841 47.2026 147.934 50.9008 146.534 53C145.442 54.6385 143.534 56 141.534 56C139.034 56 137.534 55 136.681 54.2232C135.828 53.4464 135.034 51.5 136.034 51C137.034 50.5 137.034 51.5 138.034 52C139.034 52.5 140.034 52.5 141.034 52C142.034 51.5 142.534 50.5 142.534 50C142.534 49.5 142.689 48.1863 141.961 47.2026C141.22 46.2006 139.833 45.5 137.534 45.5C135.69 45.5 134.182 46.028 133.131 47.0096C132.075 47.9943 131.534 49.3855 131.534 51.0004C131.534 53.3533 132.959 55.2151 134.986 56.3934C137.01 57.57 139.682 58.1013 142.339 57.8097C145.001 57.5175 147.681 56.3952 149.697 54.2232Z" fill="#C3932F"/>
</mask>
<g mask="url(#mask11_171_470)">
<path d="M149.697 54.2232C151.718 52.0461 153.034 48.8555 153.034 44.5004C153.034 39.5565 150.334 35.0186 145.998 31.013C141.661 27.005 135.636 23.4812 128.857 20.5542C115.3 14.7005 98.6106 11.1853 86.0415 11.0004C72.4029 10.7999 64.8969 13.051 60.7918 16.0071C56.6459 18.9927 56.034 22.6469 56.0342 25.0004C56.0342 27.8392 56.8089 30.0851 58.0862 31.6313C59.3672 33.182 61.1328 34.0004 63.0342 34.0004C64.1084 34.0004 65.2111 33.7333 66.0615 33.1664C66.9268 32.5896 67.5342 31.6943 67.5342 30.5004C67.5342 29.3374 67.1838 28.4677 66.5342 28C65.9101 27.5507 65.5309 27.5 65.0342 27.5C64.758 27.5 64.0342 27.5 63.5342 28C63.0342 28.5 63.0342 29.5 63.5342 30C64.0342 30.5 62.4033 30.8692 61.5342 30C61.0342 29.5 59.5345 28 59.5342 24.5C59.534 22.3535 59.73 19.7394 63.5342 17C67.3792 14.2311 72.4728 12.3006 86.0342 12.5C98.4651 12.6828 115.034 16.5 128.034 23.5C134.534 27 138.034 30.5 142.034 34.5C146.034 38.5 147.228 41.7974 147.534 44.5C147.841 47.2026 147.934 50.9008 146.534 53C145.442 54.6385 143.534 56 141.534 56C139.034 56 137.534 55 136.681 54.2232C135.828 53.4464 135.034 51.5 136.034 51C137.034 50.5 137.034 51.5 138.034 52C139.034 52.5 140.034 52.5 141.034 52C142.034 51.5 142.534 50.5 142.534 50C142.534 49.5 142.689 48.1863 141.961 47.2026C141.22 46.2006 139.833 45.5 137.534 45.5C135.69 45.5 134.182 46.028 133.131 47.0096C132.075 47.9943 131.534 49.3855 131.534 51.0004C131.534 53.3533 132.959 55.2151 134.986 56.3934C137.01 57.57 139.682 58.1013 142.339 57.8097C145.001 57.5175 147.681 56.3952 149.697 54.2232Z" fill="#C3932F"/>
<path d="M151.534 54.3882C153.555 52.2111 154.659 48.3882 153.534 43.8882C152.034 37.8882 149.87 35.3938 145.534 31.3882C141.196 27.3802 135.636 23.4812 128.857 20.5541C115.3 14.7004 98.6033 11.073 86.0342 10.8882C72.3955 10.6876 64.8969 13.051 60.7918 16.0071C56.6459 18.9926 55.034 22.5347 55.0342 24.8882M146.534 50.3882C146.701 52.0549 145.834 55.8882 141.034 55.8882C137.034 55.8882 135.701 53.3882 136.034 52.3882M130.534 49.8882C131.534 48.5549 134.334 45.8882 137.534 45.8882C141.534 45.8882 143.534 48.3882 143.534 48.8882" stroke="#A97F27" stroke-width="2" stroke-linecap="round"/>
<path d="M60.5343 26.3882C60.0346 28.8886 62.0345 31.888 63.5345 30.3882M62.5342 28.3882C63.0341 27.3882 65.5342 26.7882 67.5342 28.3882" stroke="#A97F27" stroke-linecap="round"/>
</g>
<mask id="mask12_171_470" style="mask-type:alpha" maskUnits="userSpaceOnUse" x="54" y="22" width="19" height="15">
<path fill-rule="evenodd" clip-rule="evenodd" d="M63.8544 35C58.1449 35 56.1346 31.7196 55.5087 29.8419C55.4213 29.5799 55.1382 29.4383 54.8762 29.5257C54.6142 29.613 54.4726 29.8961 54.56 30.1581C55.2674 32.2804 57.7438 36.5 64.0343 36.5C68.3105 36.5 71.5342 33.5 72.0342 29C72.4135 25.5862 71.1017 23.7838 69.5342 23C66.5342 21.5 64.0342 22.25 62.5342 23.5C62.198 23.7802 62.0342 24.5 62.5342 25C63.0342 25.5 63.6909 25.0785 64.0342 25C65.714 24.6159 66.9463 24.8201 68.0342 25.5C69.122 26.1799 70.0342 27.5 70.0342 29C70.0342 32.7239 67.5783 35 63.8544 35Z" fill="#C3932F"/>
</mask>
<g mask="url(#mask12_171_470)">
<path fill-rule="evenodd" clip-rule="evenodd" d="M63.8544 35C58.1449 35 56.1346 31.7196 55.5087 29.8419C55.4213 29.5799 55.1382 29.4383 54.8762 29.5257C54.6142 29.613 54.4726 29.8961 54.56 30.1581C55.2674 32.2804 57.7438 36.5 64.0343 36.5C68.3105 36.5 71.5342 33.5 72.0342 29C72.4135 25.5862 71.1017 23.7838 69.5342 23C66.5342 21.5 64.0342 22.25 62.5342 23.5C62.198 23.7802 62.0342 24.5 62.5342 25C63.0342 25.5 63.6909 25.0785 64.0342 25C65.714 24.6159 66.9463 24.8201 68.0342 25.5C69.122 26.1799 70.0342 27.5 70.0342 29C70.0342 32.7239 67.5783 35 63.8544 35Z" fill="#C3932F"/>
<path d="M72.5342 24.8882C70.2008 23.3882 64.7342 21.0882 61.5342 23.8882M69.5342 28.3882C69.5342 31.8882 68.5342 34.8882 64.0342 34.8882C59.0342 34.8882 56.0342 32.8882 55.5342 28.8882" stroke="#A97F27" stroke-linecap="round"/>
</g>
<mask id="mask13_171_470" style="mask-type:alpha" maskUnits="userSpaceOnUse" x="57" y="37" width="6" height="4">
<path d="M61.6747 38.989C61.9502 38.4789 62.5348 37.5014 62.0348 37.5014C61.6747 37.5014 61.5348 39.0014 60.0348 39.0014C59.5348 39.0014 59.299 38.473 59.5348 38.0014C59.7705 37.5299 59.1924 37.0014 58.5348 37.0014C57.8771 37.0014 57.5348 37.5028 57.5348 38.0014C57.5348 38.2509 57.4975 38.9656 58.0348 39.5014C58.9869 40.452 60.8934 40.4359 61.6747 38.989Z" fill="#C3932F"/>
</mask>
<g mask="url(#mask13_171_470)">
<path d="M61.6747 38.989C61.9502 38.4789 62.5348 37.5014 62.0348 37.5014C61.6747 37.5014 61.5348 39.0014 60.0348 39.0014C59.5348 39.0014 59.299 38.473 59.5348 38.0014C59.7705 37.5299 59.1924 37.0014 58.5348 37.0014C57.8771 37.0014 57.5348 37.5028 57.5348 38.0014C57.5348 38.2509 57.4975 38.9656 58.0348 39.5014C58.9869 40.452 60.8934 40.4359 61.6747 38.989Z" fill="#C3932F"/>
<path d="M57.0342 37.388C57.5342 36.388 59.0341 36.3882 59.5342 37.3883C60.0342 38.3882 59.5342 40.3883 61.0342 37.8881" stroke="#A97F27" stroke-linecap="round"/>
</g>
<mask id="mask14_171_470" style="mask-type:alpha" maskUnits="userSpaceOnUse" x="3" y="37" width="50" height="22">
<path d="M16.1967 39.3521C30.501 39.3521 45.6966 47.8536 48.5 48.6543C56.5127 51.6543 51.3201 47.9876 49.4882 47.1543C44.9882 45.1543 32.001 37.6543 15.9304 37.1543C9.6012 37.1543 4.82977 41.55 4.08971 48.1435C3.52828 53.1456 5.46988 55.7866 7.78999 56.9349C12.2303 59.1328 15.9306 58.0339 18.1507 56.2023C18.6484 55.7918 18.8908 54.7371 18.1507 54.0045C17.4107 53.2719 16.4387 53.8895 15.9306 54.0045C13.4443 54.5673 11.6203 54.2681 10.0102 53.2719C8.40001 52.2756 7.04993 50.3414 7.04993 48.1435C7.04993 42.6872 10.6849 39.3521 16.1967 39.3521Z" fill="#C3932F"/>
</mask>
<g mask="url(#mask14_171_470)">
<path d="M16.1967 39.3521C30.501 39.3521 45.6966 47.8536 48.5 48.6543C56.5127 51.6543 51.3201 47.9876 49.4882 47.1543C44.9882 45.1543 32.001 37.6543 15.9304 37.1543C9.6012 37.1543 4.82977 41.55 4.08971 48.1435C3.52828 53.1456 5.46988 55.7866 7.78999 56.9349C12.2303 59.1328 15.9306 58.0339 18.1507 56.2023C18.6484 55.7918 18.8908 54.7371 18.1507 54.0045C17.4107 53.2719 16.4387 53.8895 15.9306 54.0045C13.4443 54.5673 11.6203 54.2681 10.0102 53.2719C8.40001 52.2756 7.04993 50.3414 7.04993 48.1435C7.04993 42.6872 10.6849 39.3521 16.1967 39.3521Z" fill="#C3932F"/>
<path d="M16.7437 40.2546C29.9218 40.2546 43.921 47.9465 46.5037 48.6709C53.8855 51.3852 49.1017 48.0677 47.4141 47.3137C43.2684 45.5042 31.3037 38.7185 16.4984 38.2661C10.6675 38.2661 6.27177 42.2432 5.58999 48.2088C5.07276 52.7344 6.86149 55.1239 8.99893 56.1629C13.0897 58.1514 16.4986 57.1572 18.5439 55.5C19.0024 55.1286 19.2257 54.1744 18.5439 53.5115C17.8621 52.8487 16.9666 53.4075 16.4986 53.5115C14.2081 54.0207 12.5277 53.75 11.0443 52.8487C9.56092 51.9473 8.31714 50.1973 8.31714 48.2088C8.31714 43.2721 11.6659 40.2546 16.7437 40.2546Z" fill="#A97F27"/>
</g>
<mask id="mask15_171_470" style="mask-type:alpha" maskUnits="userSpaceOnUse" x="0" y="28" width="127" height="25">
<path d="M124.5 33.6542C123.5 39.6542 114.7 51.4542 87.5 50.6542C53.5 49.6542 28.5 29.6542 2 30.1542" stroke="#C3932F" stroke-width="4" stroke-linecap="round"/>
</mask>
<g mask="url(#mask15_171_470)">
<path d="M124.5 33.6542C123.5 39.6542 114.7 51.4542 87.5 50.6542C53.5 49.6542 28.5 29.6542 2 30.1542" stroke="#C3932F" stroke-width="4" stroke-linecap="round"/>
<path d="M126.5 34.2663C125.5 40.2663 114.7 54.4544 87.5 53.6544C53.5 52.6544 26.5 31.7662 2.80792e-10 32.2662" stroke="#A97F27" stroke-width="4" stroke-linecap="round"/>
</g>
<mask id="mask16_171_470" style="mask-type:alpha" maskUnits="userSpaceOnUse" x="22" y="0" width="98" height="48">
<path d="M25.8367 3.9311C23.8157 6.10815 22.5 9.29879 22.5 13.6539C22.5 18.5978 25.2003 23.1357 29.5357 27.1413C33.8735 31.1493 39.8979 34.6731 46.6768 37.6001C60.2339 43.4538 76.9236 46.969 89.4926 47.1539C103.131 47.3544 110.637 45.1033 114.742 42.1472C118.888 39.1616 119.5 35.5074 119.5 33.1539C119.5 30.3151 118.725 28.0692 117.448 26.523C116.167 24.9723 114.401 24.1539 112.5 24.1539C111.426 24.1539 110.323 24.421 109.473 24.9879C108.607 25.5647 108 26.46 108 27.6539C108 28.8169 108.35 29.6866 109 30.1543C109.624 30.6036 110.003 30.6543 110.5 30.6543C110.776 30.6543 111.5 30.6543 112 30.1543C112.5 29.6543 112.5 28.6543 112 28.1543C111.5 27.6543 113.131 27.2851 114 28.1543C114.5 28.6543 116 30.1543 116 33.6543C116 35.8008 115.804 38.4149 112 41.1543C108.155 43.9232 103.061 45.8537 89.5 45.6543C77.0691 45.4715 60.5 41.6543 47.5 34.6543C41 31.1543 37.5 27.6543 33.5 23.6543C29.5 19.6543 28.3064 16.3569 28 13.6543C27.6936 10.9517 27.6005 7.25353 29 5.1543C30.0923 3.5158 32 2.1543 34 2.1543C36.5 2.1543 38 3.1543 38.8531 3.9311C39.7062 4.7079 40.5 6.6543 39.5 7.1543C38.5 7.6543 38.5 6.6543 37.5 6.1543C36.5 5.6543 35.5 5.6543 34.5 6.1543C33.5 6.6543 33 7.6543 33 8.1543C33 8.6543 32.8451 9.968 33.5731 10.9517C34.3146 11.9537 35.701 12.6543 38 12.6543C39.8438 12.6543 41.3521 12.1263 42.4037 11.1447C43.4587 10.16 44 8.76884 44 7.15392C44 4.80097 42.5753 2.93924 40.5481 1.76089C38.524 0.584284 35.8522 0.0530376 33.1954 0.344634C30.5335 0.636792 27.853 1.75905 25.8367 3.9311Z" fill="#C3932F"/>
</mask>
<g mask="url(#mask16_171_470)">
<path d="M25.8367 3.9311C23.8157 6.10815 22.5 9.29879 22.5 13.6539C22.5 18.5978 25.2003 23.1357 29.5357 27.1413C33.8735 31.1493 39.8979 34.6731 46.6768 37.6001C60.2339 43.4538 76.9236 46.969 89.4926 47.1539C103.131 47.3544 110.637 45.1033 114.742 42.1472C118.888 39.1616 119.5 35.5074 119.5 33.1539C119.5 30.3151 118.725 28.0692 117.448 26.523C116.167 24.9723 114.401 24.1539 112.5 24.1539C111.426 24.1539 110.323 24.421 109.473 24.9879C108.607 25.5647 108 26.46 108 27.6539C108 28.8169 108.35 29.6866 109 30.1543C109.624 30.6036 110.003 30.6543 110.5 30.6543C110.776 30.6543 111.5 30.6543 112 30.1543C112.5 29.6543 112.5 28.6543 112 28.1543C111.5 27.6543 113.131 27.2851 114 28.1543C114.5 28.6543 116 30.1543 116 33.6543C116 35.8008 115.804 38.4149 112 41.1543C108.155 43.9232 103.061 45.8537 89.5 45.6543C77.0691 45.4715 60.5 41.6543 47.5 34.6543C41 31.1543 37.5 27.6543 33.5 23.6543C29.5 19.6543 28.3064 16.3569 28 13.6543C27.6936 10.9517 27.6005 7.25353 29 5.1543C30.0923 3.5158 32 2.1543 34 2.1543C36.5 2.1543 38 3.1543 38.8531 3.9311C39.7062 4.7079 40.5 6.6543 39.5 7.1543C38.5 7.6543 38.5 6.6543 37.5 6.1543C36.5 5.6543 35.5 5.6543 34.5 6.1543C33.5 6.6543 33 7.6543 33 8.1543C33 8.6543 32.8451 9.968 33.5731 10.9517C34.3146 11.9537 35.701 12.6543 38 12.6543C39.8438 12.6543 41.3521 12.1263 42.4037 11.1447C43.4587 10.16 44 8.76884 44 7.15392C44 4.80097 42.5753 2.93924 40.5481 1.76089C38.524 0.584284 35.8522 0.0530376 33.1954 0.344634C30.5335 0.636792 27.853 1.75905 25.8367 3.9311Z" fill="#C3932F"/>
<path d="M24 3.76612C21.979 5.94317 20.875 9.76612 22 14.2661C23.5 20.2661 25.6646 22.7605 30 26.7661C34.3378 30.7741 39.8979 34.6731 46.6768 37.6002C60.2339 43.4539 76.9309 47.0813 89.5 47.2661C103.139 47.4667 110.637 45.1033 114.742 42.1472C118.888 39.1616 120.5 35.6196 120.5 33.2661M29 7.76612C28.8333 6.09945 29.7 2.26612 34.5 2.26612C38.5 2.26612 39.8333 4.76612 39.5 5.76612M45 8.26612C44 9.59945 41.2 12.2661 38 12.2661C34 12.2661 32 9.76612 32 9.26612" stroke="#A97F27" stroke-width="2" stroke-linecap="round"/>
<path d="M115 31.7661C115.5 29.2657 113.5 26.2663 112 27.7661M113 29.7661C112.5 30.7661 110 31.3661 108 29.7661" stroke="#A97F27" stroke-linecap="round"/>
</g>
<mask id="mask17_171_470" style="mask-type:alpha" maskUnits="userSpaceOnUse" x="103" y="21" width="18" height="15">
<path fill-rule="evenodd" clip-rule="evenodd" d="M111.68 23.1543C117.389 23.1543 119.4 26.4347 120.026 28.3124C120.113 28.5744 120.396 28.716 120.658 28.6286C120.92 28.5413 121.062 28.2582 120.974 27.9962C120.267 25.8739 117.79 21.6543 111.5 21.6543C107.224 21.6543 104 24.6543 103.5 29.1543C103.121 32.5681 104.432 34.3705 106 35.1543C109 36.6543 111.5 35.9043 113 34.6543C113.336 34.3741 113.5 33.6543 113 33.1543C112.5 32.6543 111.843 33.0758 111.5 33.1543C109.82 33.5384 108.588 33.3342 107.5 32.6543C106.412 31.9744 105.5 30.6543 105.5 29.1543C105.5 25.4304 107.956 23.1543 111.68 23.1543Z" fill="#C3932F"/>
</mask>
<g mask="url(#mask17_171_470)">
<path fill-rule="evenodd" clip-rule="evenodd" d="M111.68 23.1543C117.389 23.1543 119.4 26.4347 120.026 28.3124C120.113 28.5744 120.396 28.716 120.658 28.6286C120.92 28.5413 121.062 28.2582 120.974 27.9962C120.267 25.8739 117.79 21.6543 111.5 21.6543C107.224 21.6543 104 24.6543 103.5 29.1543C103.121 32.5681 104.432 34.3705 106 35.1543C109 36.6543 111.5 35.9043 113 34.6543C113.336 34.3741 113.5 33.6543 113 33.1543C112.5 32.6543 111.843 33.0758 111.5 33.1543C109.82 33.5384 108.588 33.3342 107.5 32.6543C106.412 31.9744 105.5 30.6543 105.5 29.1543C105.5 25.4304 107.956 23.1543 111.68 23.1543Z" fill="#C3932F"/>
<path d="M103 33.2661C105.333 34.7661 110.8 37.0661 114 34.2661M106 29.7661C106 26.2661 107 23.2661 111.5 23.2661C116.5 23.2661 119.5 25.2661 120 29.2661" stroke="#A97F27" stroke-linecap="round"/>
</g>
<mask id="mask18_171_470" style="mask-type:alpha" maskUnits="userSpaceOnUse" x="113" y="17" width="5" height="5">
<path d="M113.859 19.1653C113.584 19.6754 112.999 20.6529 113.499 20.6529C113.859 20.6529 113.999 19.1529 115.499 19.1529C115.999 19.1529 116.235 19.6813 115.999 20.1529C115.764 20.6244 116.342 21.1529 116.999 21.1529C117.657 21.1529 117.999 20.6515 117.999 20.1529C117.999 19.9034 118.037 19.1887 117.499 18.6529C116.547 17.7023 114.641 17.7184 113.859 19.1653Z" fill="#C3932F"/>
</mask>
<g mask="url(#mask18_171_470)">
<path d="M113.859 19.1653C113.584 19.6754 112.999 20.6529 113.499 20.6529C113.859 20.6529 113.999 19.1529 115.499 19.1529C115.999 19.1529 116.235 19.6813 115.999 20.1529C115.764 20.6244 116.342 21.1529 116.999 21.1529C117.657 21.1529 117.999 20.6515 117.999 20.1529C117.999 19.9034 118.037 19.1887 117.499 18.6529C116.547 17.7023 114.641 17.7184 113.859 19.1653Z" fill="#C3932F"/>
<path d="M118.5 20.7662C118 21.7662 116.5 21.7661 116 20.766C115.5 19.7661 116 17.766 114.5 20.2661" stroke="#A97F27" stroke-linecap="round"/>
</g>
</svg>
